<svg width="17" height="15" viewBox="0 0 17 15" fill="none" xmlns="http://www.w3.org/2000/svg">
<path d="M14.1663 0H2.83369C1.275 0 0 1.125 0 2.50031V12.4997C0 13.8759 1.275 15 2.83369 15H14.1663C15.725 15 17 13.8759 17 12.4997V2.50031C17 1.125 15.725 0 14.1663 0ZM14.1663 1.875C14.2991 1.875 14.4245 1.90875 14.5318 1.96781L8.49894 6.36844L2.46713 1.96781C2.57444 1.90875 2.69981 1.875 2.83262 1.875H14.1652H14.1663ZM2.83369 13.125C2.80181 13.125 2.76994 13.1231 2.73913 13.1194L6.48444 8.535L5.99887 8.10656L2.125 11.5247V2.5725L8.5 9.375L14.875 2.5725V11.5247L11.0011 8.10656L10.5156 8.535L14.2609 13.1194C14.2301 13.1231 14.1982 13.125 14.1674 13.125H2.83369Z" fill="white"/>
</svg>
