<svg width="48" height="48" viewBox="0 0 48 48" fill="none" xmlns="http://www.w3.org/2000/svg">
<path d="M23.551 25.7452C23.7356 25.5691 23.9514 25.3717 24.1581 25.1658C24.6764 24.6488 25.1955 24.1312 25.7025 23.6029C25.7628 23.5397 25.8047 23.3821 25.7685 23.3146C25.3482 22.5243 24.9108 21.7418 24.4769 20.9586C24.4677 20.9415 24.4407 20.9337 24.3846 20.8975C18.2744 27.0176 12.1585 33.1434 5.98872 39.3225C5.95677 39.0363 5.91203 38.8191 5.91203 38.6025C5.90777 30.0113 5.90635 21.4215 5.90919 12.8311C5.90919 11.467 7.19372 10.1981 8.59824 10.1818C10.0986 10.1647 11.5983 10.1768 13.0987 10.1768C16.7492 10.1768 20.399 10.1754 24.0494 10.1804C24.2653 10.1804 24.4109 10.1363 24.5451 9.94249C26.0717 7.74198 28.1643 6.38716 30.8058 6.01295C33.8314 5.58406 36.4935 6.46739 38.6613 8.63667C40.5892 10.5659 41.4725 12.9426 41.3411 15.6721C41.2531 17.5048 40.7113 19.2295 39.8656 20.8407C39.054 22.3865 38.1444 23.8812 37.2923 25.4058C37.1837 25.6003 37.1063 25.8425 37.1056 26.0626C37.0949 30.1924 37.0985 34.3214 37.0949 38.4512C37.0949 38.7168 37.058 38.9831 37.0381 39.2408C32.5355 34.7361 28.055 30.2527 23.5503 25.7459L23.551 25.7452ZM32.0967 8.75383C30.7284 8.77726 29.4318 9.19621 28.3127 10.0838C26.4665 11.548 25.5981 13.4559 25.8111 15.8255C25.9638 17.5197 26.6249 19.0456 27.4436 20.5027C28.3802 22.1707 29.3828 23.801 30.3286 25.464C31.0564 26.7428 31.6572 28.0735 31.7118 29.5845C31.7211 29.8437 31.8723 30.0092 32.1379 30.0127C32.4155 30.0163 32.5781 29.8657 32.5938 29.5796C32.6775 28.0394 33.2768 26.6711 34.0246 25.3596C34.9313 23.7698 35.8835 22.2055 36.774 20.6071C37.604 19.1174 38.285 17.568 38.4703 15.8382C38.8722 12.0834 35.924 8.76803 32.0967 8.75383ZM17.6666 19.9971C17.3023 21.3342 16.1271 22.2523 14.7595 22.3098C13.1718 22.3773 11.7851 21.4691 11.2497 20.0106C10.71 18.5429 11.1715 16.985 12.4916 15.9795C13.5631 15.163 15.2672 14.9393 16.7563 16.0988C17.291 15.5634 17.8221 15.0323 18.3617 14.4926C18.3504 14.4806 18.3213 14.4444 18.2865 14.4138C16.0718 12.4519 12.5086 12.5918 10.4501 14.7206C8.66854 16.5625 8.24391 19.1628 9.36086 21.3938C10.5438 23.757 13.1647 25.0131 15.7671 24.4919C17.0105 24.2434 18.0756 23.6817 18.8332 22.6734C19.8288 21.3484 20.2179 19.8274 20.0411 18.1644C20.0098 17.8719 19.914 17.7959 19.6314 17.7973C18.1196 17.8073 16.6079 17.7973 15.0961 17.7945C14.9229 17.7945 14.7503 17.7945 14.5664 17.7945V19.9978H17.668L17.6666 19.9971ZM8.84961 41.4151C17.3442 41.4179 25.8395 41.4179 34.3341 41.4144C34.5365 41.4144 34.7396 41.3703 34.9185 41.349C30.4231 36.8443 25.9453 32.3567 21.442 27.8442C17.0055 32.3219 12.5491 36.8202 8.04935 41.3625C8.33551 41.3824 8.59256 41.4151 8.84961 41.4151Z" fill="white"/>
</svg>
