<svg width="48" height="48" viewBox="0 0 48 48" fill="none" xmlns="http://www.w3.org/2000/svg">
<path d="M19.0976 18.2905H25.6247V21.6354H25.7191C26.6272 20.0054 28.8494 18.2905 32.1636 18.2905C39.054 18.2905 40.3278 22.579 40.3278 28.1578V39.5207H33.5223V29.4481C33.5223 27.0467 33.4728 23.9542 29.984 23.9542C26.4409 23.9542 25.8984 26.5703 25.8984 29.2736V39.5207H19.0976V18.2905Z" fill="white"/>
<path d="M7.30292 18.2905H14.3797V39.5207H7.30292V18.2905Z" fill="white"/>
<path d="M14.3798 12.3932C14.3798 14.3464 12.7946 15.9316 10.8415 15.9316C8.88832 15.9316 7.3031 14.3464 7.3031 12.3932C7.3031 10.4401 8.88832 8.85489 10.8415 8.85489C12.7946 8.85489 14.3798 10.4401 14.3798 12.3932Z" fill="white"/>
</svg>
