<svg width="48" height="48" viewBox="0 0 48 48" fill="none" xmlns="http://www.w3.org/2000/svg">
<path d="M30.8774 27.1452C28.8946 29.128 28.8946 31.1109 26.9117 31.1109C24.929 31.1109 22.9461 29.128 20.9634 27.1452C18.9805 25.1624 16.9978 23.1796 16.9978 21.1968C16.9978 19.214 18.9805 19.214 20.9634 17.2312C22.9461 15.2483 16.9978 9.29996 15.0149 9.29996C13.0321 9.29996 9.06653 15.2483 9.06653 15.2483C9.06653 19.214 13.1412 27.2542 16.9978 31.1109C20.8543 34.9674 28.8946 39.0421 32.8602 39.0421C32.8602 39.0421 38.8087 35.0765 38.8087 33.0936C38.8087 31.1109 32.8602 25.1624 30.8774 27.1452Z" fill="white"/>
</svg>
