<svg width="48" height="48" viewBox="0 0 48 48" fill="none" xmlns="http://www.w3.org/2000/svg">
<path d="M34.4162 13.4085C31.592 10.5787 27.8359 9.02231 23.8346 9.02231C15.5922 9.02231 8.8836 15.7309 8.8836 23.9789C8.8836 26.6145 9.57413 29.1915 10.8815 31.4553L8.75909 39.2071L16.6883 37.1263C18.8748 38.3167 21.3349 38.9487 23.8326 38.9487H23.8383C32.0807 38.9487 38.7949 32.2401 38.7949 23.9921C38.7949 19.9945 37.2385 16.2403 34.4144 13.4105L34.4162 13.4085ZM23.8383 36.4245C21.6046 36.4245 19.4163 35.8227 17.5071 34.6908L17.0524 34.4191L12.3474 35.651L13.6038 31.0648L13.3095 30.5931C12.0587 28.618 11.406 26.3314 11.406 23.9789C11.406 17.1232 16.9826 11.5447 23.8459 11.5447C27.1644 11.5447 30.2903 12.8426 32.6353 15.1876C34.9822 17.5401 36.2726 20.6585 36.2726 23.9827C36.2669 30.8441 30.6903 36.4245 23.8383 36.4245ZM30.6545 27.1106C30.2828 26.922 28.4434 26.0201 28.1019 25.8956C27.7604 25.7711 27.5114 25.707 27.2587 26.0843C27.0115 26.456 26.2928 27.2992 26.0739 27.552C25.8551 27.7992 25.6381 27.835 25.2664 27.6464C24.8948 27.4577 23.6855 27.0634 22.2593 25.79C21.15 24.7995 20.3972 23.5733 20.1784 23.2017C19.9596 22.83 20.1539 22.6243 20.3444 22.4413C20.5161 22.2753 20.7161 22.0056 20.9047 21.7868C21.0934 21.5679 21.1519 21.4151 21.2764 21.1623C21.4009 20.9152 21.3406 20.6963 21.2462 20.5077C21.1519 20.319 20.4029 18.4796 20.0973 17.7306C19.7973 16.9987 19.4841 17.1006 19.254 17.0873C19.0352 17.076 18.7881 17.076 18.5409 17.076C18.2937 17.076 17.8863 17.1703 17.5448 17.542C17.2033 17.9136 16.2355 18.8211 16.2355 20.6605C16.2355 22.4998 17.5731 24.2751 17.7618 24.5279C17.9504 24.775 20.3972 28.5538 24.1458 30.1706C25.0363 30.5536 25.7324 30.7837 26.2739 30.961C27.17 31.244 27.9831 31.2025 28.6264 31.1082C29.3452 31.0025 30.8375 30.2064 31.1506 29.333C31.4638 28.4595 31.4638 27.7124 31.3695 27.5577C31.2808 27.3917 31.0337 27.2992 30.6563 27.1087L30.6545 27.1106Z" fill="white"/>
</svg>
