<svg width="48" height="48" viewBox="0 0 48 48" fill="none" xmlns="http://www.w3.org/2000/svg">
<path d="M40.1288 17.1207C40.1288 17.1207 39.8224 14.9552 38.8782 14.0051C37.6825 12.7545 36.3436 12.7466 35.7311 12.674C31.3394 12.354 24.7428 12.354 24.7428 12.354H24.7311C24.7311 12.354 18.1366 12.354 13.7429 12.674C13.1284 12.7486 11.7914 12.7545 10.5958 14.0051C9.65149 14.9552 9.35109 17.1207 9.35109 17.1207C9.35109 17.1207 9.03894 19.6612 9.03894 22.2074V24.5888C9.03894 27.1293 9.35109 29.6756 9.35109 29.6756C9.35109 29.6756 9.6574 31.841 10.5958 32.7932C11.7914 34.0438 13.362 34.0026 14.0629 34.136C16.5777 34.3756 24.7448 34.4482 24.7448 34.4482C24.7448 34.4482 31.3472 34.4364 35.739 34.1223C36.3535 34.0497 37.6904 34.0418 38.886 32.7912C39.8304 31.841 40.1366 29.6737 40.1366 29.6737C40.1366 29.6737 40.4487 27.1332 40.4487 24.5869V22.2055C40.4428 19.6651 40.1307 17.1188 40.1307 17.1188L40.1288 17.1207ZM21.4898 27.4767V18.6481L29.9749 23.0771L21.4898 27.4767Z" fill="white"/>
</svg>
