<svg width="66" height="65" viewBox="0 0 66 65" fill="none" xmlns="http://www.w3.org/2000/svg">
<path d="M47.6401 30.9577C47.3221 31.5215 47.2353 32.2009 46.5992 32.4756H43.867V30.3505H47.6256V26.534H50.011C50.1266 27.1412 50.0399 27.7773 50.0688 28.3989C50.0688 29.0061 50.0688 29.6132 50.0688 30.2638C50.7193 30.3794 51.341 30.3071 51.977 30.3216C52.5842 30.3216 53.1914 30.3216 53.8564 30.3216C53.8275 30.9432 53.6106 31.4781 53.3504 31.9696C53.1335 32.3744 52.7721 32.5913 52.2806 32.5768C51.5723 32.5623 50.8639 32.5768 50.0832 32.5768V36.3788H47.7124C47.5678 35.8006 47.669 35.1934 47.6546 34.6007C47.6401 33.9935 47.6546 33.3719 47.6546 32.7647C47.6546 32.1576 47.6546 31.5504 47.6546 30.9432L47.6401 30.9577Z" fill="black"/>
<path d="M35.4241 27.2568C34.7447 27.4736 34.0652 27.6905 33.3858 27.9073C33.2846 27.9507 33.1834 27.994 33.0822 28.0374C31.2029 28.7458 29.3669 29.5264 27.6032 30.4805C27.5454 30.5095 27.4875 30.5817 27.4442 30.6251C26.7214 31.0299 26.013 31.4202 25.2902 31.825C23.035 33.1116 20.7653 34.3982 18.6691 35.9595C17.9897 36.4655 17.6716 36.4511 17.1223 35.8584C17.1223 35.6415 17.1223 35.4247 17.1223 35.2223C17.3391 34.0658 17.874 33.0249 18.3655 31.9696C19.1317 30.3215 20.0425 28.7313 21.1267 27.2568L21.2424 27.011C21.1556 27.0399 21.0544 27.0688 20.9677 27.0977C20.3171 27.3146 19.6666 27.5459 19.0161 27.7627C18.6547 27.7627 18.2788 27.7627 17.9174 27.7627C17.2379 27.17 17.2957 26.7363 18.0764 26.4617C18.2354 26.4327 18.4089 26.4038 18.5679 26.3749L19.0016 26.346C19.1606 26.3026 19.3196 26.2593 19.4642 26.2159C20.2593 26.0135 21.04 25.7388 21.7772 25.3485C22.0664 25.1895 22.37 25.0883 22.6735 24.9582C22.8326 24.9582 22.9916 24.9582 23.1506 24.9582C23.3385 25.0883 23.5265 25.2184 23.7144 25.3341C23.671 25.6521 23.6277 25.9557 23.5843 26.2737C21.7628 28.5289 20.1148 30.9142 19.1317 33.6754C19.1028 33.7766 19.0739 33.8634 19.045 33.9646C19.1317 33.9356 19.2329 33.9067 19.3196 33.8778C20.3605 33.2562 21.4158 32.6346 22.4567 32.0129C23.2229 31.5648 23.9746 31.1022 24.7264 30.6396C25.4203 30.2348 26.1286 29.8445 26.8225 29.4397C26.9382 29.4108 27.0828 29.4108 27.184 29.3529C29.1356 28.2109 31.2173 27.3435 33.3135 26.505C33.4291 26.4617 33.5448 26.3894 33.646 26.3315C34.8314 25.9268 36.0169 25.522 37.2167 25.1172C37.3613 25.0738 37.5203 25.0305 37.6649 24.9871C37.7083 24.9871 37.7516 24.9871 37.795 24.9582C37.9107 24.9148 38.0263 24.8859 38.142 24.8425C38.2287 24.8281 38.3154 24.8136 38.4166 24.7992C38.5756 24.7558 38.7347 24.7124 38.8937 24.6691C38.9371 24.6691 38.9949 24.6691 39.0383 24.6546C39.2551 24.6112 39.4575 24.5679 39.6743 24.5389H40.4405C40.8453 24.7413 40.961 25.0738 40.8598 25.5943C40.7152 25.681 40.4984 25.8111 40.296 25.9268C40.1369 25.9701 39.9779 26.0135 39.8189 26.0424C39.7177 26.0424 39.631 26.0713 39.5298 26.0858C39.3708 26.1292 39.2117 26.1581 39.0527 26.2014C39.0093 26.2014 38.966 26.2014 38.9226 26.2159C38.7636 26.2593 38.6046 26.3026 38.4455 26.346C38.3588 26.346 38.2576 26.3749 38.1709 26.3894C38.0552 26.4183 37.9396 26.4617 37.8384 26.4906L37.5637 26.6207C36.9132 26.7508 36.2626 26.8375 35.6844 27.1989C35.6121 27.2134 35.5253 27.2423 35.4531 27.2568H35.4241ZM6.2221 39.1544C6.33775 39.14 6.46786 39.0821 6.58351 39.0966C6.69916 39.0966 6.80036 39.1689 6.90155 39.2122C7.2196 39.2122 7.52318 39.2122 7.84122 39.2122C8.14481 39.0821 8.46285 38.9954 8.72307 38.8219C9.27241 38.4461 9.69165 37.9401 10.0386 37.3618C10.8048 36.1186 11.3252 34.7886 11.6577 33.3718C11.7011 33.2128 11.73 33.0393 11.7734 32.8803C11.8023 32.5912 11.8312 32.3021 11.8457 32.0129C11.8457 31.4925 11.8457 30.9721 11.8312 30.4516C11.7734 29.6132 11.3252 29.0349 10.6024 28.6735C10.082 28.5434 9.61937 28.7024 9.2435 29.006C8.83872 29.3385 8.49176 29.7433 8.1159 30.1191C8.07253 30.1914 8.04361 30.2492 7.97133 30.3649C7.79785 30.1191 7.7834 29.9746 7.97133 29.8156C7.98579 29.671 8.0147 29.5264 8.02916 29.3819C8.07253 29.2228 8.10144 29.0638 8.14481 28.9048C8.14481 28.8614 8.14481 28.8036 8.17372 28.7602L8.28937 28.2832C8.40503 27.7772 8.52068 27.2857 8.65078 26.7797L8.75198 26.4472C8.75198 26.3749 8.75198 26.2882 8.78089 26.2159C9.34469 24.351 9.89404 22.5006 10.4578 20.6357C10.5012 20.4767 10.5446 20.3177 10.588 20.1586C10.588 19.2334 10.3711 18.9732 9.54709 19.0021C9.2435 19.219 9.1423 19.5515 9.04111 19.8984C8.73752 20.9104 8.43394 21.9223 8.13035 22.9198C8.08698 23.0788 8.04361 23.2379 8.00024 23.3824C7.94242 23.5848 7.89905 23.7872 7.84122 23.9896C7.79785 24.1486 7.75448 24.3076 7.69666 24.4667C7.63883 24.7124 7.58101 24.9582 7.50872 25.2184L7.37862 25.6955C7.32079 25.9412 7.26297 26.2014 7.19068 26.4472C7.14731 26.6062 7.10394 26.7652 7.06057 26.9098C7.06057 26.9532 7.06057 27.011 7.04612 27.0544C7.00275 27.2134 6.95938 27.3724 6.91601 27.5314C6.91601 27.5748 6.91601 27.6182 6.90155 27.6615C6.85818 27.8206 6.81481 27.9796 6.77145 28.1386C6.75699 28.2253 6.74253 28.3265 6.72808 28.4133L6.61242 28.8903C6.61242 28.8903 6.61242 28.9915 6.58351 29.0349C6.54014 29.1939 6.49677 29.3529 6.46786 29.512C6.46786 29.5987 6.43895 29.6999 6.42449 29.7866C6.38112 29.9457 6.33775 30.1047 6.29438 30.2637C6.29438 30.3071 6.29438 30.3649 6.27993 30.4083C6.27993 30.6251 6.38112 30.8564 6.14982 31.0299C6.14982 31.0733 6.14982 31.1311 6.13536 31.1745C6.09199 31.3335 6.06308 31.4925 6.01971 31.666C6.01971 31.7672 5.9908 31.8539 5.97634 31.9551C5.93297 32.1141 5.90406 32.2876 5.86069 32.4466C5.86069 32.5334 5.83178 32.6346 5.83178 32.7213C5.78841 32.9381 5.74504 33.1405 5.70167 33.3574C5.64384 33.7622 5.57156 34.1525 5.51373 34.5573C5.47036 34.7741 5.44145 34.9765 5.39808 35.1934C5.39808 35.2945 5.38363 35.3813 5.36917 35.4825C5.3258 35.6993 5.29689 35.9162 5.25352 36.1186C5.25352 36.2198 5.23906 36.3065 5.2246 36.4077C5.2246 36.6679 5.31134 36.957 5.0945 37.1883C5.0945 37.2317 5.0945 37.2751 5.08004 37.3329C5.03667 37.5931 5.00776 37.8678 4.96439 38.128C4.94993 38.3738 4.93548 38.6051 4.90656 38.8508C4.90656 39.1111 4.90656 39.3713 4.90656 39.6459C5.06558 39.805 5.2246 39.9784 5.38363 40.1375C5.54265 40.1375 5.71612 40.1375 5.87515 40.1375C5.93297 40.0796 5.9908 40.0074 6.04862 39.9495C6.07754 39.8339 6.12091 39.7327 6.14982 39.617C6.14982 39.5158 6.17873 39.4291 6.19319 39.3279C6.20764 39.2556 6.2221 39.1978 6.25101 39.1255L6.2221 39.1544ZM6.58351 36.7257C6.69916 36.1764 6.80036 35.6126 6.91601 35.0632C6.95938 34.9042 7.00275 34.7452 7.04612 34.5862C7.30633 33.5019 7.66775 32.4755 8.28937 31.5503C8.59296 31.1022 8.92546 30.6396 9.4748 30.4372C9.64828 30.2348 9.8073 30.2203 9.98078 30.4372C10.241 30.5528 10.2844 30.7986 10.2988 31.0444C10.4868 31.4202 10.4868 31.7961 10.2988 32.172C10.241 32.5767 10.1832 32.9671 10.1253 33.3718C10.082 33.5309 10.0386 33.6899 9.99523 33.8634C9.79284 34.7307 9.50372 35.5548 9.07002 36.3354C8.75198 36.9137 8.33274 37.4196 7.66775 37.6654C7.46536 37.9112 7.24851 37.8967 7.03166 37.6654C6.87264 37.5642 6.69916 37.4775 6.54014 37.3763C6.33775 37.145 6.36666 36.9281 6.56906 36.7113L6.58351 36.7257ZM14.9972 33.9646C15.0116 33.7766 15.0405 33.5742 15.055 33.3863C15.0839 33.2273 15.1128 33.0538 15.1562 32.8948C15.214 32.5478 15.2718 32.2009 15.3441 31.8539C15.3441 31.6371 15.2429 31.3913 15.4887 31.2467C15.4887 31.2034 15.4887 31.1455 15.5176 31.1022C15.5465 30.9865 15.5899 30.8709 15.6188 30.7697C15.6766 30.5239 15.7489 30.2782 15.8067 30.0324C15.8501 29.8734 15.8935 29.7288 15.9513 29.5698C16.1103 29.0638 16.2693 28.5434 16.4139 28.0374C16.4139 27.8206 16.4139 27.6182 16.4139 27.4013C15.9224 26.9821 15.6333 27.011 15.3297 27.5025C15.2429 27.6326 15.1996 27.7772 15.1417 27.9073C14.8381 28.7602 14.5346 29.6132 14.2454 30.4661C14.2021 30.6251 14.1587 30.7841 14.1009 30.9287C13.9997 31.3913 13.884 31.8395 13.7828 32.3021C13.7828 32.5623 13.8696 32.8514 13.6383 33.0827C13.6383 33.1261 13.6383 33.1839 13.6383 33.2273C13.6093 33.4441 13.566 33.661 13.5371 33.8778C13.5082 34.2248 13.4937 34.5573 13.4648 34.9042C13.4648 35.2223 13.5949 35.5548 13.378 35.8584V37.3185C13.5082 37.4341 13.6527 37.5642 13.7973 37.7088C13.9563 37.7088 14.1298 37.7088 14.2888 37.7088C14.549 37.5642 14.6936 37.3474 14.737 37.0582C14.7659 36.5378 14.6213 36.0029 14.8671 35.4969C14.8671 35.3524 14.8815 35.2078 14.896 35.0632C14.9249 34.7018 14.7803 34.3115 15.0261 33.979L14.9972 33.9646ZM15.879 23.2812C16.2693 23.9896 16.7898 24.0908 17.2524 23.4692C17.5849 23.021 17.8451 22.4717 18.0186 21.9368C18.1631 21.5031 18.0908 21.026 17.6716 20.7224C17.2379 20.5634 16.891 20.7224 16.6597 21.0549C16.3705 21.4597 16.1537 21.9223 15.9079 22.356C15.8935 22.6741 15.879 22.9921 15.8646 23.3101L15.879 23.2812Z" fill="black"/>
<path d="M37.535 26.6208C37.7374 27.6616 37.9398 28.6881 38.1422 29.7289C38.3591 30.8421 38.5614 31.9552 38.7638 33.0684C38.8795 33.69 38.9951 34.3116 39.1108 34.9188C39.1108 34.9332 39.0819 34.9622 39.0819 34.9766C39.0963 35.02 39.1397 35.0489 39.1686 35.0778C39.4144 36.4512 39.6601 37.8245 39.9059 39.1979C39.9059 39.2124 39.8625 39.2413 39.8625 39.2557C39.8914 39.2846 39.9204 39.328 39.9493 39.3569C40.0505 39.9063 40.1372 40.4412 40.2384 41.0339H37.9832C37.7663 39.7183 37.5495 38.3883 37.3182 37.0728L37.2025 36.9716C36.1328 36.9716 35.063 36.9716 33.9932 36.9716C33.9498 37.0005 33.9065 37.0294 33.8631 37.0583C33.733 37.7667 33.6173 38.4895 33.4872 39.1979C33.4728 39.2557 33.4439 39.2991 33.4294 39.3569C33.3427 39.9063 33.2559 40.4412 33.1547 41.0194H30.8851C31.0007 40.2966 31.1164 39.5882 31.232 38.8799C31.2609 38.7787 31.2899 38.6775 31.3043 38.5907C31.4344 37.8245 31.579 37.0583 31.7091 36.2921C31.7235 36.2343 31.7525 36.191 31.7669 36.1331C31.8392 35.7139 31.9115 35.3091 31.9838 34.8899C32.0127 34.7453 32.0416 34.6007 32.085 34.4562C32.3307 33.1262 32.5765 31.7962 32.8222 30.4662C32.9668 29.7 33.0969 28.9338 33.2415 28.1676C33.2848 28.0809 33.3138 27.9941 33.3571 27.8929C34.0366 27.6761 34.716 27.4593 35.3955 27.2424C35.3521 27.5749 35.3232 27.8929 35.2798 28.2254C35.1497 29.0784 35.0196 29.9313 34.8895 30.7842C34.8606 30.7842 34.8317 30.7987 34.8317 30.8132C34.8317 30.8565 34.8317 30.8854 34.8461 30.9288C34.7016 31.8396 34.557 32.7648 34.4124 33.6755C34.398 33.7334 34.3835 33.7767 34.3546 33.8345C34.3257 34.1237 34.2968 34.4128 34.2534 34.7598C34.7594 34.7598 35.1931 34.7742 35.6123 34.7598C36.0316 34.7453 36.4508 34.8465 36.8556 34.6875C36.711 33.8779 36.5665 33.1117 36.4363 32.3455C36.1761 30.7987 35.9448 29.2663 35.6846 27.7195C35.6991 27.7195 35.728 27.6906 35.7424 27.6761C35.7135 27.6472 35.6846 27.6183 35.6557 27.5749C35.6557 27.4448 35.6268 27.3147 35.6123 27.1846C36.1906 26.8232 36.8411 26.7364 37.4917 26.6063L37.535 26.6208ZM41.1925 22.6453C41.1781 23.1223 41.1636 23.5849 41.1347 24.062C41.1347 24.1054 41.1347 24.1632 41.1347 24.2066C41.1347 24.3077 41.1347 24.4089 41.1347 24.5101C41.1347 24.6547 41.1347 24.8137 41.1347 24.9583C41.1347 25.1751 41.1347 25.3775 41.1347 25.5944C41.1347 25.6956 41.1347 25.7968 41.1347 25.898C41.1347 26.1726 41.1492 26.4618 41.1492 26.7364C41.1492 31.3047 41.1492 35.8585 41.1492 40.4267C41.1492 40.6291 41.1492 40.817 41.1492 41.0194H43.5056V24.7993H46.8595C46.8595 24.3945 46.8595 24.0331 46.8595 23.6861C46.8595 23.3392 46.8595 22.9922 46.8595 22.6308C46.4547 22.6308 46.1511 22.6308 45.8475 22.6308C44.344 22.6308 42.8406 22.6163 41.3371 22.6019L41.1781 22.6453H41.1925ZM25.9121 32.9383C26.5048 34.0803 27.1409 35.2079 27.4589 36.4656C27.589 36.9861 27.6613 37.5209 27.4589 38.0269C27.0107 39.0678 25.9554 39.4726 24.8712 38.9666C24.4664 38.7787 24.105 38.5184 23.7147 38.2871C23.7147 38.345 23.7002 38.3883 23.6858 38.4462V40.658C24.0905 40.8315 24.4519 40.976 24.8134 41.1351C24.8567 41.1495 24.9146 41.1784 24.9579 41.1929C25.1314 41.2218 25.3049 41.2796 25.4784 41.2941C26.577 41.4242 27.6035 41.2363 28.4419 40.4556C29.6852 39.2991 30.0321 37.8245 29.7719 36.2199C29.4394 34.1815 28.4275 32.4178 27.43 30.6397C26.7072 31.0445 25.9988 31.4348 25.276 31.8396C25.4928 32.2154 25.7097 32.5768 25.9121 32.9527V32.9383ZM26.4325 28.6158C26.0422 27.7484 25.7675 26.8665 25.8542 25.898C25.9265 25.1607 26.4325 24.6113 27.1553 24.539C27.6613 24.4812 28.1673 24.5101 28.6443 24.7559C28.8323 24.8571 29.0636 24.9149 29.266 24.9872C29.266 24.9294 29.2804 24.886 29.2949 24.8282V22.9055C27.0975 21.6333 24.2929 22.6742 23.6858 25.3342C23.6424 25.6522 23.599 25.9558 23.5556 26.2738C23.5267 27.8351 24.0327 29.2663 24.7122 30.6397C25.4061 30.2349 26.1144 29.8446 26.8084 29.4398C26.6782 29.1651 26.5481 28.8904 26.418 28.6158H26.4325ZM52.9312 38.8943C52.4396 38.8943 51.9626 38.9088 51.4855 38.8943C51.0085 38.8799 50.5314 38.981 50.0254 38.8076V36.9571H47.6835V41.0339H54.4491V38.8799C53.8997 38.8799 53.4227 38.8799 52.9312 38.8799V38.8943ZM57.2536 36.5524C56.5308 36.6246 55.8947 36.8704 55.3888 37.4487C55.49 37.5499 55.5767 37.6221 55.6634 37.7089C55.9959 37.5932 56.2851 37.4487 56.6031 37.3908C56.9211 37.3186 57.2392 37.3186 57.5572 37.2896C57.6151 37.3041 57.6584 37.333 57.7163 37.3475C58.3234 37.5354 58.3379 37.998 58.2801 38.6196C58.0054 38.8799 57.7018 39.2268 57.3548 39.5015C57.0368 39.7472 56.6609 39.9063 56.314 40.1231C56.1983 40.1954 56.126 40.3255 56.0393 40.4122C56.2561 40.7447 56.5308 40.6002 56.7766 40.6146C57.5717 40.658 58.1933 41.0339 58.309 41.641C58.4246 42.2048 58.3523 42.7542 57.9476 43.2168C57.5717 43.6505 57.0946 43.9396 56.5453 44.1131C56.1116 44.2432 55.6924 44.3878 55.2297 44.5323C55.2587 44.6913 55.2876 44.7925 55.3165 44.9516C56.4296 44.8359 57.4416 44.5612 58.3523 43.9685C58.8583 43.636 59.2342 43.1879 59.4366 42.6241C59.8414 41.4097 59.4655 40.1665 58.0198 40.0075C57.9909 40.0075 57.962 39.9641 57.9476 39.9496C58.2945 39.6894 58.6559 39.4437 58.974 39.169C59.4799 38.7353 59.6968 38.1715 59.5233 37.5209C59.3354 36.8704 58.8005 36.6391 58.1789 36.5813C57.8753 36.5813 57.5717 36.5813 57.2681 36.5813L57.2536 36.5524ZM37.2459 24.9583C37.1013 24.1487 36.9568 23.3392 36.8122 22.5441H34.3402C34.2823 22.8187 34.239 23.0356 34.1956 23.2524C34.0077 24.2788 33.8342 25.2908 33.6463 26.3172C34.8317 25.9124 36.0171 25.5076 37.217 25.1029C37.217 25.045 37.217 25.0017 37.2459 24.9583ZM54.0443 22.6019C53.7841 22.6019 53.5383 22.6308 53.2781 22.6308C51.6012 22.6308 49.9242 22.6308 48.2473 22.6308C48.0304 22.6308 47.7702 22.5296 47.6546 22.8187C47.669 22.8621 47.6979 22.891 47.6979 22.9344C47.6979 22.9344 47.6546 22.9633 47.6401 22.9778C47.6401 23.8451 47.6401 24.7125 47.6401 25.5799C47.6401 25.7389 47.4955 25.9269 47.7558 26.0136C48.5075 26.0136 49.2592 26.0714 50.0254 25.9847C50.0399 25.5655 50.0543 25.204 50.0832 24.7993H51.5C51.9626 24.7993 52.4107 24.7993 52.8733 24.7993C53.3215 24.7848 53.7696 24.8715 54.2033 24.7414V22.6597C54.2033 22.6597 54.1021 22.6308 54.0588 22.6163L54.0443 22.6019Z" fill="#605B5A"/>
</svg>
