<svg width="39" height="38" viewBox="0 0 39 38" fill="none" xmlns="http://www.w3.org/2000/svg">
<path d="M19.0129 0C8.51935 0 0.0136719 8.50642 0.0136719 19.0007C0.0136719 29.4951 8.51935 38 19.0129 38C29.5065 38 38.0122 29.4936 38.0122 19.0007C38.0122 8.50789 29.505 0 19.0129 0ZM19.0129 37.2838C8.91575 37.2838 0.72911 29.0979 0.72911 19C0.72911 8.90208 8.91502 0.715438 19.0129 0.715438C29.1109 0.715438 37.2968 8.90282 37.2968 19.0007C37.2968 29.0987 29.1109 37.2846 19.0129 37.2846" fill="black"/>
<path d="M27.3241 21.6024C27.5017 21.5169 29.6767 20.8494 29.175 19.5511C28.825 18.6397 28.1501 19.7206 27.6792 19.3677C27.5282 19.2557 27.4339 19.1658 28.0948 18.5248C28.7572 17.8823 28.9576 17.4269 29.0232 17.0305C29.0887 16.6356 29.0887 16.3335 28.8161 16.1803C28.5457 16.0292 28.1862 16.4308 28.0779 16.0137C28.0123 15.7897 28.0977 15.6652 28.0992 15.2644C28.1007 14.826 27.6527 13.7326 26.6094 14.1025C25.933 14.3404 26.2918 15.5039 26.1179 15.7242C25.9389 15.9511 25.7871 15.2592 25.4077 15.1517C24.9707 15.0272 24.6657 15.4317 24.6687 15.8067C24.6731 16.1817 24.9177 16.881 24.998 17.1521C25.0429 17.3665 25.1601 17.9501 25.0864 18.1225C24.9759 18.3804 24.8808 18.2964 24.6311 17.967C24.4115 17.676 24.5257 17.7975 24.1382 17.3311C23.6548 16.7343 23.3608 17.561 23.3262 18.1136C23.2908 18.6655 23.7115 20.5863 23.7042 20.8428C23.6747 21.9951 23.0337 20.6733 23.0138 20.6409C22.5923 20.0006 21.7826 20.3005 22.036 20.9879C22.498 22.2427 22.9114 23.3251 22.4744 24.3993C22.4155 24.5437 22.3374 24.7942 22.2306 25.0433C25.782 21.7372 26.759 17.1565 26.7604 17.1514C26.773 17.1035 26.8584 17.0593 26.9019 17.0733C26.9454 17.0858 26.966 17.1757 26.952 17.2228C26.9505 17.2302 25.7923 24.0339 19.6002 27.5079C19.4631 27.5823 19.4462 27.5013 19.4211 27.379C19.4491 26.301 19.4955 25.5672 19.8942 25.3306C23.2297 23.3508 22.1458 22.4387 21.454 22.3046C20.7621 22.169 20.3672 21.0387 21.3206 20.5473C22.9998 19.602 23.8596 16.2304 21.773 16.9679C21.5829 16.9848 20.2117 17.6973 21.4215 15.6291C22.5658 13.5609 22.2129 11.7182 21.0266 12.5205C20.7142 12.7305 19.8337 13.6648 20.0098 12.315C20.3252 10.2674 19.8183 9.53795 19.217 9.40385C19.217 9.40385 19.1537 9.39428 19.1036 9.38691L19.049 9.39133V9.38396C19.0137 9.38101 18.881 9.40385 18.881 9.40385C18.2806 9.53795 17.7736 10.2681 18.0882 12.315C18.2636 13.6648 17.3839 12.7305 17.0729 12.5205C15.8852 11.7182 15.5337 13.5609 16.678 15.6291C17.8864 17.6973 16.5159 16.9848 16.3251 16.9679C14.2399 16.2296 15.0983 19.602 16.7775 20.5473C17.7309 21.0387 17.336 22.169 16.6441 22.3046C15.9522 22.4387 14.8684 23.3508 18.2039 25.3306C18.6047 25.5686 18.6534 26.3054 18.6828 27.3878C18.6548 27.5072 18.635 27.5808 18.4994 27.5079C12.3073 24.0339 11.149 17.2295 11.1475 17.2228C11.1335 17.1749 11.1674 17.0858 11.2116 17.0733C11.2551 17.0593 11.3236 17.1352 11.3376 17.1823C11.3391 17.1882 12.3176 21.7372 15.8705 25.0433C15.7629 24.7942 15.684 24.5437 15.6251 24.3993C15.1897 23.3251 15.603 22.2427 16.0635 20.9879C16.317 20.3005 15.508 20.0006 15.0872 20.6409C15.0659 20.6733 14.4248 21.9951 14.3954 20.8428C14.388 20.5863 14.8087 18.6655 14.7734 18.1136C14.738 17.5603 14.444 16.7343 13.9614 17.3311C13.5724 17.7975 13.688 17.676 13.4685 17.967C13.2194 18.2964 13.1236 18.3804 13.0131 18.1225C12.9387 17.9501 13.0551 17.3665 13.1015 17.1521C13.1826 16.8802 13.4265 16.1817 13.4309 15.8067C13.4338 15.4317 13.1288 15.0264 12.6919 15.1517C12.3124 15.2592 12.1614 15.9511 11.9816 15.7242C11.8077 15.5046 12.1665 14.3404 11.4916 14.1025C10.4468 13.7326 9.99886 14.8267 10.0003 15.2644C10.0018 15.6652 10.0873 15.7897 10.0202 16.0137C9.91412 16.4308 9.55383 16.0292 9.28342 16.1803C9.01154 16.3328 9.01006 16.6356 9.07638 17.0305C9.14195 17.4269 9.34236 17.8815 10.0048 18.5248C10.6657 19.1658 10.5721 19.2557 10.4203 19.3677C9.94949 19.7206 9.27458 18.6397 8.92312 19.5511C8.4243 20.8494 10.5979 21.5169 10.7754 21.6024C11.2418 21.8249 11.4968 22.3333 10.8609 22.1837C10.6045 22.1233 10.214 21.9376 9.90749 22.2788C9.09848 23.1806 11.2087 24.7559 12.6101 25.044C14.0115 25.3351 15.2663 25.87 15.796 26.1109C16.3184 26.3474 18.5465 27.8756 18.7013 28.496C18.7403 28.6779 18.8354 28.8135 19.0512 28.8135C19.2671 28.8135 19.3578 28.6934 19.3968 28.5085C19.5383 27.9021 21.776 26.3482 22.2998 26.1109C22.8288 25.87 24.0836 25.3351 25.4843 25.044C26.8857 24.7559 28.9974 23.1799 28.1884 22.2788C27.8819 21.9369 27.4914 22.1233 27.2349 22.1837C26.5976 22.3333 26.854 21.8249 27.3204 21.6024M19.1772 28.0421C19.1772 28.0421 19.1632 28.1681 19.0638 28.1651C18.9643 28.1607 18.9717 28.0421 18.9717 28.0421C18.9717 28.0421 18.8987 23.6846 18.8987 20.702C18.8987 17.7194 18.9717 14.4679 18.9717 14.4679C18.9717 14.4679 18.9982 14.3449 19.0807 14.3449C19.1632 14.3449 19.1772 14.4679 19.1772 14.4679C19.1772 14.4679 19.2502 17.718 19.2502 20.702C19.2502 23.6861 19.1772 28.0421 19.1772 28.0421Z" fill="black"/>
<path d="M13.2415 6.48537C13.3889 6.42201 13.7654 6.26286 13.7654 6.26286C13.8855 6.21276 13.9614 6.14792 13.9923 6.07129L13.971 5.82372L13.8045 5.64173C13.7264 5.61079 13.6284 5.61815 13.52 5.66384C13.52 5.66384 13.0971 5.84288 12.9881 5.8893C13.0315 5.99319 13.1981 6.38369 13.2415 6.48611" fill="black"/>
<path d="M5.10058 13.2536C4.91417 13.1836 4.7646 13.2581 4.69018 13.457C4.69018 13.457 4.51261 13.9315 4.47061 14.045C4.57303 14.084 4.95101 14.224 5.0549 14.2631C5.0969 14.1496 5.27447 13.6751 5.27447 13.6751C5.29289 13.6257 5.30689 13.5712 5.30689 13.5167C5.30689 13.4128 5.25752 13.3126 5.10132 13.2536" fill="black"/>
<path d="M31.6167 13.2684C31.6167 13.3399 31.6322 13.4143 31.6661 13.488C31.8135 13.8254 32.1671 13.9013 32.6379 13.695C32.9098 13.5749 33.0918 13.418 33.1618 13.2374C33.2112 13.1129 33.2053 12.9796 33.1449 12.841C32.9975 12.5065 32.6438 12.4306 32.1745 12.6377C31.8105 12.7976 31.6175 13.0201 31.6175 13.2676" fill="black"/>
<path d="M22.6262 5.47815C22.7832 5.38163 22.8937 5.20258 22.9571 4.94323C22.9806 4.84376 22.9924 4.75019 22.9924 4.66472C22.9924 4.53062 22.963 4.4142 22.904 4.31916C22.8141 4.17179 22.6535 4.07159 22.4266 4.01633C22.4266 4.01633 22.2947 3.98391 22.2121 3.96475C22.1812 4.09369 21.8806 5.35216 21.8496 5.47962C21.9307 5.49952 22.0641 5.5312 22.0641 5.5312C22.291 5.58572 22.4796 5.5673 22.627 5.47815" fill="black"/>
<path d="M13.4957 5.0125C13.4957 4.9705 13.4847 4.9344 13.4736 4.91009C13.4103 4.76052 13.3012 4.72073 13.1421 4.78999C13.1421 4.78999 12.725 4.96756 12.6152 5.01398C12.6543 5.10608 12.7611 5.35585 12.8002 5.44795C12.9475 5.38459 13.327 5.22397 13.327 5.22397C13.4626 5.1665 13.4965 5.0825 13.4965 5.0125" fill="black"/>
<path d="M22.064 33.7501L21.4392 33.879L21.5652 34.4869L22.19 34.358C22.4185 34.3101 22.501 34.1679 22.4634 33.9829C22.4214 33.7825 22.2925 33.703 22.064 33.7508V33.7501Z" fill="black"/>
<path d="M22.1937 33.0568C22.1628 32.9094 22.0633 32.8497 21.8592 32.8917L21.2617 33.0163L21.3538 33.4628L21.9756 33.3338C22.1701 33.2933 22.2217 33.1879 22.1937 33.0568Z" fill="black"/>
<path d="M19.0115 1.38962C9.28636 1.38962 1.40181 9.2727 1.40181 18.9993C1.40181 28.7258 9.2871 36.6104 19.0115 36.6104C28.7358 36.6104 36.6226 28.7266 36.6226 18.9993C36.6226 9.27196 28.738 1.38962 19.0115 1.38962ZM34.88 17.6841L34.8911 18.1696L33.4027 19.14C33.4027 19.14 33.3453 19.1746 33.3047 19.2004C33.3652 19.1975 33.5906 19.1923 33.5906 19.1923L34.911 19.1658L34.922 19.6683L32.3565 19.7213L32.3469 19.2594L33.8758 18.2426C33.8758 18.2426 33.9119 18.2205 33.9362 18.205C33.8758 18.2065 33.6533 18.2116 33.6533 18.2116L32.3255 18.2381L32.316 17.7356L34.8041 17.6841H34.88ZM34.3237 14.6249L34.4328 15.1259L33.0019 15.4412C32.772 15.4913 32.6166 15.5783 32.5385 15.7006C32.4795 15.7927 32.4655 15.9062 32.495 16.0395C32.5274 16.1839 32.5871 16.2849 32.6799 16.3431C32.7964 16.4175 32.9643 16.43 33.1824 16.3821L34.6398 16.0631L34.7489 16.5656L33.2996 16.8824C32.5937 17.0379 32.1288 16.7749 31.9903 16.1434C31.8562 15.5326 32.1804 15.0949 32.8811 14.9417L34.2493 14.6403L34.3237 14.6249ZM33.6149 12.6362C33.7299 12.8978 33.738 13.1711 33.64 13.4231C33.5169 13.7355 33.234 14.003 32.845 14.1725C32.4559 14.3434 32.0691 14.3699 31.7567 14.2469C31.5033 14.1474 31.3087 13.9573 31.1953 13.695C31.0803 13.4334 31.0722 13.1616 31.1702 12.9096C31.2918 12.5972 31.5747 12.3312 31.9645 12.1602C32.6888 11.8434 33.3504 12.0342 33.6157 12.6362H33.6149ZM29.9103 10.8834C29.9722 10.5525 30.2013 10.2394 30.5543 10.0014C31.2071 9.55858 31.8945 9.62489 32.2614 10.1679C32.4928 10.5083 32.523 10.8369 32.3535 11.1773L32.3211 11.2414L31.8392 11.0285L31.8702 10.96C31.9608 10.7529 31.9512 10.6269 31.8348 10.456C31.7523 10.333 31.6447 10.2571 31.5143 10.2335C31.3264 10.1974 31.0958 10.2674 30.8475 10.4354C30.4231 10.7227 30.2956 11.0617 30.499 11.3623C30.6191 11.5384 30.7583 11.6062 30.9809 11.5988L31.0582 11.5973L31.0641 12.1072L30.9912 12.1116C30.6198 12.1367 30.2949 11.9731 30.0753 11.6511C29.9154 11.4131 29.858 11.1501 29.9103 10.8841V10.8834ZM28.6894 6.71451C28.9598 6.69388 29.2162 6.78156 29.4314 6.9665C29.7379 7.22954 29.8587 7.54931 29.7858 7.9155L29.7718 7.98697L29.2567 7.9074L29.2663 7.83298C29.3002 7.61341 29.2567 7.49258 29.0968 7.35553C28.9849 7.25901 28.8589 7.21406 28.727 7.22512C28.5339 7.23912 28.3291 7.36658 28.1346 7.59352C27.9415 7.82045 27.845 8.0415 27.8598 8.2338C27.8693 8.36716 27.9327 8.48432 28.0462 8.58084C28.1596 8.67883 28.276 8.72378 28.391 8.71494C28.5074 8.70536 28.5929 8.64199 28.657 8.57936C28.5789 8.51084 28.3674 8.32885 28.3674 8.32885L28.6923 7.9494L29.3872 8.54473L29.1551 8.81514C28.9421 9.06123 28.6887 9.20418 28.4227 9.22407C28.1722 9.24396 27.9268 9.15555 27.7117 8.97061C27.4958 8.78567 27.3713 8.54473 27.3506 8.27433C27.3256 7.93982 27.4626 7.57731 27.7397 7.25385C28.0167 6.93187 28.3556 6.7403 28.6901 6.71451H28.6894ZM26.0214 4.72071L26.4444 4.96165L26.5143 6.73735C26.5143 6.73735 26.5158 6.8044 26.5158 6.85229C26.5718 6.75135 26.6558 6.60325 26.6558 6.60325L27.3101 5.45531L27.747 5.70435L26.4768 7.93392L26.0752 7.70551L25.9868 5.87234C25.9868 5.87234 25.9853 5.82887 25.9838 5.7994C25.9323 5.8915 25.8453 6.04549 25.8453 6.04549L25.1888 7.19785L24.7504 6.94881L25.9838 4.78703L26.0214 4.72145V4.72071ZM24.5655 4.20642L24.5935 4.13495L25.0709 4.32431L24.1345 6.71156L23.6555 6.52368L24.5655 4.20642ZM21.8121 3.42983L21.829 3.35541L22.543 3.52635C23.3063 3.70834 23.6489 4.28379 23.4632 5.06554C23.2422 5.98581 22.5349 6.16191 21.9469 6.02191L21.2329 5.85097L21.8128 3.42983H21.8121ZM19.1603 3.19405L19.1632 3.11816L19.6768 3.14764C19.6768 3.14764 19.5677 5.06186 19.5589 5.20185C19.693 5.20995 20.7621 5.27185 20.7621 5.27185L20.7326 5.77729L19.0188 5.6793L19.1603 3.19405ZM18.1221 3.16237L18.198 3.15648L18.3734 5.71614L17.8606 5.75077L17.6852 3.19111L18.1221 3.16163V3.16237ZM15.2375 3.58751L15.5441 5.01986C15.631 5.42436 15.8314 5.59678 16.1394 5.5312C16.3413 5.48773 16.5984 5.36763 16.4864 4.84376L16.174 3.38783L16.6028 3.29647L16.6787 3.27952L16.9882 4.73029C17.0663 5.10017 17.0317 5.40373 16.8828 5.63362C16.7495 5.83845 16.5343 5.97255 16.2403 6.03518C15.9574 6.09707 15.7128 6.0617 15.5138 5.93129C15.2825 5.78171 15.1248 5.51425 15.0445 5.13701L14.735 3.69361L15.2375 3.58751ZM12.9557 4.34421C13.1826 4.24769 13.3955 4.23369 13.5731 4.30516C13.733 4.37073 13.859 4.50262 13.9386 4.69051C13.9747 4.7745 13.9916 4.85702 13.9916 4.9366C13.9916 5.03459 13.9327 5.12301 13.8811 5.21216C14.0844 5.22322 14.318 5.32268 14.4396 5.61299C14.4941 5.74045 14.5221 5.8635 14.5221 5.97844C14.5221 6.06686 14.5052 6.15233 14.4742 6.23043C14.3917 6.43452 14.2082 6.60031 13.9282 6.71893L12.9763 7.12344L11.972 4.76271L12.9549 4.34421H12.9557ZM8.71092 6.94439L10.3872 7.53236C10.3872 7.53236 10.4513 7.55594 10.4947 7.57289C10.4431 7.511 10.3142 7.35185 10.3142 7.35185L9.48678 6.32106L9.81981 6.05212L9.88023 6.00423L11.4865 8.00539L11.1254 8.29496L9.38878 7.70404C9.38878 7.70404 9.34826 7.68857 9.32026 7.67899C9.35562 7.72246 9.4993 7.89856 9.4993 7.89856L10.3297 8.93303L9.9377 9.24838L8.32999 7.24869L8.71092 6.94366V6.94439ZM7.53203 8.04371L7.5814 7.98771L7.9638 8.31559C7.9638 8.31559 7.27194 9.11944 7.185 9.22039C7.25941 9.28449 7.44656 9.44585 7.52245 9.50995C7.60055 9.41859 7.97338 8.98461 7.97338 8.98461L8.35578 9.31396C8.35578 9.31396 7.98222 9.74794 7.90338 9.8393C7.9859 9.91077 8.28283 10.1657 8.36536 10.2372C8.45377 10.1362 9.17732 9.29333 9.17732 9.29333L9.55972 9.62268L8.41178 10.9556L6.46808 9.28228L7.53203 8.04444V8.04371ZM3.35803 16.2908C3.42508 15.8914 3.63801 15.624 3.98947 15.498L4.05799 15.4729L4.25398 15.9563L4.18546 15.9857C3.98137 16.0712 3.89958 16.1707 3.86495 16.3762C3.8399 16.5236 3.86642 16.6533 3.94305 16.7616C4.05505 16.92 4.26946 17.029 4.56344 17.0792C5.06889 17.1646 5.39529 17.0062 5.45571 16.6452C5.46308 16.6046 5.46529 16.5671 5.46529 16.5302C5.46529 16.4322 5.44171 16.3497 5.39235 16.2812C5.3253 16.1876 5.2273 16.1456 5.13741 16.1213C5.12047 16.2252 5.07405 16.5008 5.07405 16.5008L4.58112 16.4168L4.73217 15.5164L5.08215 15.5753C5.40414 15.6299 5.65612 15.7743 5.81159 15.9924C5.95748 16.1957 6.00905 16.4514 5.96116 16.7306C5.91327 17.0121 5.7718 17.2435 5.55223 17.3997C5.27741 17.5942 4.89574 17.6627 4.47576 17.5927C4.05726 17.5212 3.71833 17.3311 3.52381 17.0578C3.40371 16.8868 3.34034 16.6909 3.34034 16.4794C3.34034 16.4175 3.34624 16.3549 3.35729 16.29L3.35803 16.2908ZM6.16968 22.2648C6.21757 22.4468 6.10115 22.6398 5.91769 22.6877C5.73275 22.7341 5.53676 22.6177 5.49182 22.4357C5.4454 22.2523 5.56181 22.0592 5.74675 22.0113C5.93022 21.9649 6.12326 22.0813 6.16968 22.2648ZM5.76738 19.1253C5.77033 19.3146 5.61339 19.4767 5.42403 19.4811C5.23393 19.4826 5.06963 19.3257 5.06668 19.1363C5.06373 18.9484 5.22215 18.7863 5.41224 18.7819C5.6016 18.7804 5.7637 18.9374 5.76664 19.1253H5.76738ZM3.24456 20.9614C3.20551 20.6394 3.28508 20.352 3.48992 20.0824L3.53633 20.022L3.94526 20.3373L3.89737 20.3992C3.77138 20.5561 3.72643 20.7197 3.75148 20.9282C3.76695 21.0498 3.80601 21.1412 3.8679 21.1883L4.01378 21.2259C4.11473 21.2134 4.1803 21.1728 4.25767 20.719C4.33724 20.2695 4.44924 19.8621 4.95395 19.8016C5.18088 19.7736 5.3754 19.8201 5.52939 19.9416C5.71581 20.0875 5.83075 20.3307 5.87127 20.6659C5.91474 21.0188 5.80422 21.3688 5.56918 21.6267L5.52055 21.6798L5.12415 21.3593L5.17425 21.2988C5.31572 21.1338 5.39014 20.9024 5.36435 20.6998C5.3194 20.3285 5.16688 20.2983 5.03942 20.313C4.91784 20.327 4.84785 20.4095 4.77343 20.8398C4.68796 21.3423 4.59586 21.6761 4.0941 21.7372C3.90105 21.7608 3.72054 21.7122 3.57318 21.5972C3.39561 21.4572 3.27772 21.2318 3.2453 20.9614H3.24456ZM5.90074 24.991L4.5185 25.5089L4.33798 25.0271L5.70991 24.512C5.92948 24.431 6.07095 24.3219 6.13136 24.1901C6.17631 24.0906 6.17484 23.9756 6.12694 23.8482C6.054 23.6537 5.89853 23.4186 5.39603 23.6072L4.00126 24.1296L3.82074 23.6478L5.20962 23.1283C5.88601 22.8749 6.38335 23.0679 6.61102 23.6743C6.82912 24.2586 6.5705 24.7382 5.90001 24.9902L5.90074 24.991ZM6.7267 13.9264C6.7267 13.9264 5.74896 14.0317 5.66423 14.0413C5.64065 14.1032 5.55076 14.3412 5.51613 14.4362C5.63623 14.4812 6.41061 14.7707 6.41061 14.7707L6.23304 15.2452L3.83032 14.3463L4.22819 13.2839C4.41313 12.7924 4.81322 12.5935 5.27298 12.7659C5.61855 12.8948 5.80348 13.1483 5.80348 13.4828V13.4968C5.95306 13.4813 6.93227 13.3767 6.93227 13.3767L6.72818 13.9271L6.7267 13.9264ZM4.99079 11.5634L5.82927 10.1642L5.86832 10.0987L6.30083 10.358C6.30083 10.358 5.75633 11.268 5.68781 11.3814C5.7718 11.433 5.98474 11.559 6.06873 11.6098C6.13063 11.5074 6.42609 11.016 6.42609 11.016L6.85712 11.2753C6.85712 11.2753 6.56313 11.7668 6.50124 11.8707C6.59481 11.9252 6.93006 12.1286 7.02363 12.1831C7.09216 12.0696 7.66392 11.1162 7.66392 11.1162L8.09642 11.3755L7.19163 12.8838L4.99005 11.5649L4.99079 11.5634ZM14.4396 33.5217C14.1986 34.1752 13.7182 34.4265 13.1458 34.215C12.6027 34.0146 12.3699 33.5121 12.6123 32.8556L13.0787 31.5913L13.5296 31.7563L13.0647 33.0155C12.9328 33.3765 13.0227 33.6683 13.3086 33.7744C13.5959 33.8798 13.8546 33.7228 13.9879 33.3625L14.4528 32.0982L14.9038 32.2632L14.4403 33.5224L14.4396 33.5217ZM16.4776 33.5328C16.8386 33.6838 17.2335 33.8813 17.1481 34.3956C17.0737 34.8465 16.7392 35.1044 16.0922 34.996C15.6958 34.9305 15.3783 34.7072 15.2434 34.4132L15.6354 34.1657C15.7688 34.3852 15.9685 34.4987 16.1954 34.537C16.4768 34.5834 16.6213 34.5274 16.6522 34.3477C16.6773 34.1951 16.6073 34.1156 16.1777 33.9387C15.7577 33.7648 15.4763 33.5762 15.5529 33.1084C15.6244 32.6788 16.0473 32.4784 16.5152 32.555C16.8836 32.6169 17.1311 32.8004 17.3161 33.07L16.9197 33.3449C16.7922 33.1643 16.6382 33.0479 16.4208 33.0133C16.1674 32.9698 16.065 33.0649 16.0473 33.1702C16.0237 33.3183 16.1173 33.3832 16.4768 33.5328H16.4776ZM19.0756 35.2156C18.4485 35.2252 18.0182 34.7522 18.0057 33.9947C17.9932 33.2638 18.4242 32.7495 19.052 32.7385C19.5434 32.7318 19.8065 32.9558 19.9723 33.3235L19.5184 33.5195C19.4263 33.3434 19.3143 33.2115 19.0535 33.2159C18.6939 33.2218 18.492 33.5409 18.5001 33.9859C18.5067 34.4287 18.7212 34.7507 19.0815 34.7448C19.4108 34.7389 19.5213 34.5834 19.5464 34.3734L19.1654 34.3793L19.1573 33.9314L20.0187 33.9159L20.0246 34.2327C20.0341 34.8502 19.6326 35.206 19.0763 35.2156H19.0756ZM22.2652 34.8089L21.1968 35.0285L20.7113 32.6773L21.7892 32.4548C22.2475 32.3598 22.582 32.5189 22.6631 32.9227C22.7065 33.1246 22.6446 33.3051 22.5091 33.4311C22.7146 33.476 22.8915 33.619 22.9445 33.8761C23.0469 34.3705 22.7692 34.705 22.2652 34.8089ZM25.0216 33.9822C24.4402 34.2202 23.8692 33.9343 23.5819 33.2329C23.3063 32.5565 23.52 31.9191 24.1013 31.6826C24.5213 31.5117 24.8587 31.6112 25.1166 31.844L24.7806 32.2028C24.6392 32.0827 24.4771 32.0459 24.2767 32.1269C23.9422 32.2625 23.8707 32.6324 24.0402 33.0472C24.2023 33.4465 24.5206 33.6727 24.8551 33.5372C25.054 33.4547 25.1365 33.3213 25.1741 33.0767L25.6405 33.1452C25.6154 33.5217 25.4246 33.8186 25.0216 33.9822ZM19.0129 30.4735C12.6764 30.4735 7.54013 25.3358 7.54013 18.9993C7.54013 12.6627 12.6764 7.52647 19.0129 7.52647C25.3495 7.52647 30.4843 12.6627 30.4843 18.9993C30.4843 25.3358 25.348 30.4735 19.0129 30.4735ZM33.5663 25.4028C33.5663 25.4028 31.826 24.5975 31.697 24.5386C31.641 24.6601 31.1931 25.632 31.1931 25.632L30.7326 25.4191L31.42 23.9292L31.4524 23.8592L33.7822 24.935L33.5663 25.4028ZM34.1079 23.9955L31.6587 23.2293L31.7891 22.8108L31.8112 22.7378L34.2589 23.5041L34.1079 23.9955ZM34.7047 21.7638C34.6362 22.1683 34.4291 22.4276 34.0732 22.5566L34.0047 22.5816L33.8043 22.0946L33.8758 22.0666C34.0813 21.9796 34.1646 21.8816 34.1992 21.6776C34.2228 21.5317 34.1963 21.4035 34.1211 21.2966C34.0091 21.1397 33.7932 21.0292 33.4978 20.9805C32.9923 20.8951 32.6674 21.052 32.607 21.4101C32.5709 21.6201 32.6254 21.766 32.789 21.9141L32.8479 21.9656L32.4979 22.337L32.4434 22.2906C32.1561 22.0526 32.0345 21.7092 32.1001 21.3246C32.2091 20.6762 32.8059 20.3307 33.5855 20.4618C34.0025 20.5333 34.3429 20.7234 34.5374 20.9967C34.6944 21.2163 34.7518 21.4838 34.7039 21.7638H34.7047Z" fill="black"/>
<path d="M18.8206 26.0917C10.6148 26.0917 5.82854 28.4613 5.82854 28.4613L7.28594 32.0842C9.46467 31.3842 13.6556 30.2341 18.8693 30.2341H18.9857C24.1978 30.2341 28.3888 31.3835 30.566 32.0842L32.0249 28.4613C32.0249 28.4613 27.2386 26.0917 19.0328 26.0917H18.8199H18.8206Z" stroke="black" stroke-width="0.47"/>
<path d="M18.8206 26.0917C10.6148 26.0917 5.82854 28.4613 5.82854 28.4613L7.28594 32.0842C9.46467 31.3842 13.6556 30.2341 18.8693 30.2341H18.9857C24.1978 30.2341 28.3888 31.3835 30.566 32.0842L32.0249 28.4613C32.0249 28.4613 27.2386 26.0917 19.0328 26.0917H18.8199H18.8206Z" fill="white"/>
<path d="M12.7715 29.9121L12.4075 27.5278L12.8849 27.4548L13.176 29.3691L14.3718 29.1871L14.4447 29.6579L12.7715 29.9121Z" fill="black"/>
<path d="M16.4253 29.4671L16.3133 27.057L17.9866 26.9803L18.0087 27.4504L16.8173 27.5064L16.8371 27.9227L17.5283 27.8903L17.5496 28.3596L16.8578 28.3913L16.8858 28.9727L18.128 28.9152L18.1501 29.3875L16.4253 29.4671Z" fill="black"/>
<path d="M20.0032 29.3993L20.1336 26.9914L21.8054 27.0805L21.7804 27.5528L20.5897 27.488L20.5676 27.9043L21.2595 27.9419L21.2344 28.4097L20.5425 28.3729L20.5101 28.9542L21.7539 29.0213L21.7266 29.4936L20.0032 29.3993Z" fill="black"/>
<path d="M24.4837 29.8325L23.7727 29.7161L24.1617 27.334L24.9066 27.4571C25.5875 27.5676 26.0384 27.9699 25.8954 28.8408C25.7599 29.6771 25.096 29.9313 24.4837 29.8325ZM24.8145 27.9176L24.5626 27.8756L24.3246 29.3322L24.5596 29.3698C25.0592 29.4523 25.3355 29.1959 25.4069 28.7605C25.4865 28.2749 25.3185 28.0001 24.8145 27.9176Z" fill="black"/>
<path d="M24.8145 27.9175L24.5626 27.8755L24.3246 29.3322L24.5596 29.3698C25.0592 29.4523 25.3355 29.1959 25.4069 28.7605C25.4865 28.2749 25.3185 28.0001 24.8145 27.9175Z" stroke="black" stroke-width="0.02"/>
<path d="M33.6348 32.5874V32.6987H33.3895V33.7892H33.2598V32.6987H33.013V32.5874H33.6348Z" fill="black"/>
<path d="M33.9487 32.5874L34.1572 33.4967H34.1616L34.3657 32.5874H34.572V33.7892H34.4527V32.6869H34.4483L34.1992 33.7892H34.1138L33.8647 32.6869H33.8603V33.7892H33.7417V32.5874H33.9487Z" fill="black"/>
</svg>
