<svg width="139" height="38" viewBox="0 0 139 38" fill="none" xmlns="http://www.w3.org/2000/svg">
<path d="M11.132 2.58401C11.8364 2.63999 12.4335 2.67264 13.0259 2.73795C13.9775 2.84524 14.8265 2.5327 15.3677 1.81432C16.8184 -0.102915 18.717 -0.23353 20.8348 0.214291C21.8004 0.414878 22.7707 0.624794 23.7503 0.694766C24.3194 0.736749 24.9212 0.554822 25.4856 0.396218C27.9346 -0.294172 29.8939 0.666777 31.6758 2.19683C32.0956 2.55602 32.4968 2.7706 33.0659 2.76127C34.7499 2.74728 36.0374 3.48898 36.9284 4.90708C37.3715 5.61613 37.7867 6.34384 38.2019 7.06688C38.9716 8.40568 40.1331 9.33864 41.4812 9.99638C42.4375 10.4582 42.9133 11.1952 42.8853 12.1422C42.82 14.2927 43.4778 16.3265 43.7483 18.421C43.8369 19.1161 43.8836 19.8298 43.823 20.5248C43.7903 20.912 43.4498 21.2619 43.3238 21.6491C43.0859 22.3814 42.848 23.1278 42.7034 23.8835C42.5075 24.9051 42.4188 25.9453 42.2369 26.9669C42.0363 28.1051 41.5932 29.0521 40.301 29.3506C40.0211 29.416 39.7506 29.7332 39.5733 29.9944C38.9436 30.9367 38.3325 31.893 37.7634 32.8726C37.4275 33.4463 37.003 33.8988 36.3733 34.0901C35.0485 34.4959 33.7097 34.8784 32.3709 35.233C31.3073 35.5128 30.2484 35.7461 29.3807 36.5065C28.9329 36.8983 28.3591 36.8516 27.7854 36.735C26.9737 36.5671 26.1247 36.2825 25.3317 36.3712C24.4174 36.4738 23.5451 36.9216 22.6541 37.2295C22.0243 37.4487 21.4226 37.7659 20.7788 37.9106C19.3561 38.2231 18.1665 37.696 17.2196 36.6511C16.7484 36.1286 16.296 35.9793 15.5729 36.0959C14.0429 36.3432 12.5781 35.9327 11.1927 35.2843C10.5209 34.9717 9.87252 34.5985 9.21012 34.2627C8.76696 34.0388 8.29582 33.8568 7.86665 33.6003C7.48881 33.3764 7.10163 33.1245 6.81241 32.7979C5.71618 31.5664 4.79255 30.2323 4.31674 28.6229C4.2561 28.4177 4.04618 28.2311 3.85959 28.0911C2.84733 27.3448 2.0823 26.4118 1.56451 25.2643C1.12135 24.2893 0.533586 23.3657 0.183726 22.3628C-0.236107 21.1686 0.0717705 20.0444 1.02339 19.1627C1.46655 18.7522 1.3406 18.2671 1.22864 17.8146C1.00007 16.8956 0.636211 16.0093 0.458949 15.0857C0.30501 14.2973 0.253698 13.4717 0.300346 12.674C0.342329 12.0116 0.808809 11.4891 1.43389 11.2559C2.46015 10.8734 3.05258 10.099 3.51906 9.18937C3.99953 8.24708 4.48001 7.30013 4.88585 6.32518C5.74883 4.24002 7.3442 3.12513 9.51333 2.76127C10.0824 2.66331 10.6562 2.63532 11.1227 2.58401H11.132ZM11.3653 4.47326C8.95355 4.40328 7.19959 5.28493 6.32261 7.67331C5.9261 8.74621 5.33833 9.75381 4.77389 10.7567C4.31208 11.5777 3.673 12.2541 2.81001 12.6833C1.99367 13.0891 1.9237 13.2058 2.15227 14.0967C2.42283 15.137 2.76336 16.1586 3.02459 17.2035C3.30448 18.3137 3.39777 19.4239 2.51146 20.3522C1.79308 21.1033 1.71378 21.4905 2.18026 22.4374C2.43683 22.9505 2.77736 23.4263 3.00593 23.9488C3.51439 25.0963 4.21411 26.0573 5.24037 26.813C5.64154 27.1115 5.95875 27.62 6.14534 28.0958C6.81241 29.7938 7.53545 31.3985 9.35939 32.2008C10.2924 32.6113 11.1507 33.1851 12.0743 33.6189C13.2172 34.1554 14.43 34.4773 15.6989 34.1974C16.6458 33.9875 17.4248 34.2067 18.0966 34.8738C18.3065 35.0837 18.5211 35.2889 18.731 35.5035C19.3234 36.1146 20.0185 36.2825 20.8208 35.9793C21.1334 35.8627 21.4459 35.7414 21.7398 35.5782C23.7316 34.4586 25.8028 34.0808 28.0186 34.8458C28.1679 34.8971 28.4058 34.8738 28.5224 34.7851C29.4787 34.0481 30.6029 33.7496 31.7411 33.4603C32.9446 33.1525 34.1388 32.8306 35.3377 32.4994C35.7715 32.3828 36.0467 32.0889 36.2753 31.6924C36.7744 30.8247 37.3062 29.9664 37.866 29.1361C38.3232 28.455 38.8316 27.7739 39.6759 27.5594C40.1191 27.4474 40.2964 27.2095 40.357 26.8083C40.5016 25.8334 40.5949 24.8491 40.8095 23.8928C41.0567 22.7779 41.3646 21.6724 41.7564 20.5995C41.8824 20.2543 42.0643 19.9511 42.013 19.5686C41.957 19.1627 41.929 18.7522 41.8544 18.351C41.4952 16.3452 40.9634 14.3626 41.0101 12.2961C41.0101 12.1002 40.8188 11.811 40.6322 11.713C38.8596 10.7521 37.3809 9.49725 36.3873 7.71529C36.0327 7.08088 35.6829 6.44647 35.2864 5.84004C34.8292 5.14032 34.1995 4.61786 33.3178 4.65518C32.0583 4.7065 31.088 4.21669 30.1597 3.39569C29.0169 2.38809 27.6874 1.72569 26.0734 2.1875C25.5929 2.32278 25.1078 2.46739 24.6226 2.57935C24.3987 2.63066 24.1468 2.65865 23.9229 2.62599C22.4722 2.40675 21.0167 2.19217 19.5753 1.92161C18.5444 1.72569 17.7467 1.97292 17.0517 2.79859C16.0161 4.02077 14.7006 4.72982 13.0399 4.61786C12.4848 4.58055 11.9297 4.52457 11.3699 4.47792L11.3653 4.47326Z" fill="black"/>
<path d="M58.2045 19.6758C58.6896 18.2157 59.1888 16.7603 59.6552 15.2956C59.8652 14.6425 59.7112 14.4372 59.0162 14.2367C58.9275 14.2087 58.8576 14.12 58.7783 14.0594C58.8482 13.9941 58.9182 13.8728 58.9928 13.8681C59.7672 13.8541 60.5462 13.8588 61.4698 13.8588C61.3159 14.0641 61.2693 14.204 61.1853 14.2273C60.7002 14.3766 60.4949 14.7358 60.3503 15.1883C59.4873 17.8099 58.6103 20.4315 57.724 23.0438C57.6634 23.2257 57.4861 23.3657 57.3648 23.5243C57.2435 23.3657 57.0756 23.2211 57.0103 23.0438C56.2826 21.0566 55.5735 19.0647 54.8178 16.9516C54.7059 17.1941 54.6266 17.3434 54.5659 17.4974C53.8429 19.3493 53.1292 21.2012 52.3968 23.0438C52.3268 23.2257 52.1449 23.3657 52.0143 23.5243C51.879 23.3563 51.6831 23.2117 51.6178 23.0205C50.6848 20.3989 49.7659 17.7726 48.8469 15.1463C48.7023 14.7311 48.5437 14.3439 48.0445 14.2367C47.9699 14.2227 47.9186 14.0967 47.858 14.0221C47.9419 13.9661 48.0212 13.8635 48.1052 13.8635C49.318 13.8541 50.5262 13.8541 51.7391 13.8635C51.823 13.8635 51.9023 13.9661 51.9863 14.0221C51.9023 14.0967 51.8324 14.204 51.7344 14.2367C51.0813 14.4419 50.988 14.5585 51.2026 15.1836C51.7484 16.7976 52.3175 18.4023 52.9146 20.1236C53.4511 18.7475 53.9688 17.502 54.426 16.2332C54.6686 15.5568 53.9642 14.4372 53.2505 14.232C53.1572 14.204 53.0872 14.092 53.0032 14.0174C53.1059 13.9614 53.2038 13.8588 53.3064 13.8588C54.5566 13.8495 55.8068 13.8448 57.0523 13.8588C57.1596 13.8588 57.2669 13.9848 57.3742 14.0547C57.2575 14.1154 57.1456 14.2227 57.0243 14.232C56.5392 14.2833 56.3012 14.4886 56.4552 15.0017C56.5345 15.2676 56.6045 15.5381 56.6978 15.7994C57.1549 17.0869 57.6214 18.3743 58.0832 19.6618C58.1252 19.6618 58.1672 19.6665 58.2091 19.6712L58.2045 19.6758Z" fill="black"/>
<path d="M79.9704 23.445C79.9564 23.2491 79.9424 23.0111 79.9237 22.7219C79.8165 22.7872 79.7371 22.8246 79.6718 22.8805C78.3704 23.9441 76.719 23.6409 75.982 22.1295C75.3196 20.7627 75.3662 19.3353 76.1219 18.0105C76.9802 16.5131 78.4263 16.2938 79.8304 17.4087C79.8304 16.4431 79.8538 15.5148 79.8025 14.5912C79.7931 14.4606 79.4059 14.3533 79.1914 14.2367C79.0747 14.1713 78.9628 14.106 78.8508 14.0407C78.9675 13.9801 79.0794 13.8635 79.196 13.8635C80.0497 13.8495 80.908 13.8541 81.8316 13.8541C81.841 14.0781 81.8596 14.274 81.8596 14.4699C81.8596 16.8536 81.8596 19.2327 81.8596 21.6164C81.8596 22.0875 81.8503 22.5727 82.4987 22.6753C82.564 22.6846 82.6107 22.8339 82.6666 22.9179C82.578 22.9692 82.4987 23.0485 82.4054 23.0625C81.6031 23.1931 80.7961 23.3144 79.9704 23.4403V23.445ZM79.8911 20.035C79.8911 19.5312 79.9004 19.0274 79.8911 18.5283C79.8771 18.0245 79.5272 17.6466 78.9954 17.5393C78.4963 17.4414 78.1371 17.6699 77.9738 18.1084C77.8199 18.5189 77.6986 18.9668 77.6986 19.4006C77.6986 20.2496 77.722 21.1126 77.8806 21.9429C78.0158 22.6426 78.6596 22.8899 79.21 22.5633C79.6205 22.3161 79.9237 21.9756 79.9004 21.4391C79.8818 20.9726 79.9004 20.5061 79.8957 20.0443L79.8911 20.035Z" fill="black"/>
<path d="M133.452 23.8275C132.893 23.5709 132.519 23.291 132.524 22.7126C132.533 21.7656 133.308 21.4951 133.998 21.0659C133.784 20.926 133.588 20.8047 133.401 20.6694C132.016 19.6851 132.146 17.7259 133.7 17.0449C134.287 16.7883 135.001 16.7043 135.65 16.7277C136.638 16.765 137.627 16.9609 138.654 17.0962V17.7306C138.35 17.7493 138.061 17.7679 137.753 17.7866C137.879 18.1458 138.052 18.477 138.099 18.8222C138.281 20.147 137.459 21.0286 135.957 21.1639C135.64 21.1919 135.318 21.1499 135.01 21.1965C134.782 21.2292 134.53 21.2945 134.357 21.4344C134.227 21.5371 134.106 21.8216 134.161 21.9476C134.227 22.1062 134.469 22.2694 134.651 22.2834C135.393 22.3487 136.139 22.3441 136.881 22.3954C137.921 22.4654 138.565 22.9552 138.686 23.7389C138.845 24.7744 138.402 25.5115 137.357 25.8987C136.149 26.3418 134.903 26.2952 133.662 26.0713C132.869 25.9313 132.328 25.4928 132.328 24.9937C132.328 24.336 132.781 24.0234 133.452 23.8275ZM135.547 24.0794V24.0607C135.192 24.0607 134.838 24.0841 134.488 24.0561C134.022 24.0187 133.737 24.2193 133.63 24.6532C133.513 25.1243 133.779 25.4042 134.18 25.5441C135.146 25.88 136.111 25.824 137.058 25.4602C137.422 25.3202 137.693 25.017 137.534 24.6438C137.427 24.3966 137.091 24.1587 136.82 24.098C136.415 24.0048 135.971 24.0747 135.547 24.0747V24.0794ZM134.367 18.9668C134.427 19.3633 134.427 19.8111 134.586 20.1889C134.684 20.4268 135.02 20.6834 135.267 20.7021C135.505 20.7161 135.897 20.4922 135.985 20.2729C136.34 19.4286 136.34 18.5236 136.004 17.6746C135.911 17.4414 135.5 17.2035 135.239 17.2035C135.01 17.2035 134.675 17.4974 134.577 17.7353C134.423 18.0991 134.432 18.5283 134.367 18.9668Z" fill="black"/>
<path d="M94.7766 16.7417C94.6833 16.6204 94.5387 16.5131 94.506 16.3778C94.0815 14.4839 92.8873 14.26 90.9654 14.3906C90.8115 14.4 90.5549 14.6659 90.5503 14.8151C90.5129 15.9254 90.5316 17.0356 90.5316 18.1411C91.6232 18.3044 92.1316 17.9079 92.4955 16.6951C92.5561 16.4851 92.6961 16.2985 92.794 16.098L93.0179 16.1726C93.0179 16.7604 93.0179 17.3481 93.0179 17.9312C93.0179 18.7709 93.0273 19.6059 93.0086 20.4456C93.0086 20.5902 92.878 20.7348 92.808 20.8747C92.7287 20.7534 92.6261 20.6415 92.5701 20.5109C92.4955 20.3243 92.4675 20.1144 92.4022 19.9231C92.099 19.0554 91.5812 18.7242 90.5456 18.7616C90.5316 18.9855 90.5129 19.2187 90.5129 19.4519C90.5129 20.2543 90.5036 21.052 90.5129 21.8543C90.5223 22.6147 90.6809 22.7919 91.4319 22.9179C91.5065 22.9319 91.5858 22.9179 91.6512 22.9506C91.7818 23.0065 91.8984 23.0812 92.0243 23.1511C91.8891 23.2025 91.7491 23.3004 91.6138 23.3004C90.9421 23.3144 90.2704 23.3097 89.6033 23.3097C88.7496 23.3097 87.896 23.3097 87.0377 23.3097L86.963 23.1325C87.089 23.0578 87.2103 22.9552 87.3455 22.9179C88.0919 22.722 88.2225 22.5727 88.2225 21.7983C88.2225 19.6385 88.2225 17.4787 88.2225 15.3189C88.2225 14.6052 88.0453 14.4093 87.3549 14.2507C87.2289 14.2227 87.117 14.1061 87.0003 14.0314C87.117 13.9755 87.2336 13.8635 87.3502 13.8635C89.8459 13.8542 92.3415 13.8542 94.8839 13.8542V16.6437C94.8465 16.6764 94.8092 16.7044 94.7719 16.737L94.7766 16.7417Z" fill="black"/>
<path d="M126.996 16.8536C127.02 17.1428 127.038 17.3761 127.062 17.6886C127.673 17.0122 128.335 16.639 129.208 16.695C130.187 16.7603 130.812 17.3248 130.84 18.309C130.873 19.4613 130.864 20.6135 130.854 21.7703C130.854 22.3068 130.845 22.8246 131.507 23.0112C131.535 23.0205 131.54 23.1091 131.582 23.2351H128.237C128.335 23.1045 128.424 23.0065 128.499 22.8992C128.648 22.6706 128.909 22.4421 128.918 22.2042C128.96 21.0146 128.951 19.8251 128.932 18.6356C128.918 17.9639 128.652 17.6606 128.177 17.6653C127.668 17.6653 127.076 18.2204 127.071 18.7242C127.062 19.8764 127.071 21.0286 127.066 22.1855C127.066 22.5307 127.164 22.7966 127.528 22.9225C127.626 22.9552 127.682 23.1045 127.822 23.2817H124.286C124.408 23.1138 124.459 22.9645 124.547 22.9365C124.995 22.7966 125.065 22.4747 125.065 22.0642C125.051 20.7254 125.056 19.3866 125.065 18.0478C125.065 17.6653 125.023 17.3481 124.566 17.2455C124.473 17.2221 124.412 17.0356 124.296 16.8583H127.02L126.996 16.8536Z" fill="black"/>
<path d="M47.7553 1.04928C48.0306 1.03529 48.3104 1.04928 48.581 0.997969C49.7752 0.769394 50.5169 1.31051 51.2119 2.25747C52.4435 3.93679 53.8056 5.51816 55.1164 7.14151C55.219 7.26746 55.3356 7.37942 55.5502 7.60799C55.5502 7.11352 55.5502 6.75433 55.5502 6.39048C55.5502 5.20096 55.5642 4.00677 55.5502 2.81724C55.5362 1.79565 55.359 1.58573 54.3933 1.29652C54.3327 1.27786 54.2767 1.23587 54.2347 1.09127H57.5094C57.4628 1.19856 57.4535 1.2592 57.4348 1.2592C56.2313 1.38515 56.1753 2.25747 56.1753 3.17177C56.1753 5.38755 56.1753 7.60333 56.1753 9.81445C56.1753 10.0104 56.1753 10.211 56.1753 10.4069C56.11 10.4395 56.0447 10.4768 55.9794 10.5095C53.9362 7.98584 51.893 5.46218 49.8545 2.93853C49.8125 2.97585 49.7612 2.9945 49.7612 3.01783C49.7612 4.87908 49.7612 6.74034 49.7565 8.6016C49.7565 9.47858 50.167 9.99637 51.1653 10.0104C51.128 10.071 51.0907 10.1317 51.0533 10.1923H47.7833L47.7413 10.0803C47.8953 10.0244 48.0445 9.95905 48.2031 9.91707C48.9029 9.72581 49.0708 9.53922 49.0801 8.76953C49.0988 7.1695 49.0895 5.56948 49.0895 3.96945C49.0895 3.54029 49.0895 3.11112 49.0895 2.68663C49.0895 1.81897 48.8469 1.51576 47.9839 1.29652C47.9046 1.27786 47.83 1.23587 47.7553 1.20322V1.05861V1.04928Z" fill="black"/>
<path d="M102.917 23.515C101.107 23.515 99.7678 22.0736 99.7585 20.1283C99.7491 18.1411 101.083 16.6904 102.921 16.6904C104.768 16.6904 106.107 18.1225 106.103 20.1097C106.103 22.0875 104.759 23.5196 102.912 23.5196L102.917 23.515ZM104.055 20.1237C103.994 19.4706 103.961 18.8035 103.868 18.1411C103.798 17.6373 103.574 17.2035 102.977 17.1568C102.511 17.1195 102.035 17.4927 102.007 18.1131C101.942 19.4426 101.942 20.7767 102.007 22.1015C102.035 22.722 102.501 23.0765 102.982 23.0532C103.448 23.0345 103.789 22.694 103.873 22.0736C103.961 21.4345 103.994 20.7814 104.055 20.119V20.1237Z" fill="black"/>
<path d="M106.905 20.063C106.905 17.7026 108.902 16.1119 111.038 16.8443C111.598 17.0355 112.158 17.4647 112.526 17.9358C114.047 19.8624 113.077 22.8805 110.809 23.445C108.72 23.9674 106.9 22.3907 106.905 20.063ZM111.211 20.2309C111.141 19.4846 111.113 18.8128 111.005 18.1598C110.898 17.4834 110.548 17.1475 110.077 17.1522C109.615 17.1522 109.223 17.5067 109.139 18.1551C109.037 18.9808 109.004 19.8158 109 20.6461C109 21.1779 109.056 21.7237 109.167 22.2461C109.265 22.7033 109.559 23.0671 110.096 23.0485C110.595 23.0298 110.879 22.7266 110.954 22.2508C111.061 21.5557 111.131 20.856 111.211 20.2309Z" fill="black"/>
<path d="M68.4112 20.0724C68.4112 17.6234 70.501 16.0607 72.6888 16.8723C73.9996 17.3575 74.774 18.7383 74.6947 20.4409C74.6294 21.8357 73.6917 23.0858 72.4136 23.4124C69.8619 24.0655 68.2432 21.9383 68.4112 20.0724ZM72.7121 19.5079C72.7121 19.5079 72.6701 19.4986 72.6515 19.494C72.5862 18.9995 72.5395 18.5003 72.4462 18.0059C72.3576 17.5301 72.1057 17.1615 71.5693 17.1522C71.0375 17.1429 70.7576 17.5067 70.655 17.9732C70.3517 19.4053 70.3471 20.8467 70.6596 22.2788C70.7576 22.7267 71.0608 23.0532 71.5599 23.0439C72.0917 23.0345 72.3809 22.694 72.4416 22.2089C72.5535 21.3086 72.6188 20.4083 72.7028 19.5033L72.7121 19.5079Z" fill="black"/>
<path d="M64.4135 16.6904C66.2561 16.6857 67.5855 18.1225 67.5809 20.1143C67.5809 22.0689 66.2514 23.515 64.4461 23.515C62.5942 23.515 61.2694 22.1249 61.2647 20.1797C61.26 18.1085 62.5335 16.695 64.4135 16.6904ZM63.2799 20.1143C63.3545 20.8047 63.3919 21.5091 63.5131 22.1995C63.5971 22.6893 63.9003 23.0625 64.4601 23.0485C64.9966 23.0345 65.2391 22.6707 65.3324 22.1902C65.5936 20.8094 65.5983 19.424 65.3324 18.0432C65.2345 17.544 64.9919 17.1522 64.4274 17.1569C63.8677 17.1569 63.5971 17.5674 63.5131 18.0478C63.3965 18.7196 63.3592 19.41 63.2846 20.1097L63.2799 20.1143Z" fill="black"/>
<path d="M50.6009 35.8254H47.8254C47.8627 35.7414 47.8814 35.6155 47.928 35.6061C48.5111 35.4755 48.763 35.0277 48.9729 34.5379C50.0645 32.0002 51.1514 29.4626 52.2429 26.9249C52.3176 26.7523 52.4575 26.6031 52.5648 26.4445C52.6954 26.6031 52.868 26.7477 52.9473 26.9296C54.0389 29.3879 55.1165 31.8463 56.194 34.3093C56.4459 34.8878 56.6652 35.4942 57.4069 35.6295C57.4302 35.6295 57.4395 35.7274 57.4722 35.83H53.9036C53.8943 35.7741 53.8896 35.7181 53.8803 35.6621C54.0622 35.6248 54.2395 35.5875 54.4214 35.5502C54.7806 35.4802 54.9532 35.2656 54.8272 34.9111C54.6127 34.3 54.3748 33.6982 54.1135 33.1058C54.0669 32.9985 53.8663 32.9052 53.731 32.9005C52.7281 32.8819 51.7205 32.8772 50.7176 32.9052C50.5543 32.9099 50.335 33.0918 50.2557 33.2504C50.0505 33.6609 49.8919 34.0994 49.7379 34.5379C49.4954 35.2236 49.6213 35.4242 50.335 35.5875C50.4283 35.6108 50.5123 35.6621 50.6056 35.7041C50.6009 35.7461 50.5963 35.7881 50.5916 35.8254H50.6009ZM53.7917 32.2521C53.2645 30.9926 52.7701 29.8078 52.2196 28.497C51.6692 29.8218 51.1794 31.0066 50.6616 32.2521H53.7917Z" fill="black"/>
<path d="M98.3452 13.8588C98.3452 14.162 98.3452 14.3766 98.3452 14.5959C98.3452 16.9749 98.3452 19.3586 98.3452 21.7377C98.3452 22.2461 98.2845 22.7639 98.9236 22.9739C98.9703 22.9879 98.9796 23.1231 99.0263 23.2631H95.6396C95.7142 23.1185 95.7469 22.9599 95.8215 22.9319C96.33 22.7639 96.3393 22.3674 96.3393 21.9429C96.3347 19.7272 96.3393 17.516 96.3393 15.3003C96.3393 14.8571 96.4093 14.3813 95.8075 14.2227C95.7562 14.2087 95.6863 14.0361 95.7096 14.0128C95.7749 13.9428 95.8775 13.8682 95.9661 13.8635C96.7265 13.8542 97.4869 13.8588 98.3499 13.8588H98.3452Z" fill="black"/>
<path d="M116.636 16.8303V17.8519C116.911 17.586 117.102 17.4041 117.294 17.2222C117.671 16.8536 118.119 16.6577 118.656 16.7044C119.169 16.751 119.547 17.0029 119.649 17.5254C119.738 17.9685 119.668 18.407 119.211 18.6309C118.726 18.8688 118.324 18.7009 117.979 18.3044C117.541 17.8053 117.2 17.8519 116.897 18.449C116.822 18.5936 116.762 18.7662 116.762 18.9248C116.748 20.021 116.752 21.1173 116.752 22.2182C116.752 22.6147 116.962 22.8246 117.345 22.9085C117.499 22.9412 117.634 23.0532 117.779 23.1278C117.76 23.1791 117.741 23.2258 117.723 23.2771H113.865C114.024 23.1091 114.093 22.9739 114.191 22.9459C114.616 22.8292 114.728 22.5307 114.733 22.1435C114.733 20.7674 114.742 19.3913 114.742 18.0152C114.742 17.6513 114.635 17.3621 114.233 17.2548C114.14 17.2268 114.07 17.1009 113.991 17.0216C114.084 16.9609 114.177 16.849 114.275 16.8443C115.054 16.8303 115.829 16.835 116.645 16.835L116.636 16.8303Z" fill="black"/>
<path d="M110.357 30.4609C110.683 30.2136 110.949 29.9804 111.243 29.7938C112.531 28.9635 113.87 29.6212 113.944 31.1513C113.995 32.2102 113.981 33.2738 113.963 34.3327C113.953 34.9997 113.977 35.6155 114.798 35.8487H111.966C111.966 35.8021 111.957 35.7368 111.966 35.7368C112.755 35.5269 112.806 34.9251 112.787 34.258C112.764 33.3671 112.797 32.4714 112.778 31.5804C112.764 30.7688 112.554 30.4329 112.05 30.2929C111.565 30.1623 110.739 30.5075 110.46 30.9927C110.385 31.1233 110.38 31.3099 110.38 31.4685C110.376 32.4527 110.38 33.4417 110.38 34.426C110.38 35.079 110.724 35.5486 111.411 35.8347H108.258C108.855 35.4242 109.153 34.8365 109.153 34.0714C109.153 33.1758 109.153 32.2848 109.153 31.3892C109.153 30.761 108.846 30.338 108.23 30.1203C108.897 29.8964 109.564 29.6679 110.278 29.4253C110.31 29.7985 110.334 30.1064 110.362 30.4609H110.357Z" fill="black"/>
<path d="M82.5782 10.239H79.6487C79.658 10.169 79.6534 10.1084 79.6673 10.1037C80.409 9.94042 80.5163 9.41796 80.4977 8.76489C80.465 7.78062 80.4883 6.79168 80.4883 5.80274C80.4883 5.17144 80.2022 4.78737 79.63 4.65053C79.6114 4.59922 79.5927 4.54791 79.5741 4.4966C80.2365 4.27268 80.8989 4.04877 81.6359 3.79688V4.91643C81.9204 4.68319 82.107 4.51525 82.3076 4.36598C82.9327 3.88551 83.6231 3.62894 84.3835 3.98813C85.1205 4.33333 85.2884 5.03771 85.3071 5.77009C85.3304 6.829 85.3118 7.89257 85.3164 8.95148C85.3164 9.7445 85.3631 9.8098 86.0721 10.197H83.2779C83.2779 10.1643 83.2779 10.1037 83.2919 10.1037C83.9916 9.94042 84.1409 9.46461 84.1176 8.81154C84.0802 7.82726 84.1176 6.83833 84.1036 5.85405C84.0942 5.03771 83.7444 4.62254 83.1193 4.63654C82.4102 4.65053 81.7292 5.27562 81.7292 5.91936C81.7292 6.87098 81.7385 7.81793 81.7292 8.76955C81.7199 9.42263 81.6406 10.1084 82.7321 10.0664C82.6855 10.127 82.6388 10.183 82.5922 10.2436L82.5782 10.239Z" fill="black"/>
<path d="M75.5808 32.7606C75.5808 34.6499 74.242 36.11 72.502 36.1286C70.7481 36.1473 69.3206 34.6079 69.33 32.7093C69.3393 30.8481 70.6688 29.4626 72.4414 29.4579C74.3027 29.4579 75.5855 30.8014 75.5808 32.7606ZM70.5708 32.3221C70.6361 33.3297 70.874 34.258 71.4665 35.0604C72.1289 35.956 73.3324 35.9047 73.8828 34.9811C74.5872 33.8009 74.3306 31.4078 73.3977 30.4096C72.614 29.5746 71.3732 29.7612 70.9347 30.8247C70.7388 31.2959 70.6874 31.823 70.5708 32.3221Z" fill="black"/>
<path d="M75.7163 3.85286C77.5635 3.85286 78.8277 5.18699 78.823 7.12755C78.8184 9.04478 77.4516 10.5142 75.6929 10.4909C73.9063 10.4675 72.5769 9.02146 72.5769 7.10422C72.5769 5.21498 73.897 3.84819 75.7163 3.85286ZM77.5962 7.58936C77.5355 6.65174 77.307 5.80274 76.8172 5.03305C76.4673 4.4826 75.9542 4.22604 75.3011 4.30068C74.704 4.37065 74.3075 4.73917 74.1302 5.28029C73.6358 6.78235 73.8037 8.22378 74.7553 9.50193C75.4504 10.4302 76.7285 10.253 77.1857 9.18472C77.4003 8.68559 77.4609 8.12581 77.5962 7.58936Z" fill="black"/>
<path d="M92.6773 34.9437C92.626 35.5035 92.2202 35.8674 91.6231 35.9513C90.998 36.04 90.7694 35.8674 90.4896 35.1023C90.0417 35.3589 89.6172 35.6621 89.1461 35.8627C88.4137 36.1706 87.7 35.97 87.2895 35.4196C86.8697 34.8551 86.865 34.0481 87.3641 33.4557C87.6207 33.1525 87.9566 32.8819 88.3064 32.6953C88.8755 32.3874 89.482 32.1449 90.0884 31.9116C90.3823 31.7997 90.5129 31.6597 90.4709 31.3472C90.4476 31.1652 90.4662 30.974 90.4616 30.7874C90.4569 30.3956 90.3823 29.9711 89.9578 29.8964C89.5659 29.8265 89.1181 29.8684 88.7496 30.0037C88.591 30.0644 88.5676 30.4935 88.4883 30.7547C88.409 31.002 88.409 31.3378 88.2411 31.4731C88.0965 31.5897 87.6627 31.5758 87.5414 31.4498C87.3735 31.2725 87.2662 30.8947 87.3361 30.6661C87.5741 29.9197 88.1898 29.5652 88.9268 29.4533C89.3094 29.3973 89.7105 29.4113 90.0977 29.4439C90.8814 29.5092 91.4971 30.027 91.5578 30.8061C91.6511 31.9909 91.6418 33.1804 91.6651 34.37C91.6837 35.2003 91.8843 35.3263 92.668 34.9391L92.6773 34.9437ZM90.4756 32.1309C90.1304 32.2708 89.8645 32.3548 89.6219 32.4761C89.0388 32.7746 88.4184 33.1058 88.3064 33.8009C88.2504 34.1414 88.4091 34.6032 88.633 34.8878C88.9408 35.2796 89.4353 35.1863 89.8645 35.0044C90.2423 34.8411 90.5035 34.5985 90.4802 34.1227C90.4522 33.4977 90.4709 32.8679 90.4709 32.1309H90.4756Z" fill="black"/>
<path d="M92.6541 9.37129C92.6494 9.81911 92.2483 10.2296 91.7071 10.3276C91.0494 10.4489 90.7648 10.2529 90.4803 9.44593C90.3404 9.54389 90.2191 9.64185 90.0838 9.72115C89.7806 9.89842 89.4867 10.1037 89.1648 10.2343C88.3951 10.5422 87.6861 10.3509 87.2616 9.77713C86.8557 9.22202 86.8884 8.32638 87.4248 7.7666C87.7374 7.44006 88.1479 7.18817 88.5444 6.95959C88.8943 6.75434 89.2814 6.60973 89.6593 6.45579C90.513 6.10593 90.5129 6.1106 90.471 5.19629C90.429 4.28199 89.5613 3.81551 88.8056 4.34264C88.6144 4.47325 88.5117 4.82778 88.4884 5.08434C88.4604 5.4202 88.5631 5.80738 88.1526 5.92867C87.9426 5.98931 87.6114 5.924 87.4528 5.7794C87.1496 5.50884 87.2383 5.14032 87.4248 4.80912C88.0406 3.71755 90.2424 3.40501 91.138 4.29132C91.6325 4.78113 91.6558 5.42953 91.6745 6.05928C91.7025 6.9316 91.6792 7.80858 91.6838 8.68557C91.6838 9.62319 91.8191 9.71649 92.6588 9.38062L92.6541 9.37129ZM90.4756 6.5071C90.1631 6.63305 89.9205 6.72169 89.6919 6.82898C89.0855 7.12286 88.4371 7.4354 88.3112 8.15844C88.2505 8.50364 88.3811 8.97478 88.5957 9.25934C88.9129 9.6745 89.4214 9.58587 89.8739 9.38529C90.2564 9.21269 90.5036 8.97012 90.485 8.49897C90.457 7.87389 90.4756 7.24414 90.4756 6.51177V6.5071Z" fill="black"/>
<path d="M107.479 32.7186C107.479 34.4819 106.425 35.8114 104.829 36.068C103.201 36.3292 101.573 35.1723 101.335 33.521C101.251 32.9425 101.251 32.3175 101.382 31.753C101.746 30.2183 103.173 29.2713 104.694 29.4673C106.434 29.6865 107.479 30.904 107.479 32.7186ZM106.266 33.1665C106.173 32.2335 105.981 31.3705 105.454 30.6195C104.722 29.5746 103.397 29.6632 102.837 30.7781C102.25 31.9489 102.553 34.1787 103.434 35.1537C104.2 36.0027 105.394 35.858 105.846 34.8178C106.07 34.3047 106.131 33.7216 106.266 33.1665Z" fill="black"/>
<path d="M64.0309 9.34799C63.9282 9.89377 63.4711 10.2856 62.9393 10.3369C62.3282 10.3976 62.1183 10.239 61.8244 9.45528C61.7031 9.53458 61.5865 9.61388 61.4699 9.68385C61.1527 9.87044 60.8448 10.0897 60.5043 10.2296C59.7532 10.5422 59.0255 10.3463 58.6057 9.77248C58.2139 9.23603 58.2418 8.36371 58.727 7.8086C58.9789 7.52405 59.3007 7.27681 59.632 7.09022C60.1171 6.82433 60.6395 6.61908 61.1527 6.4045C61.8244 6.12461 62.0017 5.7141 61.7871 4.86978C61.6471 4.32399 61.26 4.10475 60.5696 4.17938C59.9818 4.24469 59.8092 4.50592 59.8045 5.11701C59.8045 5.38757 59.6879 5.74209 59.4967 5.9007C59.3707 6.00332 58.8576 5.89137 58.7876 5.74676C58.6663 5.49019 58.6383 5.07969 58.769 4.83712C59.2494 3.93682 60.1357 3.74089 61.064 3.79221C62.4355 3.86684 62.9533 4.44528 62.9906 5.86804C63.0139 6.815 62.9906 7.76662 62.9999 8.71357C63.0093 9.59056 63.1959 9.70718 64.0355 9.35265L64.0309 9.34799ZM61.8244 6.51179C61.5818 6.60508 61.4279 6.65639 61.2786 6.7217C60.6302 7.01092 59.9818 7.3048 59.6786 8.01385C59.4873 8.46167 59.548 8.8955 59.8978 9.24536C60.2757 9.62787 60.7375 9.59056 61.19 9.40396C61.5912 9.23603 61.8617 8.97947 61.8337 8.48033C61.8011 7.85058 61.8244 7.22084 61.8244 6.51645V6.51179Z" fill="black"/>
<path d="M120.251 23.2631C120.354 23.1138 120.396 22.9692 120.475 22.9412C120.946 22.7873 121.002 22.4281 121.002 22.0129C120.997 20.6928 120.997 19.3726 121.002 18.0525C121.002 17.6886 120.918 17.4041 120.536 17.2595C120.428 17.2175 120.363 17.0589 120.209 16.863H123.008V19.256C123.008 20.1657 123.017 21.08 123.008 21.9896C123.003 22.4234 123.008 22.8153 123.535 22.9552C123.6 22.9739 123.638 23.1138 123.726 23.2631H120.256H120.251Z" fill="black"/>
<path d="M81.7152 33.6796C81.5333 35.2283 79.672 36.7583 77.8621 35.6668C76.332 34.7431 75.9588 32.3501 77.0924 30.7734C77.9227 29.6165 79.2895 29.1034 80.5163 29.5979C80.9455 29.7705 81.3327 30.153 81.6312 30.5262C81.8831 30.8434 81.7292 31.2399 81.356 31.4078C80.9968 31.5664 80.661 31.4498 80.4697 31.0673C80.4277 30.9833 80.409 30.8947 80.3764 30.806C80.2458 30.4282 80.2225 29.971 79.7 29.8871C79.1076 29.7938 78.5991 29.9617 78.1933 30.4189C77.3163 31.4031 77.3723 33.3064 78.2959 34.3326C78.8417 34.9391 79.5367 35.1303 80.2691 34.8831C80.6843 34.7431 81.0201 34.3746 81.3793 34.0854C81.5146 33.9781 81.6079 33.8148 81.7199 33.6796H81.7152Z" fill="black"/>
<path d="M58.6104 35.8207V33.7309L58.7457 33.6982C58.8063 33.8708 58.867 34.0481 58.9276 34.2207C59.1515 34.9064 59.5014 35.4755 60.2664 35.6481C60.8495 35.7834 61.3906 35.5642 61.6052 35.1117C61.8338 34.6265 61.6892 34.1321 61.1527 33.7682C60.6769 33.4463 60.1498 33.1944 59.6693 32.8819C59.1329 32.532 58.6291 32.1449 58.5731 31.4265C58.4611 30.013 59.6134 29.1314 61.0781 29.4952C61.4186 29.5792 61.7732 29.6212 62.1977 29.6958V31.4078C62.1743 31.4265 62.1463 31.4451 62.123 31.4638C62.0484 31.3145 61.9644 31.1652 61.9038 31.0113C61.6799 30.3816 61.344 29.8684 60.6163 29.7798C60.1265 29.7192 59.716 29.8731 59.5154 30.3489C59.3101 30.8247 59.4827 31.2399 59.8792 31.5244C60.2244 31.7763 60.6116 31.9629 60.9801 32.1775C61.2367 32.3268 61.5026 32.4621 61.7452 32.63C62.5568 33.1898 62.8787 33.9128 62.6688 34.6638C62.4542 35.4242 61.7452 35.97 60.8122 36.0166C60.3924 36.0353 59.9679 35.9327 59.5434 35.8907C59.2448 35.8627 58.9463 35.8487 58.6104 35.8254V35.8207Z" fill="black"/>
<path d="M93.1252 1.32915C93.8576 1.11457 94.59 0.899988 95.3783 0.666748V4.30996C95.3783 5.72339 95.3783 7.13683 95.3783 8.55026C95.3783 9.31529 95.7515 9.86729 96.4979 10.2063H93.1672C93.1998 10.1363 93.2045 10.0896 93.2278 10.0803C93.8778 9.8222 94.2043 9.34484 94.2074 8.64822C94.2074 6.65635 94.2074 4.66915 94.2074 2.67728C94.2074 2.50934 94.1934 2.34141 94.1888 2.17814C94.1795 1.69767 93.9555 1.4551 93.4564 1.50175C93.3538 1.51108 93.2512 1.49242 93.1485 1.48775C93.1392 1.43644 93.1345 1.38046 93.1252 1.32915Z" fill="black"/>
<path d="M67.7721 29.7005C67.7955 30.2043 67.8235 30.8107 67.8514 31.4125C67.8001 31.4311 67.7535 31.4498 67.7022 31.4638C67.6275 31.3145 67.5436 31.1652 67.4876 31.0113C67.203 30.181 66.7179 29.7705 66.0322 29.7705C65.575 29.7705 65.2345 29.9617 65.0759 30.3955C64.9173 30.8294 65.0432 31.2166 65.4118 31.4824C65.757 31.7297 66.1441 31.9209 66.5033 32.1448C66.8952 32.3874 67.3197 32.602 67.6649 32.9052C68.7424 33.8475 68.4206 35.4802 67.0398 35.8534C66.4287 36.0213 65.729 35.8767 65.0712 35.8674C64.7913 35.8674 64.5161 35.8394 64.1989 35.8207V33.7402C64.2362 33.7309 64.2782 33.7169 64.3155 33.7076C64.4042 33.9501 64.5021 34.1927 64.5861 34.4353C64.824 35.121 65.2625 35.5828 66.0089 35.6808C66.5546 35.7554 67.0211 35.5035 67.1984 35.0603C67.385 34.5939 67.2543 34.1321 66.7692 33.8055C66.2328 33.4417 65.645 33.1524 65.1085 32.7886C64.1663 32.1542 63.8817 31.3145 64.2689 30.4515C64.6374 29.6352 65.6123 29.2527 66.6526 29.5092C66.9791 29.5885 67.315 29.6305 67.7675 29.7098L67.7721 29.7005Z" fill="black"/>
<path d="M93.8203 30.125C93.5264 30.111 93.3071 30.1017 92.9013 30.083C93.3258 29.6539 93.6757 29.3367 93.9835 28.9775C94.3101 28.5996 94.5993 28.1891 95.0005 27.662V29.5372H96.3626C96.3766 29.7518 96.3859 29.9011 96.3952 30.111H95.0518C95.0518 31.6271 95.0238 33.0918 95.0658 34.5566C95.0844 35.219 95.6769 35.4522 96.2366 35.079C96.3673 34.9904 96.4885 34.8924 96.6471 34.7805C96.6285 35.3356 96.064 35.8534 95.383 36.0027C94.7906 36.1333 94.2354 35.9094 94.0395 35.3822C93.9089 35.0277 93.8389 34.6265 93.8343 34.244C93.8109 32.8866 93.8249 31.5338 93.8249 30.125H93.8203Z" fill="black"/>
<path d="M66.3819 3.9741H67.7253V4.50122H66.3959C66.3959 5.99862 66.3586 7.42605 66.4099 8.85348C66.4379 9.65116 66.9976 9.86575 67.6367 9.40393C67.744 9.32929 67.8606 9.25932 68.0332 9.15203C67.8606 9.8984 67.0583 10.4628 66.3539 10.4209C65.6728 10.3789 65.2157 9.90306 65.1924 9.09605C65.155 7.81323 65.1737 6.52575 65.169 5.24293C65.169 5.02368 65.169 4.80444 65.169 4.54787C64.8938 4.51988 64.6606 4.49656 64.3107 4.45924C65.0058 3.65689 65.6495 2.91986 66.3866 2.07086V3.9741H66.3819Z" fill="black"/>
<path d="M82.8021 30.251C83.5065 29.9944 84.2155 29.7332 84.9992 29.4486C85.0132 29.6818 85.0319 29.8731 85.0319 30.0644C85.0319 31.5151 84.9992 32.9612 85.0459 34.412C85.0739 35.2283 84.9386 35.5315 85.9649 35.6948C86.0068 35.6994 86.0395 35.7554 86.1561 35.8534H82.6342C82.8068 35.7461 82.8581 35.6948 82.9141 35.6761C83.833 35.3776 83.8564 35.3496 83.861 34.3606C83.861 33.3764 83.861 32.3921 83.861 31.4078C83.861 30.3722 83.819 30.3303 82.7974 30.2556L82.8021 30.251Z" fill="black"/>
<path d="M97.1789 30.2556C97.8972 29.9944 98.611 29.7332 99.4226 29.4393C99.4226 29.7145 99.4226 29.9431 99.4226 30.1716C99.4226 31.4171 99.4133 32.6626 99.4226 33.9082C99.4273 34.6965 99.1987 35.6248 100.412 35.8534H97.0436C97.2768 35.7368 97.3701 35.6481 97.4728 35.6388C98.0792 35.5968 98.2378 35.219 98.2378 34.6918C98.2378 33.5956 98.2378 32.4994 98.2378 31.4032C98.2378 30.3489 98.2051 30.3209 97.1835 30.2556H97.1789Z" fill="black"/>
<path d="M71.7324 10.225H68.5604C68.5744 10.155 68.5744 10.099 68.593 10.0944C69.5446 9.7445 69.5633 9.7445 69.5913 8.69492C69.6146 7.71064 69.6193 6.72171 69.5913 5.73743C69.5633 4.71118 69.5446 4.71118 68.5184 4.63654C69.2368 4.37531 69.9551 4.11408 70.7342 3.82953C70.7482 4.02545 70.7668 4.17939 70.7668 4.33799C70.7668 5.77009 70.7482 7.20218 70.7761 8.63427C70.7948 9.58123 70.5896 9.77715 71.7324 10.2296V10.225Z" fill="black"/>
<path d="M122.028 15.8181C121.399 15.8274 120.918 15.3749 120.904 14.7592C120.89 14.1481 121.366 13.6489 121.977 13.6396C122.588 13.6303 123.092 14.1061 123.106 14.7078C123.12 15.3143 122.644 15.8087 122.028 15.8181Z" fill="black"/>
<path d="M83.6231 27.0556C83.6557 26.6031 83.9169 26.3699 84.3321 26.3325C84.7146 26.2999 85.0785 26.6917 85.0692 27.0789C85.0598 27.4987 84.7333 27.7973 84.2948 27.7693C83.8516 27.7366 83.6417 27.4754 83.6184 27.0556H83.6231Z" fill="black"/>
<path d="M70.0532 2.17819C69.624 2.11288 69.3768 1.86565 69.3441 1.45048C69.3115 1.07263 69.708 0.713443 70.0998 0.722773C70.5243 0.736767 70.8135 1.05864 70.7855 1.49247C70.7576 1.94495 70.4683 2.12688 70.0578 2.17819H70.0532Z" fill="black"/>
<path d="M98.6298 27.7739C98.2846 27.7553 98.0513 27.508 98.028 27.0835C98.0047 26.6777 98.3545 26.3278 98.751 26.3325C99.1475 26.3418 99.4741 26.6964 99.4554 27.1022C99.4368 27.4847 99.1196 27.7786 98.6298 27.7739Z" fill="black"/>
<path d="M12.2189 4.79513C12.648 4.81846 13.0819 4.79513 13.497 4.87443C14.8872 5.12633 15.9367 4.54323 16.7811 3.53564C17.5041 2.67265 18.4044 2.31346 19.496 2.43008C20.2517 2.50938 21.0027 2.64932 21.7584 2.77061C22.3089 2.85924 22.8546 3.01784 23.4051 3.0505C23.8716 3.07382 24.366 3.0365 24.8045 2.89189C26.7358 2.26214 28.4617 2.66332 29.9498 3.96013C30.7242 4.63186 31.5125 4.99572 32.5481 4.99105C33.6023 4.98639 34.344 5.64879 34.8992 6.48846C35.4309 7.29547 35.9021 8.1398 36.4106 8.9608C37.1336 10.127 38.2438 10.8454 39.4193 11.4611C39.9278 11.727 40.189 12.0816 40.231 12.618C40.301 13.4903 40.301 14.3673 40.4176 15.2303C40.6229 16.6997 40.9167 18.1551 41.136 19.6199C41.2106 20.1283 41.0707 20.5715 40.7628 21.0613C40.3896 21.6631 40.2637 22.4467 40.1237 23.1651C39.9231 24.1821 39.8299 25.2223 39.6526 26.2486C39.5266 26.9809 39.1908 27.522 38.3698 27.7553C37.9733 27.8672 37.6001 28.2777 37.3435 28.6416C36.7651 29.4579 36.2986 30.3582 35.7202 31.1746C35.4543 31.5478 35.0811 31.9536 34.6706 32.0936C33.3364 32.5367 31.951 32.8166 30.6169 33.2551C29.8378 33.5117 29.1288 33.9735 28.3638 34.2813C28.0419 34.412 27.6081 34.5099 27.3095 34.4026C25.4623 33.7262 23.7736 34.0668 22.1223 35.0137C21.7444 35.233 21.3013 35.3589 20.8768 35.4802C19.8878 35.7554 19.0482 35.4475 18.3298 34.7478C18.1292 34.5519 17.9193 34.37 17.728 34.1694C17.3782 33.8055 17.005 33.6656 16.4779 33.7915C15.0084 34.1414 13.637 33.7216 12.3215 33.1151C11.2813 32.63 10.2597 32.0982 9.25674 31.5384C8.9442 31.3658 8.66431 31.0813 8.4404 30.7921C7.65205 29.7798 6.90101 28.7489 6.57448 27.4614C6.50917 27.2048 6.2526 26.9576 6.02403 26.7943C5.12839 26.1459 4.45666 25.3296 4.00417 24.3173C3.79892 23.8602 3.55635 23.417 3.29045 22.9972C2.58607 21.887 2.43213 20.3429 3.57967 19.4659C4.0928 19.0741 3.93886 18.3884 3.80825 17.8333C3.55168 16.751 3.19716 15.6921 2.93593 14.6145C2.69803 13.6349 2.94992 12.8373 4.0135 12.3521C4.62459 12.0722 5.15171 11.4518 5.52956 10.864C6.08001 10.0104 6.53716 9.08209 6.90101 8.13047C7.84797 5.66279 9.75587 4.81379 12.2189 4.80446V4.79513ZM12.3542 5.2103C9.42467 5.22429 8.19783 5.97533 7.19023 8.37304C6.78439 9.34332 6.32258 10.3136 5.73948 11.1906C5.34297 11.7877 4.75987 12.3148 4.14878 12.6926C3.31378 13.2104 3.04322 13.5183 3.2718 14.4746C3.5237 15.5382 3.86889 16.5784 4.13012 17.642C4.30738 18.3697 4.40068 19.1207 3.81291 19.7458C2.95459 20.6601 2.8473 21.3412 3.4164 22.4607C3.61699 22.8572 3.88755 23.2211 4.06481 23.6223C4.57328 24.7838 5.23101 25.8101 6.28992 26.5611C6.56048 26.7524 6.84037 27.0649 6.92434 27.3728C7.31151 28.7815 8.12785 29.9104 9.09347 30.9553C9.20542 31.0766 9.33604 31.1979 9.48065 31.2726C10.3156 31.711 11.1506 32.1542 11.9996 32.5647C13.3338 33.2084 14.7006 33.8009 16.2213 33.4603C17.061 33.2738 17.6487 33.5303 18.2132 34.1088C19.5193 35.4382 20.2703 35.5828 21.9263 34.6872C23.699 33.7309 25.4949 33.3577 27.4401 34.0761C27.6314 34.1461 27.9626 34.1181 28.1119 33.9968C28.9795 33.2924 30.0104 33.0172 31.06 32.756C32.2262 32.4621 33.3924 32.1542 34.526 31.767C34.8712 31.6504 35.1837 31.3005 35.403 30.9833C36.028 30.083 36.5645 29.1221 37.1989 28.2311C37.4461 27.8859 37.838 27.5267 38.2252 27.4334C38.9762 27.2515 39.2001 26.743 39.3121 26.1226C39.452 25.3389 39.508 24.5366 39.6666 23.7529C39.8578 22.8106 39.9418 21.7843 40.399 20.982C40.8141 20.2496 40.8281 19.5826 40.7255 18.8688C40.4363 16.8117 39.8438 14.8011 39.8765 12.702C39.8812 12.2868 39.6619 11.9929 39.2654 11.7877C37.852 11.0693 36.6345 10.1223 35.8088 8.72756C35.3563 7.96253 34.9038 7.19284 34.414 6.45114C33.9709 5.77941 33.3038 5.30826 32.5108 5.33625C31.3073 5.3829 30.3883 4.93041 29.5813 4.11407C29.544 4.07675 29.4973 4.03943 29.4507 4.01145C28.4711 3.39569 27.4868 2.75661 26.2459 2.96653C25.6255 3.06916 25.0191 3.26041 24.3987 3.37237C24.1001 3.42835 23.7783 3.45167 23.4797 3.40969C22.3788 3.24642 21.2779 3.05516 20.177 2.8639C18.8896 2.64466 17.7793 2.7986 16.879 3.92281C16.0114 5.00505 14.8218 5.47153 13.3944 5.2103C13.0539 5.14966 12.69 5.20097 12.3355 5.20097L12.3542 5.2103Z" fill="black"/>
<path d="M5.79091 23.501C5.79091 22.2368 5.79091 21.0566 5.79091 19.8764C5.79091 18.1458 5.79558 16.4151 5.79091 14.6845C5.79091 14.134 6.04748 13.7235 6.51862 13.537C7.33963 13.2104 7.85276 12.604 8.23994 11.867C8.64111 11.1113 9.04695 10.3556 9.35482 9.56254C10.0872 7.69662 11.5986 7.09952 13.4179 6.98757C13.861 6.95958 14.3135 6.98757 14.752 7.06221C15.7783 7.23014 16.7112 6.96425 17.327 6.18056C18.2599 4.9957 19.4121 4.81377 20.7603 5.089C21.5253 5.24293 22.295 5.39221 23.0647 5.49483C23.4005 5.54148 23.7831 5.54148 24.1003 5.43419C25.9848 4.77645 27.6129 5.21028 29.0403 6.52575C29.4788 6.93159 29.9499 7.11818 30.547 7.10885C31.5546 7.0902 32.343 7.53802 32.8841 8.38235C33.206 8.88148 33.4998 9.39927 33.7937 9.91707C34.4794 11.1206 35.4731 11.9976 36.6999 12.5993C37.185 12.8372 37.4416 13.1918 37.4323 13.6816C37.3856 15.5055 37.9641 17.2361 38.1646 19.0228C38.2346 19.6478 38.3466 20.2543 37.8241 20.8C37.6562 20.9773 37.6608 21.3971 37.7122 21.6864C37.8148 22.2648 38.006 22.8292 38.1506 23.375C38.076 23.431 38.0527 23.473 38.0247 23.473C37.4587 23.5258 37.1291 23.8446 37.0358 24.4293C36.9798 24.7791 36.9425 25.1337 36.8445 25.4649C36.7092 25.9127 36.4293 26.2159 35.9442 26.3698C35.6456 26.4631 35.3331 26.6824 35.1558 26.9343C34.6147 27.69 34.1669 28.5063 33.6258 29.2573C33.3879 29.5885 33.0613 29.9477 32.6975 30.0737C31.6712 30.4329 30.589 30.6381 29.5534 30.988C28.807 31.2352 28.112 31.6317 27.3796 31.9256C27.1231 32.0282 26.7779 32.1169 26.54 32.0329C24.9399 31.4545 23.4892 31.7763 22.0477 32.5647C20.6203 33.3437 19.7433 33.1711 18.5958 32.0142C18.1946 31.6084 17.8074 31.3985 17.173 31.5291C16.0255 31.767 14.9199 31.4545 13.8797 30.9553C12.9747 30.5215 12.0791 30.0737 11.2067 29.5792C10.8942 29.4019 10.633 29.1034 10.4137 28.8095C9.80731 27.9932 9.19622 27.1722 8.96764 26.1366C8.92566 25.9453 8.71575 25.7727 8.54781 25.6374C7.88541 25.1103 7.28832 24.5412 6.91513 23.7622C6.85449 23.6362 6.64924 23.543 6.49063 23.5103C6.29938 23.4683 6.08946 23.501 5.80024 23.501H5.79091ZM11.5146 23.515C11.7852 24.0048 12.0091 24.4759 12.2936 24.9097C12.7508 25.6048 13.1333 26.4211 13.7584 26.9109C14.5141 27.5034 15.4704 27.8859 16.3893 28.2124C16.9771 28.4223 17.6628 28.4363 18.2972 28.4083C18.7917 28.385 19.1836 28.469 19.4961 28.8282C20.2984 29.7471 20.9375 29.7798 22.0244 29.1967C23.1253 28.6043 24.2449 28.3897 25.4577 28.7955C25.6257 28.8515 25.8869 28.8468 26.0175 28.7535C26.7639 28.2031 27.6315 28.0258 28.5132 27.8672C29.6514 27.662 30.7103 27.3354 31.2048 26.0993C31.3727 25.6794 31.6899 25.3062 31.9838 24.9471C32.1564 24.7418 32.3989 24.5226 32.6415 24.4666C33.08 24.3686 33.2199 24.0747 33.2806 23.7249C33.4112 22.9972 33.5045 22.2601 33.6118 21.5231C33.178 21.3552 32.9307 21.4578 32.8421 21.9243C32.7581 22.3628 32.6415 22.7919 32.5062 23.2164C32.4689 23.333 32.301 23.487 32.1844 23.4916C31.6526 23.5196 31.1161 23.5056 30.533 23.5056C30.5937 23.2537 30.631 23.0765 30.6823 22.8992C31.4333 20.1796 32.1797 17.4647 32.9541 14.7498C33.0707 14.344 32.982 14.1527 32.6322 13.8961C32.1004 13.509 31.6106 13.0378 31.1908 12.5294C30.8176 12.0769 30.5703 11.5171 30.2485 11.018C29.8893 10.4535 29.4088 10.0757 28.6998 10.085C28.07 10.0943 27.5709 9.84709 27.0997 9.42726C26.1434 8.56894 25.0426 8.29371 23.7877 8.7462C23.5218 8.84416 23.2 8.87215 22.9201 8.83483C22.183 8.73687 21.4553 8.5876 20.7229 8.46165C19.9206 8.32637 19.2395 8.46165 18.6844 9.1567C18.148 9.82377 17.4016 10.1363 16.5013 10.0244C16.0255 9.96371 15.5264 9.94972 15.0505 10.0057C14.1549 10.1177 13.2593 10.3089 12.7835 11.2046C12.2657 12.1795 11.7852 13.1778 11.2534 14.2367H12.7415V15.9626C13.847 15.7901 13.847 15.081 13.5112 14.1807C14.3135 14.4326 14.5701 14.0128 14.7893 13.467C15.0552 12.8046 15.5497 12.3474 16.2681 12.2448C16.8512 12.1608 17.4576 12.2121 18.0407 12.1235C18.4419 12.0629 18.955 11.9742 19.1836 11.699C19.86 10.892 20.6576 10.9013 21.5626 11.0599C22.1224 11.1579 22.7381 11.3025 23.2559 11.1672C24.3288 10.8827 25.1825 11.1392 26.0035 11.8063C26.2134 11.9789 26.5166 12.1049 26.7872 12.1282C27.4496 12.1935 28.042 12.4221 28.2939 13.0285C28.6998 14.0128 29.3388 14.4419 30.3884 14.2507C30.4164 14.246 30.4537 14.2787 30.4304 14.2693C30.5703 14.8944 30.7289 15.4728 30.8316 16.0606C30.9529 16.7557 31.0415 17.4554 31.1208 18.1551C31.1814 18.6869 31.41 19.326 31.2048 19.7365C30.7943 20.5715 30.7616 21.4485 30.5797 22.3114C30.5144 22.6193 30.3651 23.0531 30.1365 23.1464C29.5441 23.3983 29.2082 23.8555 28.9843 24.3733C28.5878 25.2736 27.8414 25.5535 26.9784 25.7727C26.3207 25.936 25.6956 26.2205 25.0472 26.4351C24.8793 26.4911 24.6647 26.5611 24.5201 26.5051C23.6198 26.1506 22.8174 26.3792 22.0104 26.813C21.2314 27.2328 20.6576 27.0975 19.9766 26.5051C19.7807 26.3372 19.4541 26.2159 19.1976 26.2345C17.3456 26.3745 15.1392 24.9797 14.4954 23.2304C14.4395 23.0811 14.3322 22.9505 14.2342 22.8246C13.8797 22.3581 13.5112 21.9009 13.1613 21.4298C13.026 21.2479 12.9281 21.0473 12.8114 20.8514C12.7695 20.8654 12.7228 20.884 12.6808 20.898V23.529H11.5053L11.5146 23.515ZM33.985 21.4764C33.8637 22.2601 33.7611 23.0298 33.6258 23.7949C33.5418 24.2753 33.3366 24.6532 32.7861 24.7838C32.5622 24.8398 32.343 25.059 32.189 25.2596C31.8951 25.6421 31.5873 26.034 31.396 26.4725C30.9948 27.3821 30.2765 27.8159 29.3622 28.0212C29.0543 28.0911 28.7371 28.1238 28.4432 28.2311C27.6828 28.5063 26.9411 28.8235 26.1761 29.0894C25.9289 29.1734 25.6163 29.22 25.3831 29.1407C24.2589 28.7722 23.2233 28.9401 22.2157 29.5046C21.1474 30.1063 20.1119 30.139 19.2629 29.1081C19.0203 28.8142 18.7264 28.7116 18.3252 28.7675C16.3054 29.0614 14.7147 28.0025 13.2359 26.9156C12.5782 26.4305 12.3403 25.4089 11.8178 24.6998C11.4773 24.238 10.9642 23.8975 10.5257 23.5103C10.3671 23.3704 10.1105 23.2817 10.0405 23.1091C9.67203 22.2182 9.35482 21.3085 9.01429 20.4035C8.59446 19.2887 8.17929 18.1738 7.75946 17.0589C7.6615 19.0368 7.67083 20.9913 7.65217 22.9459C7.65217 23.1838 7.4889 23.4217 7.40494 23.6596L7.16703 23.7249C7.63351 24.2147 8.10466 24.7045 8.57114 25.199C8.82304 25.4649 9.11692 25.7121 9.29418 26.0246C9.72801 26.7943 10.0732 27.6153 10.5257 28.371C10.7449 28.7395 11.0855 29.0894 11.4493 29.318C12.1211 29.7425 12.8534 30.0737 13.5671 30.4329C14.6774 30.988 15.8436 31.4451 17.1031 31.1979C17.8448 31.0533 18.3392 31.2539 18.8337 31.767C19.8646 32.8306 20.5597 32.9705 21.8705 32.2568C23.4005 31.4218 24.9493 31.0999 26.6379 31.697C26.8012 31.753 27.0344 31.697 27.207 31.6271C27.9534 31.3145 28.6671 30.9227 29.4321 30.6661C30.4491 30.3256 31.508 30.1157 32.5249 29.7705C32.8374 29.6632 33.1267 29.3553 33.3272 29.0707C33.8077 28.385 34.1762 27.62 34.6894 26.9669C35.0066 26.5704 35.515 26.3232 35.9302 26.006C36.0981 25.8754 36.3547 25.7541 36.4013 25.5815C36.5879 24.9191 36.7092 24.2333 36.8585 23.529C36.532 23.5103 36.35 23.4963 36.1308 23.4823C35.9535 22.8199 35.7809 22.1622 35.6037 21.4764H33.999H33.985ZM9.49943 16.9236C9.52742 16.9049 9.55541 16.8909 9.5834 16.8723C9.51343 16.5691 9.4248 16.2659 9.38281 15.958C9.31284 15.4449 9.39214 14.9411 9.9146 14.7265C10.6423 14.4233 11.0528 13.8588 11.384 13.2011C11.7245 12.52 12.0511 11.8343 12.3916 11.1532C12.6855 10.5608 13.138 10.0897 13.791 9.96371C14.6027 9.80511 15.4424 9.64184 16.2541 9.69316C17.271 9.75846 18.0314 9.45525 18.6518 8.69022C19.0063 8.26106 19.4634 8.04182 20.0232 8.08846C20.5783 8.13511 21.1288 8.20975 21.6839 8.27506C22.4629 8.36835 23.2186 8.62958 24.035 8.34036C25.2571 7.9112 26.3627 8.31237 27.2863 9.12405C27.7528 9.53455 28.2379 9.73514 28.835 9.74447C29.4788 9.7538 29.9732 10.0663 30.3511 10.5655C30.561 10.8454 30.7429 11.1486 30.9155 11.4565C31.8812 13.1684 33.1127 14.4466 35.3051 14.2507C35.4451 14.2367 35.6923 14.4419 35.7389 14.5959C35.9955 15.4075 36.2008 16.2379 36.4247 17.0589C36.7465 18.2344 37.0684 19.4053 37.3996 20.6181C37.9641 20.2496 37.8801 19.7598 37.8288 19.284C37.6422 17.4227 37.0124 15.6221 37.0591 13.7189C37.0637 13.4577 36.7465 13.0845 36.4853 12.9352C35.2445 12.2355 34.1809 11.3725 33.4858 10.1083C33.2339 9.65117 32.9774 9.19869 32.7022 8.75553C32.161 7.88321 31.3913 7.40274 30.3418 7.44006C29.7447 7.46338 29.2735 7.23947 28.8397 6.8383C27.5289 5.62078 26.0455 5.1543 24.2775 5.74673C23.8624 5.88668 23.3726 5.87735 22.9294 5.82603C22.1737 5.74207 21.4273 5.56481 20.6763 5.44352C19.6874 5.28025 18.6891 5.12631 17.9521 6.05461C16.9958 7.25813 15.7689 7.52402 14.2715 7.38408C12.1677 7.18816 10.4091 7.6733 9.53209 9.99637C9.25686 10.7241 8.88368 11.4145 8.51049 12.0955C8.09533 12.8606 7.55421 13.5136 6.69589 13.8308C6.56061 13.8821 6.45332 14.0081 6.33203 14.0967C6.9058 14.2273 7.43759 14.2553 7.96471 14.2133C8.36122 14.1807 8.52449 14.3486 8.64577 14.6938C8.91167 15.4402 9.21021 16.1772 9.4901 16.9189L9.49943 16.9236ZM13.8937 15.8694C12.9514 16.2659 12.9187 16.3358 13.1706 17.2408C13.2733 17.614 13.4505 17.9825 13.4785 18.365C13.5018 18.7102 13.4785 19.144 13.2826 19.3959C12.9234 19.8578 12.9281 20.2589 13.1893 20.7254C13.5905 21.4345 13.903 22.2042 14.626 22.6753C14.7007 22.7219 14.7707 22.8106 14.794 22.8945C15.1345 24.3126 16.1748 25.0543 17.4343 25.5162C18.0267 25.7307 18.6938 25.7354 19.3188 25.866C19.6081 25.9267 19.9486 25.9826 20.1632 26.1599C20.9235 26.7943 21.1568 26.869 22.0011 26.4165C22.7941 25.992 23.6011 25.852 24.4734 26.1086C24.6181 26.1506 24.7953 26.1319 24.9399 26.0853C25.5697 25.88 26.1761 25.6001 26.8198 25.4462C27.6222 25.2549 28.3219 25.0077 28.7091 24.1727C28.905 23.7482 29.2129 23.2677 29.6047 23.0765C30.1505 22.8106 30.2438 22.4327 30.2951 21.9383C30.3371 21.5511 30.4211 21.1686 30.4817 20.7861C30.6077 20.007 31.1208 19.3213 30.8549 18.4397C30.631 17.684 30.6263 16.8676 30.491 16.0839C30.4677 15.944 30.3044 15.7154 30.1972 15.7107C29.3668 15.6781 28.5412 15.6921 27.6362 15.6921C27.8414 16.5271 28.0234 17.2688 28.2193 18.0665H30.3604V19.4846C29.8426 19.4846 29.3575 19.5172 28.8817 19.4752C28.3592 19.4286 28.112 19.6665 28.0467 20.1376C27.9161 21.1266 27.8088 22.1155 27.6875 23.1045C27.6735 23.2257 27.6502 23.3517 27.6315 23.4543C27.5569 23.4776 27.5242 23.4963 27.4869 23.4963C26.2787 23.4963 25.0612 23.459 23.9743 24.1354C23.8997 24.182 23.7551 24.154 23.6571 24.1261C23.088 23.9395 22.5795 24.0747 22.0431 24.3173C21.7492 24.4526 21.2501 24.5599 21.0588 24.4106C20.5503 24.0141 20.0139 23.9301 19.4168 23.9255C19.2395 23.9255 19.0669 23.8088 18.8897 23.7529C18.4045 23.5989 18.0314 23.1231 17.3736 23.4683C16.9911 23.6642 16.422 23.5336 15.9415 23.487C15.7876 23.473 15.5637 23.2864 15.5217 23.1325C15.3398 22.4747 15.2092 21.7983 15.0599 21.1266C14.668 19.3773 14.2809 17.628 13.889 15.8694H13.8937ZM16.0022 16.667C16.0675 16.695 16.1374 16.7183 16.2028 16.7463C16.45 16.3078 16.7439 15.8833 16.9398 15.4215C17.1917 14.8244 17.6069 14.4326 18.2133 14.288C18.5678 14.204 18.955 14.2787 19.3188 14.218C19.6081 14.1667 19.9439 14.0781 20.1492 13.8915C20.5457 13.5276 20.9562 13.425 21.474 13.523C21.9265 13.6069 22.4069 13.7049 22.8454 13.6256C23.5638 13.4903 24.1516 13.6163 24.73 14.0454C24.9539 14.2087 25.2711 14.3253 25.5464 14.3253C26.3953 14.3253 27.2443 14.2693 28.0933 14.232C28.2286 14.2273 28.3686 14.2133 28.5505 14.1994C28.1073 13.2664 27.7015 12.4221 26.5026 12.4501C26.2647 12.4547 26.0082 12.2355 25.7843 12.0815C25.2665 11.7223 24.7533 11.2232 24.0863 11.4005C23.116 11.6617 22.1924 11.5591 21.2407 11.3632C20.5783 11.2232 19.9719 11.2932 19.4961 11.9136C19.1742 12.3381 18.6658 12.5247 18.1013 12.4734C17.8074 12.4454 17.5042 12.4454 17.2104 12.4454C15.9042 12.4501 15.3071 12.8979 14.8779 14.2227C15.5543 14.0594 15.6336 14.5072 15.7036 14.9877C15.7876 15.5521 15.9042 16.1073 16.0068 16.6717L16.0022 16.667ZM24.9073 14.6285C24.786 15.1836 24.7114 15.7014 24.5527 16.1912C24.4175 16.6157 24.5201 16.9982 24.8373 17.1755C25.635 17.6233 25.509 18.3837 25.5743 19.0694C25.607 19.3819 25.4671 19.7225 25.3691 20.0397C25.1219 20.814 24.702 21.4718 23.867 21.6677C23.4332 21.7703 23.2653 21.9429 23.1813 22.3768C22.9667 23.5056 22.9387 23.4963 21.7958 23.501C20.7649 23.501 20.7789 23.501 20.5457 22.4794C20.485 22.2181 20.3731 21.8636 20.1725 21.7517C19.6687 21.4764 19.2209 21.1966 18.997 20.6321C18.927 20.4502 18.7311 20.3196 18.5258 20.1003C18.2972 21.0706 18.092 21.9289 17.8867 22.7779C18.927 23.4683 19.2209 23.5569 20.2798 23.5896C20.4477 23.5943 20.6576 23.6782 20.7649 23.7949C21.1474 24.2147 21.5393 24.21 22.0104 23.9581C22.2996 23.8042 22.6822 23.5943 22.9481 23.6736C23.7038 23.8928 24.3102 23.5103 24.9726 23.347C25.0286 23.333 25.0799 23.3097 25.1358 23.3097C25.593 23.3144 25.7189 23.0951 25.7143 22.652C25.6956 20.1936 25.705 17.7399 25.705 15.2816C25.705 15.0997 25.691 14.9177 25.677 14.7125C25.4157 14.6845 25.1965 14.6612 24.9073 14.6285ZM20.8955 15.8973C21.2827 15.8973 21.6093 15.86 21.9265 15.9067C22.6262 16 22.7801 15.9067 22.8874 15.2256C22.9387 14.9037 23.004 14.5819 23.074 14.2133H24.1236C24.1236 14.148 24.1329 14.0781 24.1329 14.0128C23.7924 13.9848 23.4519 13.9475 23.1113 13.9381C22.7101 13.9288 22.309 13.9614 21.9078 13.9428C21.6326 13.9288 21.3574 13.8122 21.0868 13.8308C20.8256 13.8448 20.4337 13.8308 20.527 14.2973C20.6343 14.8384 20.7696 15.3749 20.8909 15.8973H20.8955ZM16.6972 20.4035C16.7392 20.3989 16.7812 20.3895 16.8232 20.3849C17.2383 18.5236 17.6582 16.6624 18.0733 14.7964C18.0174 14.7638 17.9567 14.7358 17.9007 14.7032C17.7188 14.9364 17.5089 15.1556 17.355 15.4122C17.0098 15.9906 16.8698 16.7137 16.2028 17.0729C16.1514 17.1009 16.1048 17.2035 16.1141 17.2595C16.3007 18.309 16.4966 19.3586 16.6926 20.4035H16.6972ZM23.3912 21.4391C24.6974 21.1546 24.9819 20.203 25.2198 19.2187C25.3877 18.533 25.0239 17.7726 24.3055 17.3014C24.007 18.6449 23.7131 19.9744 23.3912 21.4345V21.4391ZM10.9082 14.5959C10.647 14.7405 10.4604 14.8618 10.2598 14.9457C9.78865 15.1463 9.63471 15.4962 9.74667 15.9813C9.81664 16.2705 9.90061 16.5551 9.95658 16.8443C10.1012 17.586 10.2038 18.3324 10.3717 19.0694C10.4744 19.5126 10.6656 19.9371 10.8149 20.3709C10.8476 20.3616 10.8755 20.3476 10.9082 20.3382V14.5959ZM22.6868 16.3172C22.295 16.2705 21.9498 16.2099 21.5999 16.1866C21.2314 16.1632 20.9842 16.3032 21.0728 16.7323C21.2361 17.53 21.3947 18.3324 21.5673 19.13C21.6606 19.5639 21.7725 19.9977 21.8752 20.4315C21.9031 20.4269 21.9358 20.4175 21.9638 20.4129C22.2064 19.0461 22.4443 17.684 22.6868 16.3172ZM19.4075 17.1615C18.2879 19.298 18.7451 20.4595 20.3078 21.3412C20.0092 19.9511 19.7153 18.5889 19.4075 17.1615ZM33.3925 19.8997C33.4392 19.965 33.4858 20.0304 33.5325 20.0957C33.7844 19.9697 34.2509 19.8438 34.2509 19.7178C34.2415 19.0228 34.1249 18.3277 34.041 17.6326C33.9896 17.6373 33.943 17.642 33.8917 17.6466C33.7237 18.3977 33.5605 19.144 33.3925 19.8951V19.8997ZM34.2975 16.2379C34.2462 16.2472 34.1949 16.2519 34.1436 16.2612C34.3348 17.4834 34.5214 18.7056 34.722 19.9837C34.8293 19.9744 34.9739 19.9651 35.1698 19.9511C34.8713 18.6729 34.5867 17.4554 34.3022 16.2379H34.2975ZM12.7508 19.368C13.3059 18.9994 13.2919 18.1178 12.7508 17.4461V19.368Z" fill="black"/>
<path d="M39.4613 33.9921C39.4613 32.7793 40.4456 31.795 41.6584 31.795C42.8713 31.795 43.8556 32.7793 43.8556 33.9921C43.8556 35.205 42.8713 36.1892 41.6584 36.1892C40.4456 36.1892 39.4613 35.205 39.4613 33.9921Z" stroke="#010101" stroke-width="0.44" stroke-miterlimit="3.86"/>
<path d="M41.7749 32.7886H41.8588C41.9848 32.7886 42.2274 32.8306 42.3113 32.8725C42.3953 32.9145 42.5166 32.9938 42.5586 33.0778C42.6425 33.1618 42.6845 33.325 42.6845 33.451C42.6845 33.6189 42.6425 33.7402 42.5212 33.8615C42.4466 33.9408 42.316 34.0667 42.1107 34.0667C42.358 34.3979 42.6472 34.8924 42.8524 35.1816H42.4839C42.2367 34.8504 42.0688 34.4632 41.7795 34.1787C41.6956 34.1414 41.6582 34.1134 41.453 34.1134H41.1218V35.1816H40.7953V32.7932H41.7842L41.7749 32.7886ZM41.7749 33.8195C41.8962 33.8195 41.9568 33.8102 42.0827 33.7915C42.1714 33.7682 42.232 33.7402 42.288 33.6609C42.3393 33.5909 42.358 33.5349 42.3533 33.4463C42.3533 33.339 42.3067 33.2784 42.232 33.1991C42.1247 33.0918 42.0128 33.0825 41.8588 33.0731C41.8262 33.0731 41.7749 33.0731 41.7749 33.0731H41.1171V33.8148H41.7749V33.8195Z" fill="#010101"/>
</svg>
