<svg width="39" height="55" viewBox="0 0 39 55" fill="none" xmlns="http://www.w3.org/2000/svg">
<path d="M17.5489 21.0565C17.6319 20.7165 17.7129 20.3765 17.7979 20.0384C17.9798 19.3287 18.217 18.6408 18.6698 18.0497C18.8457 17.8204 19.0335 17.6009 19.2272 17.3874C19.7689 16.7904 19.7472 16.7864 19.9468 16.0115C20.101 15.4105 20.3007 14.8174 20.5182 14.2343C20.872 13.2834 21.3287 12.376 21.8545 11.5121C22.3903 10.6304 22.9537 9.76052 23.5527 8.92034C24.0489 8.22447 24.6064 7.57012 25.1599 6.91774C25.5296 6.48084 25.921 6.05976 26.3362 5.66636C27.0498 4.98631 27.7734 4.31218 28.5226 3.67167C29.4043 2.91649 30.3493 2.24237 31.3437 1.64139C32.0771 1.19856 32.8362 0.809112 33.6408 0.512576C34.1983 0.306979 34.7657 0.142896 35.3528 0.0598659C36.1416 -0.0508407 36.9205 -0.0192102 37.6796 0.249648C37.8714 0.316863 37.9801 0.457223 37.9979 0.639098C38.0236 0.892142 38.0355 1.14716 37.8892 1.38834C37.393 2.2048 36.9245 3.03906 36.4125 3.84563C35.7205 4.93491 35.0128 6.01627 34.2833 7.08182C33.7911 7.79944 33.2593 8.49135 32.7315 9.18327C32.2886 9.76448 31.8399 10.3417 31.3674 10.8972C30.7486 11.6267 30.114 12.3424 29.4696 13.0461C28.5543 14.0484 27.5757 14.9855 26.522 15.8415C25.6759 16.5275 24.7804 17.1443 23.8018 17.6246C22.9537 18.0398 22.0681 18.3403 21.1251 18.447C20.8127 18.4826 20.4964 18.4885 20.1821 18.4787C20.0734 18.4747 19.9686 18.3798 19.8243 18.3086C19.7254 18.4233 19.5949 18.5696 19.4724 18.7198C18.8991 19.4296 18.6441 20.2757 18.4365 21.1435C18.2783 21.8038 18.1123 22.4641 17.9304 23.1185C17.9027 23.2193 17.7841 23.3339 17.6833 23.3675C17.539 23.415 17.3867 23.3458 17.3096 23.2015C17.2405 23.069 17.1594 23.0453 17.0131 23.0591C16.6375 23.0908 16.426 22.8931 16.3765 22.5194C16.3014 21.9442 16.1512 21.3867 15.9357 20.8509C15.7598 20.4141 15.5522 19.989 15.3466 19.564C15.3169 19.5027 15.2299 19.4414 15.1608 19.4296C14.2712 19.2714 13.3993 19.0421 12.5651 18.6981C11.9799 18.4569 11.4046 18.1841 10.8392 17.8975C10.001 17.4704 9.2083 16.9624 8.4551 16.4009C7.76121 15.883 7.08313 15.3433 6.41692 14.7917C5.40079 13.9496 4.45385 13.0323 3.55041 12.0715C2.91978 11.4033 2.31287 10.7114 1.70794 10.0215C1.35803 9.62412 1.03184 9.20502 0.695764 8.7958C0.681926 8.77998 0.672041 8.75626 0.656226 8.74835C0.332014 8.59218 0.227238 8.26994 0.0888549 7.98131C-0.0712742 7.65117 0.0196633 7.12729 0.407136 6.92169C0.620642 6.80901 0.851939 6.8011 1.04568 6.95135C1.16231 7.04031 1.25918 7.06008 1.3857 7.01658C2.12704 6.76749 2.89606 6.72005 3.66705 6.7497C4.32536 6.7754 4.97576 6.8782 5.62418 7.01658C6.73322 7.25381 7.81459 7.58593 8.87421 7.98329C9.95557 8.38855 11.0033 8.8729 12.0214 9.41852C13.1522 10.0274 14.2277 10.7193 15.2201 11.5338C15.9891 12.1664 16.7146 12.8405 17.2741 13.6748C17.5805 14.1334 17.8078 14.6178 17.8434 15.1851C17.8849 15.8573 17.6082 16.3634 17.1021 16.7667C16.9874 16.8576 16.8609 16.9347 16.7423 17.0197C16.5011 17.1937 16.2303 17.2332 15.9673 17.1087C15.6688 16.9663 15.5542 16.6856 15.5601 16.3654C15.5621 16.2546 15.5304 16.1716 15.4869 16.0747C15.396 15.8711 15.3426 15.6497 15.2596 15.4402C15.0738 14.9736 14.7693 14.5861 14.4155 14.2362C13.8086 13.6333 13.1364 13.1114 12.4188 12.6547C11.8396 12.285 11.2425 11.945 10.6376 11.6188C10.0287 11.2906 9.40204 10.9961 8.78129 10.6877C8.73978 10.6679 8.69629 10.6521 8.63303 10.664C8.67059 10.6976 8.70617 10.7332 8.74571 10.7628C9.55624 11.3875 10.3865 11.9905 11.1753 12.6409C12.0847 13.3881 12.9308 14.2066 13.7334 15.0705C14.5835 15.9858 15.3644 16.9545 16.0405 18.0022C16.5841 18.8444 17.0685 19.7202 17.369 20.6869C17.4085 20.8154 17.4599 20.9379 17.5054 21.0644C17.5172 21.0644 17.5291 21.0605 17.5409 21.0585L17.5489 21.0565Z" fill="black"/>
<path d="M10.4083 30.7948C10.1434 31.0755 9.8844 31.3483 9.6195 31.629C9.46332 31.4985 9.32692 31.376 9.1826 31.2633C8.36614 30.6287 7.27489 30.5872 6.50588 31.1842C5.75861 31.7634 5.47591 32.5503 5.67756 33.4636C5.87722 34.365 6.45646 34.9561 7.36781 35.1598C7.94309 35.2883 8.50848 35.2309 9.00073 34.8494C9.23598 34.6675 9.47716 34.3156 9.51472 34.0962C9.45344 34.0903 9.39413 34.0824 9.33483 34.0824C8.86235 34.0824 8.38789 34.0784 7.91541 34.0824C7.79877 34.0824 7.75726 34.0468 7.75923 33.9301C7.76516 33.6455 7.76516 33.3628 7.75923 33.0781C7.75726 32.9634 7.8047 32.9357 7.90948 32.9357C8.83467 32.9397 9.75986 32.9397 10.685 32.9397C10.776 32.9397 10.8294 32.9555 10.8392 33.0662C10.9539 34.3888 10.0089 36.0237 8.5322 36.2985C6.58298 36.6622 4.97378 35.6599 4.54875 33.7364C4.27791 32.5107 4.57444 31.4076 5.46207 30.5022C5.97211 29.9823 6.59879 29.6818 7.34211 29.6126C7.98855 29.5533 8.60732 29.6185 9.2083 29.8676C9.68869 30.0653 10.0544 30.4033 10.4063 30.7948H10.4083Z" fill="black"/>
<path d="M29.6416 33.9282C29.6475 33.857 29.6574 33.7858 29.6574 33.7166C29.6613 32.4593 29.6653 31.202 29.6594 29.9447C29.6594 29.7806 29.7088 29.7371 29.865 29.745C30.1219 29.7569 30.3809 29.751 30.6379 29.745C30.7427 29.745 30.8 29.7747 30.7862 29.8874C30.7862 29.8973 30.7862 29.9091 30.7862 29.919C30.7941 31.376 30.804 32.833 30.806 34.2899C30.806 34.8731 30.7901 35.4563 30.7882 36.0395C30.7882 36.164 30.7447 36.2036 30.6241 36.2036C30.3453 36.2036 30.0686 36.2253 29.7898 36.2174C29.7246 36.2174 29.6396 36.1462 29.6 36.083C28.8488 34.879 28.1035 33.6712 27.3563 32.4652C27.2653 32.317 27.1704 32.1707 27.0775 32.0224C27.0617 32.0264 27.0479 32.0323 27.0321 32.0363C27.0281 32.0956 27.0222 32.1549 27.0222 32.2142C27.0222 33.4814 27.0182 34.7505 27.0222 36.0177C27.0222 36.1601 26.9866 36.2135 26.8383 36.2075C26.5714 36.1957 26.3026 36.1976 26.0337 36.2016C25.9309 36.2016 25.8914 36.1561 25.8835 36.0652C25.8795 36.0138 25.8775 35.9604 25.8775 35.907C25.8775 33.9242 25.8775 31.9394 25.8775 29.9566C25.8775 29.8155 25.9461 29.745 26.0831 29.745C26.3144 29.745 26.5477 29.7549 26.777 29.7351C26.9332 29.7213 27.0143 29.7786 27.0914 29.9052C27.5105 30.5971 27.9375 31.285 28.3625 31.975C28.7361 32.5779 29.1098 33.1809 29.4854 33.7838C29.517 33.8352 29.5546 33.8847 29.5902 33.9341C29.606 33.9301 29.6218 33.9282 29.6376 33.9242L29.6416 33.9282Z" fill="black"/>
<path d="M14.5262 33.3568C14.9987 34.2978 15.4692 35.2329 15.9574 36.2055C15.8448 36.2055 15.7637 36.2055 15.6827 36.2055C15.4 36.2115 15.1153 36.2253 14.8326 36.2214C14.7753 36.2214 14.6922 36.168 14.6665 36.1186C14.2336 35.2784 13.8066 34.4342 13.3756 33.5941C13.3479 33.5407 13.2886 33.5071 13.2432 33.4636C13.2254 33.5249 13.1918 33.5862 13.1918 33.6474C13.1918 34.4263 13.1957 35.2033 13.1997 35.9822C13.1997 36.1364 13.1483 36.2194 12.9684 36.2075C12.7173 36.1917 12.4643 36.1937 12.2112 36.2016C12.0827 36.2055 12.0373 36.1581 12.0531 36.0375C12.0531 36.0276 12.0531 36.0158 12.0531 36.0059C12.0531 33.9855 12.0531 31.9671 12.0491 29.9467C12.0491 29.7905 12.0847 29.7371 12.2488 29.7411C12.7015 29.7529 13.1522 29.7391 13.6049 29.751C13.8619 29.7569 14.1189 29.7806 14.372 29.8241C14.971 29.9289 15.3545 30.2986 15.5561 30.86C15.7084 31.2831 15.7341 31.7219 15.6214 32.1608C15.4909 32.6708 15.1687 33.0287 14.6982 33.256C14.6606 33.2738 14.6211 33.2896 14.5835 33.3074C14.5697 33.3133 14.5598 33.3272 14.5262 33.3549V33.3568ZM13.5951 30.9134C13.5951 30.9134 13.5951 30.9213 13.5951 30.9252C13.5002 30.9252 13.4033 30.9134 13.3124 30.9312C13.2708 30.9391 13.2056 31.0004 13.2056 31.0379C13.1977 31.4116 13.1977 31.7832 13.2056 32.1569C13.2056 32.1964 13.2748 32.2676 13.3124 32.2676C13.5694 32.2676 13.8303 32.2774 14.0794 32.232C14.4333 32.1687 14.5538 32.0007 14.5756 31.6092C14.5934 31.285 14.372 31.0182 14.0656 30.9628C13.9114 30.9351 13.7532 30.9292 13.597 30.9134H13.5951Z" fill="black"/>
<path d="M16.9479 32.9575C16.9479 31.9532 16.9499 30.947 16.9439 29.9427C16.9439 29.7964 16.9736 29.743 17.1317 29.743C18.1301 29.7509 19.1304 29.7509 20.1287 29.747C20.2612 29.747 20.3027 29.7865 20.2987 29.917C20.2908 30.1898 20.2908 30.4646 20.2987 30.7374C20.3027 30.8778 20.2651 30.9292 20.1129 30.9272C19.502 30.9193 18.8932 30.9292 18.2823 30.9232C18.136 30.9232 18.0846 30.9747 18.0866 31.113C18.0905 31.3858 18.0945 31.6606 18.0866 31.9334C18.0826 32.0718 18.1281 32.1193 18.2665 32.1173C18.8773 32.1133 19.4862 32.1213 20.0971 32.1133C20.2572 32.1114 20.3086 32.1588 20.3007 32.3189C20.2869 32.5759 20.2908 32.8349 20.3007 33.0919C20.3066 33.2402 20.2612 33.2936 20.105 33.2916C19.5001 33.2837 18.8951 33.2955 18.2902 33.2876C18.134 33.2856 18.0905 33.343 18.0905 33.4853C18.0945 33.9479 18.0945 34.4105 18.0905 34.8751C18.0905 35.0016 18.1538 35.0214 18.2586 35.0214C18.8734 35.0194 19.4902 35.0253 20.105 35.0174C20.2572 35.0174 20.3086 35.0629 20.3027 35.2151C20.2928 35.4938 20.2967 35.7726 20.3027 36.0513C20.3027 36.1581 20.273 36.1996 20.1584 36.1996C19.1383 36.1996 18.1182 36.1996 17.0981 36.2075C16.9597 36.2075 16.9479 36.1462 16.9479 36.0335C16.9499 35.0075 16.9479 33.9815 16.9479 32.9555V32.9575Z" fill="black"/>
<path d="M21.4275 32.9713C21.4275 31.9572 21.4295 30.9411 21.4256 29.9269C21.4256 29.7925 21.4552 29.745 21.5995 29.745C22.5939 29.751 23.5863 29.7529 24.5807 29.745C24.725 29.745 24.7606 29.7925 24.7566 29.9249C24.7487 30.1977 24.7448 30.4725 24.7566 30.7453C24.7626 30.8995 24.7033 30.9272 24.5649 30.9272C23.9817 30.9213 23.3985 30.9272 22.8133 30.9272C22.5781 30.9272 22.5741 30.9272 22.5722 31.1565C22.5682 31.4234 22.5781 31.6903 22.5702 31.9572C22.5662 32.0857 22.6196 32.1193 22.7382 32.1193C23.3432 32.1153 23.9481 32.1232 24.553 32.1153C24.7112 32.1134 24.7645 32.1588 24.7586 32.3209C24.7468 32.5937 24.7487 32.8685 24.7566 33.1413C24.7586 33.26 24.7191 33.2955 24.6024 33.2936C23.9936 33.2896 23.3827 33.2975 22.7718 33.2916C22.6255 33.2916 22.5682 33.3232 22.5702 33.4814C22.5781 33.942 22.5761 34.4046 22.5702 34.8672C22.5702 34.9957 22.6176 35.0273 22.7362 35.0273C23.3471 35.0234 23.956 35.0293 24.5669 35.0253C24.7072 35.0253 24.7645 35.0629 24.7586 35.2131C24.7487 35.4919 24.7507 35.7706 24.7586 36.0494C24.7606 36.1621 24.7309 36.2075 24.6084 36.2055C23.5982 36.2016 22.59 36.2016 21.5798 36.2055C21.4414 36.2055 21.4275 36.1462 21.4275 36.0355C21.4295 35.0154 21.4275 33.9954 21.4275 32.9753V32.9713Z" fill="black"/>
<path d="M30.3612 40.873C30.1417 40.873 29.944 40.873 29.7463 40.873C29.5783 40.873 29.4103 40.8691 29.2422 40.873C29.1434 40.875 29.0959 40.8414 29.0979 40.7386C29.1019 40.5607 29.0979 40.3808 29.0979 40.2028C29.0979 40.1099 29.1315 40.0388 29.2442 40.0388C29.9262 40.0388 30.6102 40.0388 31.3061 40.0388C31.3457 40.3847 31.32 40.7129 31.2033 41.0351C30.8653 41.9722 30.1121 42.5218 29.1572 42.5277C28.1095 42.5336 27.2871 41.9722 26.9213 40.9976C26.4884 39.849 26.8779 38.6174 27.8782 37.9769C28.2854 37.7159 28.7401 37.6408 29.2165 37.6526C29.7266 37.6645 30.1911 37.797 30.5944 38.1152C30.713 38.2101 30.8178 38.3208 30.9325 38.4217C31.0096 38.4889 31.0096 38.5422 30.9345 38.6154C30.7941 38.7498 30.6577 38.8902 30.5292 39.0345C30.4481 39.1254 30.3948 39.1116 30.3157 39.0286C29.8867 38.5877 29.3608 38.4098 28.7658 38.5462C28.1648 38.6826 27.7951 39.0898 27.6469 39.6849C27.4274 40.5646 27.9533 41.4285 28.8211 41.6341C29.4379 41.7804 30.029 41.5353 30.3018 41.0173C30.3196 40.9817 30.3315 40.9422 30.3592 40.875L30.3612 40.873Z" fill="black"/>
<path d="M21.0756 46.5882V43.6782H21.902V48.2904C21.6509 48.2904 21.3959 48.2943 21.1409 48.2864C21.1073 48.2864 21.0717 48.2291 21.046 48.1915C20.4964 47.3197 19.9488 46.4479 19.3992 45.578C19.3518 45.5029 19.3024 45.4318 19.2154 45.3665V48.2904C18.9465 48.2904 18.7014 48.2943 18.4582 48.2844C18.4305 48.2844 18.389 48.2034 18.3871 48.1579C18.3752 47.9009 18.3673 47.6439 18.3673 47.3849C18.3673 46.2067 18.3673 45.0285 18.3633 43.8502C18.3633 43.7119 18.391 43.6407 18.5452 43.6624C18.6282 43.6743 18.7152 43.6782 18.7963 43.6624C19.075 43.611 19.2272 43.7395 19.3696 43.9728C19.8658 44.7952 20.3857 45.6057 20.8957 46.4202C20.9353 46.4854 20.9827 46.5448 21.0262 46.608C21.042 46.6021 21.0579 46.5961 21.0737 46.5902L21.0756 46.5882Z" fill="black"/>
<path d="M25.1145 40.6911V37.7653C25.3715 37.7653 25.6067 37.7594 25.842 37.7712C25.8756 37.7712 25.9289 37.8503 25.9309 37.8958C25.9448 38.1053 25.9507 38.3149 25.9507 38.5264C25.9507 39.5623 25.9507 40.5982 25.9507 41.6341C25.9507 41.8437 25.9368 42.0552 25.9368 42.2647C25.9368 42.3675 25.8934 42.409 25.7945 42.4031C25.7846 42.4031 25.7728 42.4031 25.7629 42.4031C25.5632 42.3992 25.3299 42.4585 25.1738 42.3735C25.0176 42.2904 24.9326 42.069 24.8278 41.901C24.3494 41.1399 23.8769 40.3768 23.4005 39.6137C23.3689 39.5623 23.3293 39.5149 23.2542 39.4714C23.2502 39.5287 23.2443 39.588 23.2443 39.6453C23.2443 40.5033 23.2404 41.3593 23.2483 42.2173C23.2483 42.3675 23.1969 42.411 23.0585 42.4031C22.8964 42.3952 22.7323 42.3992 22.5702 42.4031C22.4753 42.4031 22.4199 42.3735 22.4199 42.2707C22.4199 42.2035 22.4101 42.1343 22.4101 42.067C22.4101 40.6891 22.4101 39.3112 22.4061 37.9333C22.4061 37.8029 22.4417 37.7495 22.5741 37.7614C22.667 37.7693 22.7659 37.7791 22.8568 37.7614C23.1277 37.704 23.2661 37.8325 23.4005 38.0579C23.8987 38.8862 24.4225 39.6987 24.9365 40.5191C24.978 40.5844 25.0235 40.6457 25.067 40.7089L25.1184 40.6951L25.1145 40.6911Z" fill="black"/>
<path d="M11.4501 43.5398C12.2567 43.5418 12.8952 43.9668 13.3183 44.6924C13.9252 45.7283 13.7552 47.0963 12.7608 47.9325C12.4643 48.1816 12.1143 48.3081 11.7368 48.3872C11.0923 48.5216 10.5269 48.3279 10.0287 47.9503C9.53054 47.5727 9.2261 47.0587 9.12923 46.4301C8.97898 45.4535 9.25179 44.6311 10.0248 44.0005C10.4162 43.6802 10.8768 43.5339 11.4481 43.5379L11.4501 43.5398ZM12.8241 45.8943C12.7944 45.7698 12.7667 45.5306 12.6817 45.3151C12.2725 44.2772 10.9757 44.0736 10.2798 44.9256C9.86266 45.4337 9.84289 46.2344 10.1117 46.7582C10.5289 47.5727 11.5173 47.808 12.2112 47.2683C12.6185 46.952 12.7984 46.5151 12.8241 45.8943Z" fill="black"/>
<path d="M16.4141 42.3774C16.4121 42.3201 16.4082 42.2786 16.4082 42.2371C16.4082 40.7959 16.4082 39.3547 16.4042 37.9136C16.4042 37.789 16.4418 37.7436 16.5644 37.7475C17.027 37.7633 17.4876 37.7693 17.9502 37.791C18.9386 37.8345 19.5277 38.3623 19.8025 39.3449C19.9824 39.9873 19.9587 40.6397 19.6898 41.2585C19.3854 41.9603 18.8437 42.3577 18.0668 42.3834C17.5469 42.4011 17.027 42.3893 16.507 42.3893C16.4813 42.3893 16.4556 42.3834 16.4161 42.3774H16.4141ZM17.2424 41.5017C17.5587 41.5017 17.8454 41.5214 18.1301 41.4977C18.5393 41.4641 18.7864 41.2071 18.9347 40.8374C19.0553 40.531 19.0889 40.2107 19.0533 39.8925C18.9722 39.1788 18.6342 38.7953 18.0174 38.6786C17.8177 38.6411 17.6101 38.649 17.4065 38.6292C17.2701 38.6154 17.2385 38.6727 17.2405 38.7992C17.2444 39.5564 17.2424 40.3135 17.2424 41.0707C17.2424 41.217 17.2424 41.3613 17.2424 41.5036V41.5017Z" fill="black"/>
<path d="M6.54937 39.8529C6.61066 39.8944 6.66403 39.928 6.71543 39.9616C7.2057 40.2878 7.40537 40.8394 7.24524 41.4226C7.09104 41.986 6.62252 42.3695 6.04328 42.3873C5.60244 42.4011 5.15961 42.3932 4.71876 42.4011C4.5784 42.4031 4.53293 42.3577 4.53293 42.2114C4.53491 40.7979 4.52898 39.3824 4.527 37.9689C4.527 37.7594 4.527 37.7534 4.7326 37.7614C5.1517 37.7772 5.57278 37.7772 5.98793 37.8305C6.43076 37.8879 6.76288 38.137 6.89928 38.5739C7.03371 39.0068 6.97638 39.416 6.6324 39.7501C6.60275 39.7778 6.581 39.8134 6.54937 39.8529ZM5.35928 40.9521C5.35928 41.1043 5.36125 41.2565 5.35928 41.4087C5.3573 41.5056 5.39288 41.557 5.49568 41.5511C5.66174 41.5392 5.83176 41.5432 5.99584 41.5175C6.28842 41.472 6.43273 41.3237 6.46041 41.0648C6.48809 40.8157 6.33389 40.5429 6.08875 40.4717C5.89106 40.4144 5.67756 40.4005 5.46998 40.3808C5.43638 40.3788 5.36916 40.4519 5.36521 40.4954C5.35137 40.6457 5.35928 40.7999 5.35928 40.9521ZM5.35928 39.0463C5.35532 39.1037 5.35137 39.1412 5.34939 39.1768C5.33753 39.6019 5.51347 39.7066 5.89699 39.507C6.09271 39.4061 6.18958 39.1926 6.13818 38.9772C6.07887 38.7221 5.67953 38.5146 5.43044 38.6174C5.39486 38.6312 5.36521 38.6945 5.36125 38.7379C5.35137 38.8467 5.3573 38.9574 5.3573 39.0463H5.35928Z" fill="black"/>
<path d="M26.3184 45.0818C26.267 45.0087 26.2255 44.9257 26.1622 44.8644C25.5375 44.2654 24.642 44.2239 24.043 44.7853C23.5745 45.2242 23.44 45.7817 23.5903 46.4004C23.7247 46.954 24.0568 47.3414 24.6123 47.4937C25.1995 47.6558 25.7233 47.5115 26.1662 47.0864C26.2116 47.0429 26.2492 46.9876 26.3026 46.9559C26.3362 46.9362 26.4113 46.9322 26.4331 46.9559C26.6031 47.1339 26.7632 47.3217 26.9391 47.5174C26.613 47.8633 26.2611 48.1559 25.8024 48.3081C24.7507 48.6561 23.6377 48.237 23.1079 47.4423C22.7857 46.9579 22.671 46.4222 22.6947 45.8528C22.7323 44.9553 23.1217 44.2594 23.9204 43.8226C24.9504 43.2611 26.1523 43.5478 26.8897 44.3978C26.9134 44.4255 26.9055 44.5184 26.8779 44.5501C26.7276 44.724 26.5635 44.8901 26.4054 45.0581C26.3757 45.066 26.348 45.0739 26.3184 45.0799V45.0818Z" fill="black"/>
<path d="M8.01228 46.9203C8.16648 47.0844 8.33254 47.2624 8.4986 47.4363C8.56383 47.5055 8.53418 47.5569 8.47883 47.6103C8.06368 48.0136 7.60108 48.3002 7.00801 48.3951C6.1362 48.5375 5.126 48.1085 4.68318 47.3691C4.05452 46.3174 4.12569 44.5026 5.64 43.7613C6.4525 43.3639 7.57736 43.4786 8.31672 44.1922C8.40371 44.2753 8.48278 44.3662 8.57965 44.467C8.37603 44.6607 8.18427 44.8446 7.97472 45.0423C7.54968 44.5639 7.0179 44.3148 6.35959 44.4176C6.00177 44.4729 5.7171 44.6687 5.49371 44.9514C5.00739 45.5662 5.05088 46.5526 5.59057 47.1121C5.80408 47.3335 6.06503 47.4739 6.36947 47.5273C6.67589 47.5806 6.98627 47.5787 7.26106 47.4304C7.52003 47.288 7.75331 47.0963 8.0103 46.9184L8.01228 46.9203Z" fill="black"/>
<path d="M8.892 37.7633C8.892 37.9749 8.892 38.1627 8.892 38.3505C8.89003 39.161 8.88607 39.9715 8.88409 40.7801C8.88409 40.8691 8.90189 40.958 8.90386 41.047C8.91177 41.4957 9.21028 41.6638 9.54833 41.6598C9.92988 41.6559 10.1809 41.3929 10.1869 40.9877C10.1948 40.4401 10.1869 39.8925 10.1908 39.3468C10.1928 38.8684 10.2047 38.39 10.2047 37.9116C10.2047 37.793 10.2462 37.7554 10.3608 37.7614C10.5743 37.7693 10.7898 37.7633 11.0369 37.7633C11.0369 38.0856 11.0369 38.388 11.0369 38.6905C11.033 39.4892 11.0369 40.2898 11.0211 41.0885C11.0073 41.818 10.5486 42.3755 9.84092 42.496C8.86433 42.6621 8.14473 42.0572 8.10124 41.2565C8.07752 40.8374 8.05182 40.4183 8.04787 39.9972C8.03996 39.3231 8.04589 38.651 8.04787 37.9768C8.04787 37.7673 8.04787 37.7653 8.25742 37.7633C8.45708 37.7614 8.65675 37.7633 8.89398 37.7633H8.892Z" fill="black"/>
<path d="M14.4036 43.6743H15.2576C15.2576 43.9511 15.2576 44.2179 15.2576 44.4848C15.2576 45.2064 15.2537 45.926 15.2556 46.6475C15.2556 46.784 15.2675 46.9204 15.2873 47.0548C15.3288 47.3454 15.5601 47.5451 15.8487 47.553C16.2144 47.5609 16.4833 47.3849 16.5307 47.0785C16.5624 46.8828 16.5624 46.6812 16.5624 46.4815C16.5663 45.5879 16.5644 44.6924 16.5644 43.7988C16.5644 43.7632 16.5703 43.7277 16.5742 43.6782H17.3966C17.3966 43.7356 17.3966 43.7929 17.3966 43.8483C17.3966 44.8268 17.4006 45.8054 17.3966 46.784C17.3966 47.2426 17.3116 47.6795 16.9597 48.0096C16.5802 48.3675 16.1275 48.5157 15.6135 48.3833C15.4138 48.3319 15.2141 48.2528 15.0382 48.148C14.6487 47.9167 14.4688 47.5312 14.455 47.1022C14.4194 45.9675 14.4155 44.8328 14.3996 43.6763L14.4036 43.6743Z" fill="black"/>
<path d="M14.5104 25.8051C14.3245 25.5876 14.0913 25.4334 13.8066 25.3603C13.0633 25.1685 12.3555 25.7141 12.314 26.4832C12.2804 27.0742 12.7213 27.6732 13.2787 27.7701C13.6781 27.8393 14.0576 27.7899 14.3364 27.4439C14.37 27.4024 14.3957 27.3569 14.4214 27.3115C14.4372 27.2858 14.4431 27.2541 14.4669 27.1909C14.2929 27.1909 14.1367 27.179 13.9845 27.1929C13.51 27.2344 13.5021 27.2324 13.5041 26.7619C13.5041 26.5286 13.5041 26.5266 13.7413 26.5266C14.1822 26.5266 14.625 26.5266 15.0659 26.5266C15.1113 26.5266 15.1588 26.5326 15.2023 26.5345C15.3308 27.1612 14.9314 28.1872 13.9687 28.4166C12.9763 28.6518 11.9997 28.1378 11.7209 27.0999C11.4481 26.0858 11.9463 25.1982 12.6679 24.8324C13.2629 24.5319 14.3265 24.5596 14.9117 25.2496C14.9393 25.2832 14.9611 25.3702 14.9413 25.3899C14.8089 25.5303 14.6646 25.6608 14.5104 25.8051Z" fill="black"/>
<path d="M10.3727 27.0307V24.7652H11.0172V28.373C10.8274 28.373 10.6435 28.3829 10.4636 28.3671C10.4063 28.3612 10.343 28.29 10.3075 28.2347C9.88836 27.5724 9.47518 26.9082 9.06004 26.2459C9.03038 26.1985 8.99677 26.153 8.96514 26.1075C8.95131 26.1095 8.93747 26.1134 8.92363 26.1154V28.3612H8.27521C8.27125 28.3058 8.2673 28.2564 8.2673 28.205C8.2673 27.1118 8.26927 26.0166 8.26334 24.9234C8.26334 24.781 8.31672 24.7612 8.44127 24.7395C8.76548 24.6841 8.94933 24.8047 9.11341 25.0934C9.47123 25.722 9.87452 26.327 10.26 26.9398C10.2837 26.9774 10.3134 27.009 10.3411 27.0426L10.3727 27.0307Z" fill="black"/>
<path d="M21.8842 26.5523C21.8941 25.4057 22.7817 24.5695 23.9006 24.6624C24.6183 24.7217 25.3378 25.4393 25.4466 26.1965C25.5336 26.8014 25.4387 27.3629 25.0314 27.8353C24.5491 28.3948 23.9283 28.6024 23.2166 28.4086C22.4931 28.2129 22.0997 27.6831 21.9316 26.9734C21.9 26.837 21.898 26.6927 21.8822 26.5523H21.8842ZM23.6832 25.3385C23.189 25.3385 22.8035 25.6074 22.6414 26.0739C22.5583 26.3151 22.5366 26.5602 22.5722 26.8172C22.673 27.5507 23.4637 27.9974 24.1379 27.693C24.6459 27.4617 24.9267 26.8469 24.7843 26.2775C24.638 25.6884 24.2288 25.3385 23.6832 25.3385Z" fill="black"/>
<path d="M27.554 26.7777C27.8208 27.3095 28.0798 27.8274 28.3546 28.3731C28.1134 28.3731 27.9058 28.379 27.6963 28.3671C27.6548 28.3652 27.6034 28.3059 27.5816 28.2604C27.3582 27.8255 27.1428 27.3886 26.9213 26.9517C26.9016 26.9121 26.8739 26.8785 26.8502 26.841C26.8324 26.8449 26.8146 26.8469 26.7968 26.8509V28.3671C26.5793 28.3671 26.3975 28.3711 26.2176 28.3612C26.1919 28.3612 26.1504 28.29 26.1484 28.2485C26.1365 28.0449 26.1306 27.8393 26.1286 27.6337C26.1286 26.7915 26.1286 25.9494 26.1286 25.1092C26.1286 25.0716 26.1286 25.0361 26.1286 24.9985C26.1365 24.7514 26.1365 24.7474 26.3876 24.7514C26.7177 24.7553 27.0518 24.7415 27.378 24.781C28.0343 24.8581 28.2478 25.4433 28.1826 25.9632C28.1411 26.2934 27.981 26.5444 27.6765 26.6947C27.639 26.7125 27.6073 26.7401 27.554 26.7738V26.7777ZM26.7869 25.7912C26.7869 26.0654 26.9227 26.184 27.1942 26.1471C27.4373 26.1154 27.552 26.0008 27.55 25.7893C27.55 25.5738 27.4353 25.4611 27.1942 25.4314C26.9227 25.3985 26.7869 25.5178 26.7869 25.7893V25.7912Z" fill="black"/>
<path d="M18.8714 28.3711C18.6559 28.3711 18.4721 28.377 18.2882 28.3671C18.2408 28.3651 18.1755 28.3137 18.1558 28.2703C18.0826 28.1022 18.0213 27.9282 17.966 27.7543C17.9383 27.6653 17.8928 27.6278 17.7979 27.6278C17.4184 27.6317 17.0408 27.6317 16.6612 27.6278C16.5624 27.6278 16.507 27.6633 16.4754 27.7582C16.422 27.9223 16.3509 28.0824 16.2955 28.2446C16.2639 28.3375 16.2164 28.379 16.1136 28.3731C15.9416 28.3651 15.7677 28.3711 15.57 28.3711C15.5878 28.2979 15.5996 28.2406 15.6194 28.1852C16.0207 27.092 16.424 25.9988 16.8233 24.9056C16.8629 24.7968 16.9202 24.7553 17.0368 24.7474C17.539 24.7178 17.5409 24.7138 17.709 25.1724C18.0727 26.1629 18.4365 27.1533 18.7983 28.1437C18.824 28.2109 18.8417 28.2821 18.8694 28.3711H18.8714ZM17.2424 25.7892C17.2266 25.7892 17.2088 25.7892 17.193 25.7892C17.0546 26.1708 16.9162 26.5523 16.7719 26.9477H17.6734C17.5232 26.5464 17.3828 26.1688 17.2424 25.7912V25.7892Z" fill="black"/>
<path d="M13.7117 42.4012C13.7117 42.2331 13.7117 42.0987 13.7117 41.9623C13.7117 40.6318 13.7117 39.3014 13.7117 37.969C13.7117 37.7673 13.7117 37.7653 13.9212 37.7614C14.115 37.7594 14.3087 37.7614 14.54 37.7614V41.5531H15.3604C15.6359 41.5531 15.7736 41.6908 15.7736 41.9662C15.7736 42.3853 15.7736 42.3933 15.3584 42.3992C14.8227 42.4071 14.287 42.3992 13.7117 42.3992V42.4012Z" fill="black"/>
<path d="M29.5328 27.695C29.8234 27.695 30.0903 27.695 30.3552 27.695C30.628 27.695 30.7644 27.8301 30.7644 28.1002C30.7644 28.1319 30.7605 28.1635 30.7644 28.1951C30.7803 28.3296 30.7289 28.377 30.5885 28.375C30.0271 28.3671 29.4656 28.3711 28.8864 28.3711C28.8824 28.3118 28.8785 28.2604 28.8785 28.211C28.8785 27.1237 28.8785 26.0344 28.8726 24.9471C28.8726 24.7929 28.918 24.7494 29.0663 24.7514C29.5763 24.7593 30.0844 24.7573 30.5944 24.7514C30.719 24.7514 30.7822 24.787 30.7684 24.9194C30.7605 24.9926 30.7684 25.0657 30.7684 25.1408C30.7684 25.4097 30.7684 25.4117 30.4916 25.4156C30.2228 25.4176 29.9559 25.4196 29.687 25.4156C29.5823 25.4156 29.5427 25.4512 29.5328 25.5599C29.4854 26.0719 29.4834 26.07 29.9816 26.07C30.1971 26.07 30.4106 26.0719 30.6261 26.07C30.7249 26.07 30.7704 26.1115 30.7684 26.2103C30.7664 26.3408 30.7684 26.4733 30.7684 26.6037C30.7684 26.6927 30.7348 26.7342 30.6359 26.7322C30.3374 26.7283 30.0369 26.7382 29.7384 26.7283C29.6001 26.7243 29.5328 26.7599 29.5368 26.9082C29.5427 27.1632 29.5368 27.4202 29.5368 27.693L29.5328 27.695Z" fill="black"/>
<path d="M30.2129 43.6644C30.2188 43.787 30.2267 43.8917 30.2267 43.9945C30.2267 45.0364 30.2267 46.0782 30.2267 47.12C30.2267 47.3441 30.3374 47.4561 30.5588 47.4561C30.8119 47.4561 31.063 47.46 31.316 47.4541C31.4227 47.4521 31.4722 47.4897 31.4722 47.5945C31.4722 47.7843 31.4722 47.974 31.4722 48.1618C31.4722 48.235 31.4484 48.2903 31.3536 48.2903C30.7229 48.2864 30.0923 48.2864 29.4617 48.2844C29.4518 48.2844 29.4439 48.2765 29.4083 48.2627C29.4083 48.065 29.4083 47.8554 29.4083 47.6479C29.4063 46.3688 29.4043 45.0917 29.4004 43.8127C29.4004 43.7138 29.4221 43.6565 29.5407 43.6604C29.7602 43.6683 29.9796 43.6624 30.2149 43.6624L30.2129 43.6644Z" fill="black"/>
<path d="M4.12964 27.6752C4.27 27.5823 4.41036 27.4973 4.54084 27.4004C4.64166 27.3253 4.70294 27.3371 4.76225 27.4498C4.84726 27.6119 4.96785 27.7424 5.1517 27.7938C5.30788 27.8373 5.48777 27.774 5.58267 27.6416C5.67163 27.517 5.67756 27.3727 5.55894 27.2363C5.40672 27.0643 5.2288 26.9141 5.06669 26.748C4.85714 26.5345 4.61991 26.3408 4.45188 26.0976C4.07034 25.554 4.33919 24.8561 4.97773 24.6841C5.23473 24.615 5.49568 24.6327 5.72105 24.783C5.90688 24.9075 6.06898 25.0637 6.25679 25.2199C6.07491 25.3939 5.92072 25.5401 5.75663 25.6983C5.70523 25.639 5.66767 25.5797 5.61627 25.5401C5.51743 25.467 5.41858 25.382 5.30392 25.3425C5.17147 25.297 5.04297 25.3425 4.96785 25.4749C4.89668 25.6014 4.96192 25.7062 5.04495 25.7853C5.29997 26.0265 5.56685 26.2578 5.82582 26.495C6.1876 26.8251 6.38133 27.2166 6.2647 27.7187C6.16783 28.1358 5.80408 28.4383 5.37509 28.464C4.77411 28.5015 4.39257 28.2623 4.12964 27.6732V27.6752Z" fill="black"/>
<path d="M20.02 28.3612H19.3814V24.7612C19.848 24.7514 20.3086 24.696 20.7613 24.8146C21.2437 24.9392 21.4849 25.4037 21.4295 25.9237C21.3643 26.5246 20.9491 26.7955 20.3995 26.8232C20.0259 26.8409 20.0239 26.837 20.02 27.2087C20.018 27.5862 20.02 27.9638 20.02 28.3612ZM20.0259 26.1431C20.2019 26.1431 20.36 26.1569 20.5122 26.1391C20.6862 26.1194 20.787 25.9889 20.7929 25.8149C20.8009 25.635 20.7198 25.5046 20.5478 25.463C20.4134 25.4314 20.2691 25.4275 20.1307 25.4235C20.0971 25.4235 20.0318 25.4769 20.0318 25.5085C20.022 25.7161 20.0279 25.9237 20.0279 26.1411L20.0259 26.1431Z" fill="black"/>
<path d="M21.4631 42.3932C21.2219 42.3932 20.9906 42.3932 20.7613 42.3932C20.6625 42.3932 20.6565 42.328 20.6546 42.2549C20.6486 42.0137 20.6388 41.7725 20.6388 41.5293C20.6388 40.3412 20.6387 39.1531 20.6348 37.965C20.6348 37.8088 20.6743 37.7495 20.8384 37.7594C21.042 37.7732 21.2457 37.7633 21.4631 37.7633V42.3932Z" fill="black"/>
<path d="M28.4495 48.2864H27.6508C27.6449 48.1539 27.633 48.0254 27.6311 47.895C27.6251 46.9381 27.6192 45.9833 27.6133 45.0265C27.6133 44.6647 27.6133 44.3029 27.6133 43.9412C27.6133 43.6624 27.6172 43.6624 27.8881 43.6624C28.066 43.6624 28.2439 43.6624 28.4475 43.6624V48.2864H28.4495Z" fill="black"/>
<path d="M12.7746 37.7614V38.5284C12.7746 39.6533 12.7746 40.7801 12.7746 41.9049C12.7746 42.0315 12.7746 42.158 12.7608 42.2825C12.7568 42.3221 12.7035 42.3873 12.6699 42.3893C12.4405 42.3992 12.2112 42.3932 11.9681 42.3932C11.9621 42.3181 11.9562 42.2628 11.9562 42.2074C11.9522 40.7939 11.9522 39.3785 11.9424 37.965C11.9424 37.8088 11.9819 37.7495 12.146 37.7594C12.3437 37.7732 12.5433 37.7633 12.7766 37.7633L12.7746 37.7614Z" fill="black"/>
<path d="M9.74998 51.0402C10.1631 51.8745 10.5783 52.7107 11.0132 53.5884C11.4462 52.7107 11.8593 51.8705 12.2725 51.0303L12.312 51.0402C12.4583 52.0544 12.6046 53.0705 12.7489 54.0827C12.5038 54.1558 12.4682 54.1281 12.4326 53.8613C12.3496 53.2425 12.2626 52.6237 12.1776 52.0049C12.1756 51.9852 12.1677 51.9674 12.146 51.8982C11.7644 52.6652 11.4046 53.3908 11.0429 54.1183C11.0231 54.1183 11.0033 54.1202 10.9816 54.1222C10.6159 53.3908 10.2501 52.6573 9.88441 51.9259C9.87254 51.9259 9.85871 51.9259 9.84684 51.9259C9.82905 52.0326 9.80731 52.1413 9.79347 52.2481C9.71637 52.8194 9.64125 53.3927 9.56415 53.9641C9.5424 54.1242 9.49891 54.142 9.26761 54.0846C9.41193 53.0725 9.55624 52.0603 9.70253 51.0461C9.71835 51.0461 9.73416 51.0422 9.74998 51.0402Z" fill="black"/>
<path d="M16.0642 51.0383C16.4794 51.8745 16.8925 52.7087 17.3294 53.5885C17.7604 52.7107 18.1736 51.8725 18.5848 51.0343C18.5986 51.0343 18.6124 51.0343 18.6263 51.0363C18.7726 52.0524 18.9188 53.0685 19.0651 54.0827C18.8279 54.1479 18.7943 54.1321 18.7627 53.9226C18.6698 53.2801 18.5808 52.6356 18.4899 51.9911C18.4879 51.9753 18.48 51.9615 18.4661 51.916C18.4306 51.9753 18.4009 52.0148 18.3811 52.0564C18.0648 52.6969 17.7485 53.3374 17.4302 53.9759C17.4065 54.0234 17.361 54.0609 17.3274 54.1025C17.2938 54.059 17.2484 54.0214 17.2246 53.974C16.9103 53.3453 16.598 52.7147 16.2836 52.084C16.256 52.0287 16.2283 51.9753 16.1611 51.9239C16.1334 52.1117 16.1037 52.2995 16.078 52.4873C16.0108 52.9816 15.9456 53.4758 15.8823 53.968C15.8586 54.1598 15.7301 54.1104 15.5818 54.0965C15.7281 53.0725 15.8724 52.0564 16.0187 51.0402C16.0345 51.0402 16.0484 51.0402 16.0642 51.0383Z" fill="black"/>
<path d="M20.9353 52.428C20.9788 52.4517 21.0144 52.4735 21.0499 52.4893C21.4117 52.6573 21.6134 52.9914 21.556 53.3275C21.4849 53.7545 21.1824 54.0669 20.7791 54.0965C20.4648 54.1183 20.1485 54.1123 19.8342 54.1084C19.7946 54.1084 19.7234 54.0412 19.7234 54.0056C19.7195 53.027 19.7234 52.0504 19.7234 51.0719C19.7234 51.062 19.7314 51.0541 19.7531 51.0066C20.0813 51.0264 20.4272 51.0244 20.7653 51.0758C21.0401 51.1173 21.214 51.315 21.2812 51.5898C21.3544 51.8824 21.2733 52.1275 21.0499 52.3292C21.0302 52.347 21.0084 52.3608 20.9887 52.3786C20.9728 52.3924 20.959 52.4063 20.9333 52.43L20.9353 52.428ZM19.9923 53.2168C19.9923 53.3789 19.9923 53.543 19.9923 53.7051C19.9923 53.7842 20.0101 53.8375 20.105 53.8336C20.3185 53.8217 20.536 53.8296 20.7475 53.802C21.042 53.7604 21.2417 53.541 21.2615 53.2702C21.2812 53.027 21.1093 52.7601 20.8364 52.6949C20.5893 52.6376 20.3284 52.6395 20.0734 52.6257C20.0477 52.6257 19.9982 52.7028 19.9943 52.7443C19.9844 52.9005 19.9903 53.0587 19.9903 53.2168H19.9923ZM19.9923 51.8073C19.9923 51.9397 19.9864 52.0702 19.9963 52.2007C19.9982 52.2402 20.0437 52.3134 20.0654 52.3114C20.279 52.2975 20.4984 52.2975 20.7 52.2402C20.8997 52.1849 21.0282 51.9338 21.0084 51.7381C20.9887 51.5265 20.8542 51.3664 20.6308 51.3328C20.4549 51.3051 20.275 51.3071 20.0971 51.3111C20.0615 51.3111 20.0022 51.3842 19.9963 51.4277C19.9824 51.5522 19.9923 51.6788 19.9923 51.8053V51.8073Z" fill="black"/>
<path d="M25.3912 52.6791C25.7649 53.1634 26.1167 53.6201 26.4706 54.0767C26.2512 54.1558 26.1504 54.1262 26.0199 53.9601C25.7174 53.5687 25.413 53.1812 25.1145 52.7878C25.0453 52.6988 24.9761 52.6494 24.8456 52.6969C24.8416 52.7542 24.8318 52.8194 24.8318 52.8866C24.8318 53.2543 24.8278 53.622 24.8318 53.9898C24.8318 54.1024 24.7665 54.1143 24.6795 54.1143C24.5886 54.1143 24.5471 54.0866 24.5471 53.9878C24.5491 53.031 24.5471 52.0741 24.5491 51.1173C24.5491 51.0916 24.557 51.0679 24.5649 51.0027C25.0057 51.0244 25.4486 51.0125 25.8795 51.0778C26.2966 51.143 26.4983 51.5008 26.4588 51.9713C26.4291 52.3272 26.1247 52.6079 25.7214 52.6474C25.6245 52.6573 25.5257 52.6652 25.3932 52.6791H25.3912ZM24.8337 52.3726C25.1342 52.3726 25.413 52.3944 25.6878 52.3667C25.9902 52.3371 26.1602 52.1295 26.1622 51.8547C26.1642 51.5819 26.0041 51.3605 25.7411 51.3328C25.4762 51.3031 25.2074 51.3111 24.9405 51.3111C24.9049 51.3111 24.8416 51.3664 24.8397 51.3961C24.8318 51.7203 24.8357 52.0445 24.8357 52.3746L24.8337 52.3726Z" fill="black"/>
<path d="M7.52003 28.3632H6.8637C6.8637 28.2011 6.8637 28.0409 6.8637 27.8808C6.8637 26.9022 6.86765 25.9237 6.85975 24.9471C6.85975 24.7949 6.90917 24.7494 7.05546 24.7435C7.50421 24.7257 7.52003 24.7336 7.52003 25.1764C7.52003 26.1807 7.52003 27.1849 7.52003 28.1892C7.52003 28.2406 7.52003 28.294 7.52003 28.3632Z" fill="black"/>
<path d="M15.1469 51.0244C15.1654 51.2102 15.0909 51.3032 14.9235 51.3032C14.5657 51.3032 14.2079 51.3071 13.8501 51.3032C13.7235 51.3012 13.6702 51.3407 13.6761 51.4751C13.686 51.6966 13.686 51.918 13.6761 52.1374C13.6702 52.2718 13.7235 52.3094 13.8501 52.3074C14.2178 52.3015 14.5855 52.3074 14.9552 52.3054C15.054 52.3054 15.141 52.2975 15.143 52.4438C15.1449 52.5901 15.0659 52.5862 14.9631 52.5862C14.5954 52.5842 14.2277 52.5901 13.86 52.5822C13.7255 52.5802 13.6721 52.6119 13.6761 52.7562C13.686 53.0606 13.684 53.367 13.6761 53.6715C13.6741 53.7921 13.7097 53.8375 13.8362 53.8356C14.2197 53.8277 14.6033 53.8356 14.9868 53.8316C15.0896 53.8316 15.141 53.8514 15.141 53.968C15.141 54.0787 15.0975 54.1143 14.9907 54.1143C14.5064 54.1104 14.024 54.1104 13.5397 54.1143C13.431 54.1143 13.3914 54.0748 13.3914 53.966C13.3934 53.029 13.3914 52.0939 13.3974 51.1569C13.3974 51.1114 13.4527 51.0303 13.4824 51.0284C14.0339 51.0205 14.5835 51.0224 15.143 51.0224L15.1469 51.0244Z" fill="black"/>
<path d="M23.952 51.0244C23.9705 51.2102 23.896 51.3032 23.7286 51.3032C23.3708 51.3032 23.013 51.3071 22.6552 51.3032C22.5287 51.3012 22.4773 51.3407 22.4812 51.4752C22.4911 51.6966 22.4911 51.918 22.4812 52.1374C22.4753 52.2718 22.5287 52.3094 22.6552 52.3074C23.0229 52.3015 23.3906 52.3074 23.7603 52.3074C23.8591 52.3074 23.9461 52.2995 23.9481 52.4478C23.9501 52.5941 23.871 52.5901 23.7682 52.5901C23.3946 52.5881 23.0209 52.5921 22.6493 52.5862C22.5306 52.5862 22.4792 52.6158 22.4812 52.7443C22.4891 53.0547 22.4872 53.3651 22.4812 53.6754C22.4792 53.796 22.5148 53.8415 22.6414 53.8395C23.0249 53.8316 23.4084 53.8395 23.7919 53.8356C23.8947 53.8356 23.9461 53.8553 23.9461 53.972C23.9461 54.0827 23.9026 54.1183 23.7959 54.1183C23.3115 54.1143 22.8292 54.1143 22.3448 54.1183C22.2361 54.1183 22.1965 54.0787 22.1965 53.97C22.1985 53.033 22.1965 52.0979 22.2025 51.1608C22.2025 51.1154 22.2578 51.0343 22.2875 51.0323C22.839 51.0244 23.3886 51.0264 23.9481 51.0264L23.952 51.0244Z" fill="black"/>
</svg>
