<svg width="60" height="38" viewBox="0 0 60 38" fill="none" xmlns="http://www.w3.org/2000/svg">
<path d="M11.0084 20.0084C10.7644 19.8458 10.3122 19.6571 9.65192 19.4392C8.99484 19.2212 8.58498 19.0098 8.42884 18.8016C8.26945 18.5934 8.19138 18.3299 8.19138 18.0111C8.19138 17.6403 8.30198 17.3248 8.52643 17.0646C8.75087 16.8043 9.10869 16.671 9.59662 16.671C10.0845 16.671 10.4228 16.8141 10.6636 17.1036C10.9043 17.3931 11.0474 17.8192 11.0864 18.382L11.8639 18.2974C11.8509 17.7737 11.75 17.3053 11.5646 16.8922C11.3792 16.479 11.1125 16.1635 10.7644 15.9521C10.4163 15.7406 10.0162 15.6333 9.56409 15.6333C9.15098 15.6333 8.7769 15.7341 8.4386 15.9391C8.1003 16.1407 7.84658 16.44 7.67092 16.8304C7.49527 17.2207 7.40744 17.6436 7.40744 18.0925C7.40744 18.5023 7.479 18.8732 7.62213 19.2017C7.76525 19.5335 7.9832 19.81 8.27595 20.0312C8.5004 20.2068 8.89725 20.3922 9.46 20.5874C10.0227 20.7826 10.3871 20.929 10.5497 21.0233C10.8067 21.1664 10.9888 21.3421 11.1027 21.5503C11.2133 21.7585 11.2686 22.0024 11.2686 22.2822C11.2686 22.5619 11.21 22.8124 11.0962 23.0466C10.9823 23.2808 10.8034 23.463 10.566 23.5963C10.3285 23.7297 10.0553 23.798 9.74625 23.798C9.39819 23.798 9.08592 23.7102 8.80617 23.5345C8.52643 23.3589 8.32149 23.1279 8.19138 22.8417C8.06127 22.5554 7.97344 22.1911 7.93766 21.7422L7.17323 21.8398C7.18299 22.435 7.29684 22.9718 7.50828 23.4434C7.71971 23.9151 8.01573 24.2697 8.38981 24.5039C8.76389 24.7381 9.22905 24.8584 9.78203 24.8584C10.2179 24.8584 10.6115 24.7413 10.9628 24.5071C11.3109 24.2729 11.5809 23.9476 11.7663 23.528C11.9517 23.1084 12.046 22.6595 12.046 22.1846C12.046 21.7097 11.9615 21.2835 11.7923 20.916C11.6232 20.5484 11.3597 20.2459 11.0019 20.0052L11.0084 20.0084Z" fill="black"/>
<path d="M15.0517 17.5362C15.2176 17.2695 15.4355 17.0516 15.7055 16.8889C15.9755 16.723 16.2975 16.6417 16.6651 16.6417C16.9741 16.6417 17.2571 16.7198 17.5076 16.8759C17.7581 17.032 17.9565 17.2402 18.0931 17.5004C18.2297 17.7607 18.3436 18.1185 18.4347 18.5706L19.1666 18.2779C19.0592 17.6761 18.9063 17.1914 18.7014 16.8173C18.4965 16.4433 18.2167 16.1538 17.8589 15.9456C17.5011 15.7374 17.101 15.6333 16.6586 15.6333C16.0471 15.6333 15.5103 15.8155 15.0419 16.1798C14.5735 16.5441 14.2157 17.1036 13.9652 17.855C13.7147 18.6064 13.5911 19.4196 13.5911 20.2849C13.5911 21.1502 13.718 21.9536 13.9685 22.666C14.2189 23.3751 14.5898 23.9184 15.081 24.2957C15.5721 24.6698 16.1186 24.8584 16.7204 24.8584C17.166 24.8584 17.6019 24.7413 18.0248 24.5071C18.246 24.3868 18.3729 24.2404 18.503 24.0647C18.7827 23.6809 18.9323 23.219 18.9323 22.7441V19.7449L16.9709 19.7222V20.7696H17.9435V22.718C17.9435 22.8417 17.9305 22.9653 17.8849 23.0791C17.6572 23.6581 16.9904 23.7947 16.6749 23.7947C16.2715 23.7947 15.8909 23.6646 15.5298 23.4044C15.172 23.1442 14.8955 22.7473 14.7101 22.2106C14.5215 21.6739 14.4271 21.0103 14.4271 20.2133C14.4271 19.5693 14.5052 18.9707 14.6613 18.4178C14.7524 18.0957 14.8825 17.803 15.0484 17.5362H15.0517Z" fill="black"/>
<path d="M24.3614 21.9927C24.215 22.6205 24.1044 23.0986 24.0361 23.4239C23.9743 23.1312 23.8767 22.692 23.7433 22.1033L22.2926 15.7862H21.0727V24.7088H21.8534V17.1134L23.6262 24.7088H24.3581L26.1375 17.2402V24.7088H26.9181V15.7862H25.8284L24.3614 21.9927Z" fill="black"/>
<path d="M30.5483 15.7829L28.1965 24.7055H29.0585L29.7319 22.0024H32.2919L33.0075 24.7055H33.9313L31.4234 15.7829H30.5516H30.5483ZM29.9628 21.0428L30.6362 18.4242C30.7793 17.8615 30.8866 17.2922 30.9647 16.7197C31.059 17.2011 31.2054 17.8192 31.4006 18.5706L32.0414 21.0428H29.9661H29.9628Z" fill="black"/>
<path d="M29.6831 0C13.2984 0 0.0136719 8.50625 0.0136719 19C0.0136719 29.4938 13.2984 38 29.6831 38C46.0678 38 59.3525 29.4938 59.3525 19C59.3525 8.50625 46.071 0 29.6831 0ZM51.7245 27.8706C51.2203 27.1907 50.2412 26.1888 48.3936 24.7055C48.3936 24.7055 50.908 23.001 50.908 19.5725C50.908 16.144 43.524 11.1931 35.9058 8.91611C35.9058 8.91611 38.4983 11.5086 35.9058 17.7899C35.9058 17.7899 34.2176 22.4643 38.1047 26.3515C38.1047 26.3515 41.9464 29.6792 46.3508 25.3301C46.3508 25.3301 41.7415 23.5052 40.3037 16.7197C40.3037 16.7197 42.4246 22.8156 47.216 25.4081C47.216 25.4081 50.4982 27.8315 50.5144 28.8562C50.046 29.2075 49.5548 29.5523 49.0344 29.8841C43.9111 33.1662 37.0411 34.9716 29.6863 34.9716C22.3316 34.9716 15.4615 33.1662 10.3383 29.8841C5.63463 26.8719 3.04209 23.0043 3.04209 18.9967C3.04209 14.9892 5.63463 11.1216 10.3383 8.1094C15.4615 4.82726 22.3316 3.02191 29.6863 3.02191C37.0411 3.02191 43.9111 4.82726 49.0344 8.1094C53.738 11.1216 56.3306 14.9892 56.3306 18.9967C56.3306 22.1585 54.7171 25.2325 51.7278 27.8673L51.7245 27.8706Z" fill="black"/>
</svg>
