<svg width="58" height="38" viewBox="0 0 58 38" fill="none" xmlns="http://www.w3.org/2000/svg">
<path d="M30.7813 16.6528C30.03 16.5495 25.3699 16.1251 24.6502 15.9932C30.0529 10.4557 35.2635 5.11599 40.2562 0C46.0977 5.83579 51.8504 11.5855 57.4653 17.1976C52.1457 22.5201 46.4247 28.2441 40.8097 33.8619C35.2836 28.4964 29.5023 22.8843 23.4543 17.0141C25.9464 16.8736 28.4298 16.8105 30.7784 16.6528H30.7813ZM47.4054 16.6929C45.2833 14.568 43.1497 12.4286 41.0993 10.3782C39.0546 12.4143 36.9182 14.5421 34.7588 16.6929H47.4054ZM40.4713 24.3468C41.8392 22.9789 43.2845 21.5336 44.509 20.3091H36.3131C37.876 21.8261 39.3299 23.2399 40.4713 24.3468Z" fill="black"/>
<path d="M0.0136719 19.5693C0.592949 19.0273 1.24392 18.4222 2.02967 17.688C5.46232 21.1207 8.79746 24.4501 12.1297 27.7824C12.2559 27.6591 12.3821 27.5358 12.5054 27.4124C9.23335 23.9368 5.95843 20.4583 2.9416 17.2579C8.66555 11.5339 14.2863 5.91324 19.7664 0.433044C21.011 1.67476 22.4019 3.057 23.8587 4.50806C19.7894 8.53145 15.5939 12.6724 11.2809 16.9367C15.6628 21.3071 19.8353 25.471 23.8873 29.5116C22.4248 30.9569 21.0569 32.3105 19.3936 33.9566H14.3924C9.41689 28.9811 4.74252 24.3038 0.0136719 19.5693Z" fill="black"/>
<path d="M30.0673 0.180664C31.5097 1.65753 32.9264 3.10573 34.343 4.55679C30.3483 8.52856 26.1987 12.6552 21.814 17.0141C26.3364 21.4333 30.6781 25.6746 34.9338 29.8356C33.3135 31.4186 31.894 32.8037 30.7125 33.9565C24.9799 28.4763 18.9979 22.761 13.1765 17.2005C18.8631 11.4708 24.458 5.83292 30.0673 0.180664Z" fill="black"/>
<path d="M20.4977 37.9484V35.0291H21.5387C21.7652 35.0291 21.9516 35.0692 22.1036 35.1466C22.2527 35.2241 22.3646 35.333 22.4391 35.4707C22.5137 35.6083 22.551 35.7661 22.551 35.9467C22.551 36.1274 22.5137 36.2822 22.4391 36.417C22.3646 36.5518 22.2527 36.6579 22.1036 36.7325C21.9545 36.807 21.7652 36.8443 21.5387 36.8443H20.7501V36.4658H21.4985C21.6419 36.4658 21.7566 36.4457 21.8484 36.4056C21.9402 36.3654 22.0033 36.3052 22.0463 36.2278C22.0893 36.1503 22.1094 36.0557 22.1094 35.9467C22.1094 35.8377 22.0893 35.7402 22.0463 35.6599C22.0033 35.5797 21.9373 35.5166 21.8484 35.4735C21.7595 35.4305 21.6419 35.4076 21.4957 35.4076H20.9422V37.9484H20.5006H20.4977ZM21.9402 36.6292L22.6628 37.9455H22.161L21.4527 36.6292H21.9402Z" fill="black"/>
<path d="M23.3884 37.9484V35.0291H25.218V35.4076H23.8271V36.2966H25.1205V36.6751H23.8271V37.5698H25.2352V37.9484H23.3884Z" fill="black"/>
<path d="M28.0885 35.9496C28.0599 35.8635 28.0254 35.7861 27.9796 35.7173C27.9337 35.6485 27.8792 35.5882 27.8161 35.5395C27.753 35.4907 27.6813 35.4535 27.5982 35.4276C27.5179 35.4018 27.429 35.3904 27.3315 35.3904C27.168 35.3904 27.0189 35.4334 26.887 35.5165C26.7551 35.5997 26.6489 35.7259 26.5744 35.8865C26.497 36.0499 26.4597 36.2478 26.4597 36.4858C26.4597 36.7239 26.497 36.9217 26.5744 37.0852C26.6518 37.2486 26.7579 37.372 26.8898 37.458C27.0246 37.5411 27.1766 37.5842 27.3487 37.5842C27.5064 37.5842 27.6469 37.5526 27.7645 37.4867C27.8821 37.4207 27.9738 37.3318 28.0398 37.2114C28.1057 37.0938 28.1373 36.9533 28.1373 36.7927L28.252 36.8127H27.4175V36.4486H28.5646V36.7812C28.5646 37.025 28.513 37.24 28.4097 37.4178C28.3065 37.5985 28.1631 37.7361 27.9796 37.8337C27.796 37.9312 27.5867 37.9799 27.3515 37.9799C27.0877 37.9799 26.8554 37.9197 26.6576 37.7964C26.4597 37.6731 26.302 37.501 26.193 37.2773C26.0811 37.0536 26.0267 36.7869 26.0267 36.4801C26.0267 36.2478 26.0582 36.0385 26.1242 35.8521C26.1872 35.6657 26.279 35.5079 26.3966 35.3789C26.5142 35.2498 26.6518 35.1495 26.8124 35.0807C26.9701 35.0118 27.1451 34.9774 27.3343 34.9774C27.4921 34.9774 27.6383 35.0004 27.776 35.0462C27.9136 35.0921 28.034 35.1581 28.1402 35.2441C28.2463 35.3301 28.3352 35.4305 28.4069 35.5481C28.4785 35.6657 28.5244 35.7947 28.5502 35.9381H28.0971L28.0885 35.9496Z" fill="black"/>
<path d="M29.8608 35.0262V37.9455H29.4192V35.0262H29.8608Z" fill="black"/>
<path d="M32.3958 35.7947C32.3815 35.6599 32.3184 35.5538 32.2066 35.4793C32.0976 35.4047 31.9571 35.3674 31.7907 35.3674C31.6703 35.3674 31.5671 35.3875 31.481 35.4248C31.3921 35.4621 31.3262 35.5137 31.2774 35.5796C31.2287 35.6456 31.2057 35.7173 31.2057 35.8005C31.2057 35.8693 31.2229 35.9295 31.2545 35.9811C31.286 36.0327 31.329 36.0729 31.3835 36.1073C31.438 36.1417 31.4954 36.1704 31.5556 36.1905C31.6158 36.2134 31.676 36.2306 31.7334 36.2449L32.0173 36.3195C32.1119 36.3424 32.2066 36.374 32.3041 36.4113C32.4016 36.4514 32.4933 36.5002 32.5765 36.5661C32.6597 36.6292 32.7285 36.7095 32.7801 36.8041C32.8317 36.8988 32.8575 37.0106 32.8575 37.1425C32.8575 37.3089 32.8145 37.4551 32.7285 37.5842C32.6425 37.7132 32.5191 37.8136 32.3586 37.8881C32.198 37.9627 32.003 38 31.7735 38C31.5441 38 31.3663 37.9656 31.2057 37.8967C31.0451 37.8279 30.9218 37.7276 30.8301 37.6014C30.7383 37.4723 30.6895 37.3203 30.6809 37.1454H31.1226C31.1312 37.2515 31.1656 37.3375 31.2258 37.4092C31.286 37.4781 31.3635 37.5297 31.4581 37.5641C31.5527 37.5985 31.656 37.6157 31.7707 37.6157C31.894 37.6157 32.0058 37.5956 32.1033 37.5555C32.2008 37.5153 32.2783 37.4609 32.3327 37.3892C32.3901 37.3175 32.4159 37.2343 32.4159 37.1397C32.4159 37.0536 32.3901 36.9819 32.3413 36.9275C32.2926 36.873 32.2266 36.8271 32.1435 36.7898C32.0603 36.7525 31.9657 36.721 31.8624 36.6952L31.5183 36.6005C31.2832 36.5375 31.0996 36.4428 30.962 36.3195C30.8243 36.1962 30.7584 36.0327 30.7584 35.8291C30.7584 35.6599 30.8043 35.5137 30.896 35.3875C30.9878 35.2613 31.1111 35.1638 31.266 35.095C31.4208 35.0262 31.5986 34.9889 31.7936 34.9889C31.9886 34.9889 32.1664 35.0233 32.3184 35.0921C32.4704 35.161 32.5908 35.2556 32.6769 35.3789C32.7658 35.4993 32.8088 35.6399 32.8145 35.7947H32.3901H32.3958Z" fill="black"/>
<path d="M33.5429 35.4076V35.0291H35.8027V35.4076H34.8907V37.9484H34.452V35.4076H33.5429Z" fill="black"/>
<path d="M36.5999 37.9484V35.0291H38.4295V35.4076H37.0387V36.2966H38.332V36.6751H37.0387V37.5698H38.4467V37.9484H36.5999Z" fill="black"/>
<path d="M39.3242 37.9484V35.0291H40.3652C40.5917 35.0291 40.7781 35.0692 40.9301 35.1466C41.0793 35.2241 41.1911 35.333 41.2657 35.4707C41.3402 35.6083 41.3775 35.7661 41.3775 35.9467C41.3775 36.1274 41.3402 36.2822 41.2657 36.417C41.1911 36.5518 41.0793 36.6579 40.9301 36.7325C40.781 36.807 40.5917 36.8443 40.3652 36.8443H39.5766V36.4658H40.3251C40.4684 36.4658 40.5831 36.4457 40.6749 36.4056C40.7667 36.3654 40.8298 36.3052 40.8728 36.2278C40.9158 36.1503 40.9359 36.0557 40.9359 35.9467C40.9359 35.8377 40.9158 35.7402 40.8728 35.6599C40.8298 35.5797 40.7638 35.5166 40.6749 35.4735C40.586 35.4305 40.4684 35.4076 40.3222 35.4076H39.7687V37.9484H39.3271H39.3242ZM40.7638 36.6292L41.4865 37.9455H40.9846L40.2763 36.6292H40.7638Z" fill="black"/>
<path d="M42.212 37.9484V35.0291H44.0416V35.4076H42.6508V36.2966H43.9441V36.6751H42.6508V37.5698H44.0588V37.9484H42.212Z" fill="black"/>
<path d="M45.8798 37.9484H44.9335V35.0291H45.9085C46.1952 35.0291 46.439 35.0864 46.6455 35.204C46.852 35.3216 47.0068 35.4879 47.1186 35.7058C47.2305 35.9238 47.2821 36.1819 47.2821 36.4858C47.2821 36.7898 47.2276 37.0508 47.1158 37.2687C47.0039 37.4867 46.8462 37.6559 46.6369 37.7734C46.4275 37.891 46.1752 37.9484 45.8798 37.9484ZM45.3751 37.5612H45.854C46.0777 37.5612 46.2612 37.5182 46.4075 37.4351C46.5537 37.3519 46.6656 37.2286 46.7372 37.068C46.8089 36.9074 46.8462 36.7124 46.8462 36.4801C46.8462 36.2478 46.8089 36.0557 46.7372 35.898C46.6656 35.7374 46.5566 35.6169 46.4132 35.5338C46.2698 35.4506 46.092 35.4105 45.8798 35.4105H45.3722V37.5612H45.3751Z" fill="black"/>
<path d="M48.2485 33.9651C47.4685 33.9651 46.8347 33.3314 46.8347 32.5514C46.8347 31.7713 47.4685 31.1376 48.2485 31.1376C49.0285 31.1376 49.6623 31.7713 49.6623 32.5514C49.6623 33.3314 49.0285 33.9651 48.2485 33.9651ZM48.2485 31.2638C47.5402 31.2638 46.9638 31.8402 46.9638 32.5514C46.9638 33.2625 47.5402 33.839 48.2485 33.839C48.9568 33.839 49.5333 33.2625 49.5333 32.5514C49.5333 31.8402 48.9568 31.2638 48.2485 31.2638Z" fill="#010101"/>
<path d="M48.3202 31.8115H48.3718C48.4493 31.8115 48.5984 31.8373 48.65 31.8631C48.7016 31.8889 48.7762 31.9376 48.802 31.9893C48.8536 32.0409 48.8794 32.1412 48.8794 32.2187C48.8794 32.3219 48.8536 32.3965 48.7791 32.471C48.7332 32.5198 48.6529 32.5972 48.5267 32.5972C48.6787 32.8008 48.8565 33.1048 48.9827 33.2826H48.7561C48.6041 33.079 48.5009 32.841 48.3231 32.666C48.2715 32.6431 48.2485 32.6259 48.1223 32.6259H47.9187V33.2826H47.718V31.8143H48.326L48.3202 31.8115ZM48.3202 32.4424C48.3948 32.4424 48.4321 32.4366 48.5095 32.4252C48.564 32.4108 48.6013 32.3936 48.6357 32.3449C48.6672 32.3018 48.6787 32.2674 48.6758 32.2129C48.6758 32.147 48.6471 32.1097 48.6013 32.061C48.5353 31.995 48.4665 31.9893 48.3718 31.9835C48.3518 31.9835 48.3202 31.9835 48.3202 31.9835H47.9159V32.4395H48.3202V32.4424Z" fill="#010101"/>
</svg>
