<svg width="86" height="19" viewBox="0 0 86 19" fill="none" xmlns="http://www.w3.org/2000/svg">
<path d="M16.503 5.3999V5.57129C16.9189 5.34184 17.3596 5.15017 17.8192 5.00274V4.84148C17.8192 1.91577 16.1193 0 13.542 0C11.7595 0 10.4993 0.877253 9.26476 2.87319C8.47086 0.93162 7.20878 0 5.29049 0C3.61816 0 2.46718 0.665311 1.37034 2.34057H1.31526V0.239586H0V12.1829H1.31526V3.80389C2.46718 1.96921 3.508 1.25138 5.01604 1.25138C6.7444 1.25138 8.25149 2.42074 8.25149 5.37409V12.1839H9.56675V4.04255C10.8003 2.04754 11.787 1.25045 13.2951 1.25045C15.4612 1.25045 16.502 3.00496 16.502 5.39897" fill="#291D10"/>
<path d="M20.1485 19C16.066 19 12.7441 15.7776 12.7441 11.8171C12.7441 7.85653 16.066 4.63318 20.1485 4.63318C24.2311 4.63318 27.552 7.85653 27.552 11.8171C27.552 15.7776 24.2301 19 20.1485 19ZM20.1485 6.26144C16.9919 6.26144 14.4241 8.75405 14.4241 11.8161C14.4241 14.8782 16.991 17.3708 20.1485 17.3708C23.3061 17.3708 25.873 14.8773 25.873 11.8161C25.873 8.75497 23.3042 6.26144 20.1485 6.26144Z" fill="#AD936D"/>
<path d="M29.2433 11.3775V11.9709C28.6545 11.595 28.2671 11.4466 27.7979 11.4466C27.1626 11.4466 26.6698 11.8235 26.6698 12.3128C26.6698 13.5448 29.4076 13.0767 29.4076 14.8561C29.4076 15.6541 28.6545 16.2696 27.6811 16.2696C27.1398 16.2696 26.6356 16.1213 26.0952 15.8015V15.2652C26.7875 15.6089 27.2462 15.7333 27.7514 15.7333C28.3962 15.7333 28.8663 15.3694 28.8663 14.845C28.8663 13.625 26.1285 13.989 26.1285 12.3487C26.1285 11.5618 26.8815 10.9462 27.8321 10.9462C28.2908 10.9462 28.7143 11.0826 29.2433 11.3784" fill="#291D10"/>
<path d="M32.7133 14.5778C30.2205 14.5778 28.193 12.6104 28.193 10.1925C28.193 7.7745 30.2205 5.80713 32.7133 5.80713C35.2061 5.80713 37.2317 7.7745 37.2317 10.1925C37.2317 12.6104 35.2042 14.5778 32.7133 14.5778ZM32.7133 6.82905C30.8017 6.82905 29.2471 8.3366 29.2471 10.1915C29.2471 12.0465 30.8026 13.554 32.7133 13.554C34.624 13.554 36.1776 12.0465 36.1776 10.1915C36.1776 8.3366 34.624 6.82905 32.7133 6.82905Z" fill="#291D10"/>
<path d="M36.6743 4.3798H36.7854C36.8766 4.3798 36.9639 4.36598 36.9639 4.26462C36.9639 4.16325 36.8756 4.14943 36.7854 4.14943H36.6743V4.37888V4.3798ZM36.6743 4.57331V4.95389H36.3894V3.95776H36.8652C37.038 3.95776 37.2631 4.00292 37.2631 4.21486C37.2631 4.36322 37.1444 4.44154 37.001 4.45905V4.46366C37.1833 4.46827 37.2175 4.55765 37.2365 4.71246C37.2441 4.79539 37.2583 4.87464 37.284 4.95389H36.9744C36.9582 4.88478 36.9497 4.8129 36.944 4.74287C36.9326 4.62308 36.9269 4.57331 36.7816 4.57331H36.6752H36.6743Z" fill="#291D10"/>
<path d="M36.8101 3.59003C37.322 3.59003 37.736 3.99364 37.736 4.4894C37.736 4.98516 37.322 5.38877 36.8101 5.38877C36.2983 5.38877 35.8852 4.98608 35.8852 4.4894C35.8852 3.99272 36.3002 3.59003 36.8101 3.59003ZM36.8101 3.33386C36.153 3.33386 35.6193 3.85174 35.6193 4.48848C35.6193 5.12523 36.153 5.64402 36.8101 5.64402C37.4673 5.64402 38 5.12707 38 4.48848C38 3.84989 37.4663 3.33386 36.8101 3.33386Z" fill="#291D10"/>
<path d="M40.375 13.7465V5.11017L43.5377 5.11017C44.1506 5.11017 44.658 5.21138 45.0601 5.41379C45.4621 5.61339 45.7629 5.88469 45.9625 6.22767C46.1621 6.56784 46.2619 6.95158 46.2619 7.3789C46.2619 7.73875 46.1958 8.04237 46.0637 8.28977C45.9316 8.53435 45.7545 8.73114 45.5324 8.88014C45.3131 9.02633 45.0713 9.13316 44.807 9.20063V9.28497C45.0938 9.29903 45.3735 9.3918 45.6462 9.56329C45.9217 9.73197 46.1494 9.97234 46.3294 10.2844C46.5093 10.5965 46.5993 10.976 46.5993 11.423C46.5993 11.8644 46.4952 12.2608 46.2872 12.6122C46.082 12.9608 45.7643 13.2377 45.3342 13.4429C44.904 13.6453 44.3544 13.7465 43.6853 13.7465H40.375ZM41.678 12.629H43.5588C44.1829 12.629 44.6299 12.5081 44.8998 12.2664C45.1697 12.0246 45.3046 11.7224 45.3046 11.3597C45.3046 11.087 45.2358 10.8368 45.098 10.6091C44.9603 10.3814 44.7635 10.2001 44.5076 10.0651C44.2546 9.93017 43.9538 9.8627 43.6052 9.8627H41.678V12.629ZM41.678 8.84641H43.4239C43.7162 8.84641 43.9791 8.79018 44.2124 8.67773C44.4486 8.56528 44.6356 8.40784 44.7733 8.20543C44.9139 8.0002 44.9842 7.75843 44.9842 7.48011C44.9842 7.12307 44.8591 6.82367 44.6088 6.58189C44.3586 6.34012 43.9749 6.21923 43.4576 6.21923H41.678V8.84641Z" fill="#AD936D"/>
<path d="M49.9286 13.8899C49.5181 13.8899 49.147 13.814 48.8153 13.6622C48.4835 13.5076 48.2207 13.2841 48.0267 12.9917C47.8355 12.6993 47.7399 12.3409 47.7399 11.9164C47.7399 11.5509 47.8102 11.2501 47.9508 11.0139C48.0914 10.7778 48.2811 10.5908 48.5201 10.4531C48.759 10.3153 49.0261 10.2113 49.3213 10.141C49.6165 10.0707 49.9173 10.0173 50.2237 9.98077C50.6117 9.93579 50.9266 9.89925 51.1683 9.87113C51.4101 9.84021 51.5858 9.79101 51.6955 9.72354C51.8051 9.65607 51.8599 9.54643 51.8599 9.39461V9.3651C51.8599 8.99681 51.7559 8.71146 51.5479 8.50905C51.3426 8.30664 51.0362 8.20543 50.6286 8.20543C50.2041 8.20543 49.8695 8.29961 49.6249 8.48797C49.3832 8.67351 49.2159 8.88014 49.1231 9.10786L47.9381 8.83797C48.0787 8.44439 48.2839 8.12671 48.5538 7.88494C48.8265 7.64035 49.14 7.46324 49.4942 7.3536C49.8484 7.24115 50.2209 7.18492 50.6117 7.18492C50.8703 7.18492 51.1445 7.21584 51.434 7.27769C51.7264 7.33673 51.9991 7.44637 52.2521 7.60662C52.5079 7.76686 52.7174 7.99598 52.8804 8.29398C53.0435 8.58917 53.125 8.97292 53.125 9.44522V13.7465H51.8937V12.861H51.8431C51.7615 13.024 51.6392 13.1843 51.4762 13.3417C51.3131 13.4991 51.1037 13.6299 50.8479 13.7339C50.592 13.8379 50.2856 13.8899 49.9286 13.8899ZM50.2027 12.8778C50.5513 12.8778 50.8493 12.809 51.0967 12.6712C51.3469 12.5334 51.5366 12.3535 51.666 12.1314C51.7981 11.9065 51.8641 11.6662 51.8641 11.4103V10.5754C51.8192 10.6203 51.732 10.6625 51.6027 10.7019C51.4762 10.7384 51.3314 10.7708 51.1683 10.7989C51.0053 10.8242 50.8465 10.8481 50.6918 10.8706C50.5372 10.8902 50.4079 10.9071 50.3039 10.9212C50.0593 10.9521 49.8358 11.0041 49.6334 11.0772C49.4338 11.1503 49.2735 11.2557 49.1526 11.3935C49.0346 11.5284 48.9755 11.7083 48.9755 11.9332C48.9755 12.2453 49.0908 12.4814 49.3213 12.6417C49.5518 12.7991 49.8456 12.8778 50.2027 12.8778Z" fill="#AD936D"/>
<path d="M54.8044 13.7465V7.26926L56.0147 7.26926V8.3235H56.0948C56.2298 7.96647 56.4505 7.68815 56.7569 7.48854C57.0633 7.28613 57.4302 7.18492 57.8575 7.18492C58.2905 7.18492 58.6531 7.28613 58.9455 7.48854C59.2407 7.69096 59.4586 7.96928 59.5991 8.3235H59.6666C59.8212 7.97771 60.0672 7.7022 60.4046 7.49698C60.7419 7.28894 61.144 7.18492 61.6106 7.18492C62.1982 7.18492 62.6775 7.36906 63.0486 7.73734C63.4225 8.10563 63.6095 8.66086 63.6095 9.40305V13.7465H62.3486V9.52112C62.3486 9.08256 62.2291 8.76488 61.9902 8.56809C61.7512 8.3713 61.4658 8.2729 61.1341 8.2729C60.7237 8.2729 60.4046 8.39941 60.1769 8.65243C59.9491 8.90263 59.8353 9.22453 59.8353 9.61811V13.7465H58.5786V9.441C58.5786 9.08959 58.469 8.80705 58.2497 8.59339C58.0304 8.37973 57.7451 8.2729 57.3937 8.2729C57.1547 8.2729 56.934 8.33615 56.7316 8.46266C56.532 8.58636 56.3703 8.75926 56.2466 8.98135C56.1258 9.20345 56.0653 9.46068 56.0653 9.75306V13.7465H54.8044Z" fill="#AD936D"/>
<path d="M65.4006 13.7465V5.11017H66.6615V8.31929H66.7374C66.8105 8.18434 66.9159 8.02831 67.0537 7.8512C67.1914 7.67409 67.3826 7.51947 67.6272 7.38733C67.8718 7.25239 68.1951 7.18492 68.5971 7.18492C69.12 7.18492 69.5867 7.31705 69.9971 7.58132C70.4076 7.84558 70.7295 8.22651 70.9628 8.72412C71.199 9.22172 71.3171 9.82053 71.3171 10.5205C71.3171 11.2206 71.2004 11.8208 70.967 12.3212C70.7337 12.8188 70.4132 13.2025 70.0056 13.4724C69.5979 13.7395 69.1327 13.873 68.6098 13.873C68.2162 13.873 67.8943 13.807 67.6441 13.6748C67.3967 13.5427 67.2027 13.3881 67.0621 13.211C66.9216 13.0339 66.8133 12.8764 66.7374 12.7387H66.632V13.7465H65.4006ZM66.6362 10.5079C66.6362 10.9633 66.7023 11.3625 66.8344 11.7055C66.9665 12.0485 67.1577 12.317 67.4079 12.511C67.6581 12.7021 67.9646 12.7977 68.3272 12.7977C68.7039 12.7977 69.0188 12.6979 69.2718 12.4983C69.5248 12.2959 69.716 12.0218 69.8453 11.676C69.9775 11.3302 70.0435 10.9408 70.0435 10.5079C70.0435 10.0806 69.9789 9.69683 69.8495 9.35666C69.723 9.01649 69.5319 8.74801 69.276 8.55122C69.023 8.35443 68.7067 8.25603 68.3272 8.25603C67.9617 8.25603 67.6525 8.35021 67.3995 8.53857C67.1493 8.72693 66.9595 8.98978 66.8302 9.32714C66.7009 9.6645 66.6362 10.0581 66.6362 10.5079Z" fill="#AD936D"/>
<path d="M75.4613 13.8773C74.854 13.8773 74.3241 13.7381 73.8715 13.4598C73.4189 13.1815 73.0674 12.7921 72.8172 12.2917C72.567 11.7913 72.4419 11.2065 72.4419 10.5374C72.4419 9.86551 72.567 9.27794 72.8172 8.77472C73.0674 8.27149 73.4189 7.88072 73.8715 7.6024C74.3241 7.32408 74.854 7.18492 75.4613 7.18492C76.0685 7.18492 76.5985 7.32408 77.0511 7.6024C77.5037 7.88072 77.8551 8.27149 78.1053 8.77472C78.3555 9.27794 78.4806 9.86551 78.4806 10.5374C78.4806 11.2065 78.3555 11.7913 78.1053 12.2917C77.8551 12.7921 77.5037 13.1815 77.0511 13.4598C76.5985 13.7381 76.0685 13.8773 75.4613 13.8773ZM75.4655 12.8188C75.8591 12.8188 76.1852 12.7148 76.4438 12.5067C76.7025 12.2987 76.8937 12.0218 77.0173 11.676C77.1439 11.3302 77.2071 10.9493 77.2071 10.5332C77.2071 10.1199 77.1439 9.74041 77.0173 9.39461C76.8937 9.04601 76.7025 8.76629 76.4438 8.55544C76.1852 8.34459 75.8591 8.23916 75.4655 8.23916C75.0691 8.23916 74.7402 8.34459 74.4787 8.55544C74.2201 8.76629 74.0275 9.04601 73.901 9.39461C73.7773 9.74041 73.7155 10.1199 73.7155 10.5332C73.7155 10.9493 73.7773 11.3302 73.901 11.676C74.0275 12.0218 74.2201 12.2987 74.4787 12.5067C74.7402 12.7148 75.0691 12.8188 75.4655 12.8188Z" fill="#AD936D"/>
<path d="M82.6164 13.8773C82.0092 13.8773 81.4793 13.7381 81.0266 13.4598C80.574 13.1815 80.2226 12.7921 79.9724 12.2917C79.7222 11.7913 79.5971 11.2065 79.5971 10.5374C79.5971 9.86551 79.7222 9.27794 79.9724 8.77472C80.2226 8.27149 80.574 7.88072 81.0266 7.6024C81.4793 7.32408 82.0092 7.18492 82.6164 7.18492C83.2237 7.18492 83.7536 7.32408 84.2062 7.6024C84.6589 7.88072 85.0103 8.27149 85.2605 8.77472C85.5107 9.27794 85.6358 9.86551 85.6358 10.5374C85.6358 11.2065 85.5107 11.7913 85.2605 12.2917C85.0103 12.7921 84.6589 13.1815 84.2062 13.4598C83.7536 13.7381 83.2237 13.8773 82.6164 13.8773ZM82.6207 12.8188C83.0142 12.8188 83.3404 12.7148 83.599 12.5067C83.8576 12.2987 84.0488 12.0218 84.1725 11.676C84.299 11.3302 84.3623 10.9493 84.3623 10.5332C84.3623 10.1199 84.299 9.74041 84.1725 9.39461C84.0488 9.04601 83.8576 8.76629 83.599 8.55544C83.3404 8.34459 83.0142 8.23916 82.6207 8.23916C82.2243 8.23916 81.8953 8.34459 81.6339 8.55544C81.3752 8.76629 81.1827 9.04601 81.0562 9.39461C80.9325 9.74041 80.8706 10.1199 80.8706 10.5332C80.8706 10.9493 80.9325 11.3302 81.0562 11.676C81.1827 12.0218 81.3752 12.2987 81.6339 12.5067C81.8953 12.7148 82.2243 12.8188 82.6207 12.8188Z" fill="#AD936D"/>
</svg>
