<svg width="126" height="11" viewBox="0 0 126 11" fill="none" xmlns="http://www.w3.org/2000/svg">
<path d="M0 0.257398H2.16799V3.86855L5.23252 0.257398H7.80803L3.87141 4.93599L8.1911 10.735H5.64819L2.16799 6.07915V10.735H0V0.257398ZM19.732 0.257398H17.5558L13.2036 10.735H15.4368L16.3577 8.57743H20.9627L21.8429 10.735H24.0761L19.732 0.257398ZM17.1402 6.6318L18.6561 3.03579L20.1639 6.6318H17.1483H17.1402ZM30.1318 0.257398H32.1939L37.0189 7.15416V0.257398H39.1624V10.735H37.1004L32.2835 3.86098V10.735H30.14V0.257398H30.1318ZM54.3057 2.66483C53.7923 1.81693 53.1321 1.20372 52.3334 0.825189C51.5346 0.446662 50.3202 0.257398 48.682 0.257398H46.1391V10.735H48.7228C50.1817 10.735 51.2086 10.6518 51.8036 10.4776C52.3986 10.3035 52.9446 10.0007 53.4581 9.55403C53.9634 9.10736 54.3628 8.54714 54.6562 7.87337C54.9415 7.19959 55.0882 6.45767 55.0882 5.64763C55.0882 4.51204 54.8274 3.5203 54.3139 2.6724L54.3057 2.66483ZM52.4882 7.41913C52.203 7.91122 51.8443 8.26703 51.4042 8.47144C50.9641 8.68341 50.2469 8.78183 49.2688 8.78183H48.2745V2.18032H48.9999C50.3365 2.18032 51.3064 2.45286 51.9095 3.00551C52.5779 3.61872 52.912 4.48176 52.912 5.59463C52.912 6.31383 52.7735 6.92705 52.4882 7.41913ZM61.3721 0.257398H63.5075V10.735H61.3721V0.257398ZM70.3212 0.257398H72.3832L77.2082 7.15416V0.257398H79.3517V10.735H77.2897L72.4729 3.86098V10.735H70.3293V0.257398H70.3212ZM92.2456 1.68066L90.6563 2.98279C90.102 2.26359 89.5315 1.90021 88.9528 1.90021C88.6676 1.90021 88.4394 1.96834 88.2601 2.11218C88.0808 2.25602 87.9911 2.40743 87.9911 2.58913C87.9911 2.77082 88.0563 2.9298 88.1867 3.08878C88.3579 3.30076 88.8876 3.74742 89.7597 4.43634C90.5748 5.07226 91.0719 5.4735 91.2512 5.64006C91.6832 6.04886 91.9929 6.44253 92.1804 6.81349C92.3597 7.18445 92.4493 7.59326 92.4493 8.03235C92.4493 8.89539 92.1315 9.59945 91.4876 10.1597C90.8437 10.7199 90.0124 11 88.9855 11C88.1786 11 87.4858 10.8183 86.8827 10.4549C86.2877 10.0915 85.7742 9.51617 85.3504 8.72884L87.1516 7.71438C87.6977 8.63799 88.3171 9.10736 89.0262 9.10736C89.393 9.10736 89.7027 9.00895 89.9553 8.81211C90.208 8.61528 90.3303 8.38059 90.3303 8.12319C90.3303 7.88851 90.2325 7.64625 90.045 7.41156C89.8575 7.17688 89.4419 6.81349 88.7898 6.3214C87.5591 5.39023 86.7686 4.67103 86.4099 4.1638C86.0513 3.65657 85.872 3.15692 85.872 2.64969C85.872 1.92292 86.1736 1.30213 86.7686 0.779766C87.3635 0.257398 88.0971 0 88.9773 0C89.5397 0 90.0776 0.121129 90.5829 0.363386C91.0964 0.605644 91.6425 1.04474 92.2374 1.68823L92.2456 1.68066ZM98.9044 0.257398H101.072V3.86855L104.137 0.257398H106.712L102.776 4.93599L107.096 10.735H104.553L101.072 6.07915V10.735H98.9044V0.257398ZM112.222 0.257398H114.529L116.631 4.02753L118.726 0.257398H121L117.699 6.20027V10.735H115.539V6.20027L112.222 0.257398Z" fill="black"/>
<path d="M124.49 2.71513C123.797 2.71513 123.225 2.16734 123.225 1.48459V1.46871C123.225 0.77008 123.781 0.206413 124.49 0.206413C125.199 0.206413 125.754 0.77008 125.754 1.46871C125.754 2.16734 125.182 2.71513 124.49 2.71513ZM124.49 0C123.66 0 123 0.650996 123 1.46871C123 2.28642 123.664 2.93742 124.49 2.93742C125.315 2.93742 125.98 2.28642 125.996 1.46871C125.98 0.666874 125.319 0 124.49 0ZM124.413 1.39329H124.156V0.785958H124.413C124.715 0.785958 124.848 0.861378 124.848 1.08367V1.09955C124.832 1.30596 124.711 1.39726 124.413 1.39726V1.39329ZM125.166 2.26658L124.744 1.58382C124.969 1.52428 125.122 1.37741 125.122 1.09558C125.122 0.650996 124.852 0.516033 124.397 0.516033C124.276 0.516033 124.067 0.516033 123.974 0.531911C123.914 0.531911 123.87 0.575575 123.87 0.650996V2.31421C123.87 2.35787 123.898 2.40154 123.946 2.40154H124.083C124.127 2.40154 124.16 2.35787 124.16 2.31421V1.63146H124.385L124.446 1.64734L124.897 2.34597C124.897 2.34597 124.941 2.38963 124.957 2.38963H125.106C125.15 2.38963 125.166 2.36184 125.166 2.31421C125.182 2.29833 125.182 2.28642 125.166 2.27055V2.26658Z" fill="black"/>
</svg>
