<svg width="76" height="17" viewBox="0 0 76 17" fill="none" xmlns="http://www.w3.org/2000/svg">
<path d="M32.1573 11.702C30.6956 11.702 29.5963 10.5588 29.5963 8.95913C29.5963 7.35943 30.6956 6.21621 32.1573 6.21621C33.6189 6.21621 34.686 7.34355 34.686 8.95913C34.686 10.5747 33.6149 11.702 32.1573 11.702ZM32.1573 13.4963C34.8229 13.4963 36.796 11.5671 36.796 8.95913C36.796 6.35118 34.8229 4.42201 32.1573 4.42201C29.4916 4.42201 27.5185 6.35118 27.5185 8.95913C27.5185 11.5671 29.5077 13.4963 32.1573 13.4963ZM38.6926 16.7592L40.4241 12.9762L36.6269 4.61254H38.8255L41.4307 10.666L43.8387 4.61254H46.0091L40.7986 16.7592H38.6886H38.6926ZM4.45756 11.702C2.99587 11.702 1.89658 10.5588 1.89658 8.95913C1.89658 7.35943 2.97976 6.21621 4.45756 6.21621C5.93536 6.21621 6.98633 7.34355 6.98633 8.95913C7.00244 10.5628 5.91523 11.702 4.45756 11.702ZM8.91512 8.55821C8.71781 6.12492 6.95814 4.40613 4.45756 4.40613C1.95698 4.40613 0 6.3353 0 8.94325C0 11.5512 1.65497 13.4804 4.30857 13.4804C5.39176 13.4804 6.34206 13.0636 7.11116 12.4285L7.27625 13.4804H9.26544L8.91915 8.55424L8.91512 8.55821ZM50.362 11.702C48.9003 11.702 47.801 10.5588 47.801 8.95913C47.801 7.35943 48.9003 6.21621 50.362 6.21621C51.8237 6.21621 52.8908 7.34355 52.8908 8.95913C52.9069 10.5628 51.8357 11.702 50.362 11.702ZM54.8195 8.55821C54.6222 6.12492 52.8626 4.40613 50.362 4.40613C47.8614 4.40613 45.9044 6.3353 45.9044 8.94325C45.9044 11.5512 47.5594 13.4804 50.213 13.4804C51.2962 13.4804 52.2465 13.0636 53.0156 12.4285L53.1807 13.4804H55.1699L54.8236 8.55424L54.8195 8.55821ZM23.4314 11.702C21.9858 11.702 21.0073 10.5588 21.0073 8.95913C21.0073 7.35943 21.9697 6.21621 23.3871 6.21621C24.4582 6.21621 25.1025 6.73622 25.5092 7.58172L26.9386 6.09713C26.1857 5.02934 24.9817 4.40613 23.4274 4.40613C20.806 4.40613 18.8933 6.34721 18.8933 8.94325C18.8933 11.5393 20.7617 13.4804 23.3831 13.4804C24.9333 13.4804 26.1253 12.8572 26.8782 11.9243L25.4488 10.4556C25.0864 11.1979 24.4381 11.702 23.4314 11.702ZM14.8022 11.702C13.3566 11.702 12.3781 10.5588 12.3781 8.95913C12.3781 7.35943 13.3405 6.21621 14.7579 6.21621C15.829 6.21621 16.4732 6.73622 16.8799 7.58172L18.3094 6.09713C17.5564 5.02934 16.3524 4.40613 14.7981 4.40613C12.1768 4.40613 10.2641 6.34721 10.2641 8.94325C10.2641 11.5393 12.1325 13.4804 14.7538 13.4804C16.3041 13.4804 17.496 12.8572 18.249 11.9243L16.8195 10.4556C16.441 11.1979 15.7968 11.702 14.8022 11.702ZM74.494 2.71513C73.8014 2.71513 73.2296 2.16734 73.2296 1.48459V1.46871C73.2296 0.77008 73.7853 0.206413 74.494 0.206413C75.2027 0.206413 75.7584 0.77008 75.7584 1.46871C75.7584 2.16734 75.1866 2.71513 74.494 2.71513ZM74.494 0C73.6645 0 73.0041 0.650996 73.0041 1.46871C73.0041 2.28642 73.6685 2.93742 74.494 2.93742C75.3195 2.93742 75.9839 2.28642 76 1.46871C75.9839 0.666874 75.3235 0 74.494 0ZM74.4175 1.39329H74.1598V0.785958H74.4175C74.7195 0.785958 74.8524 0.861378 74.8524 1.08367V1.09955C74.8363 1.30596 74.7155 1.39726 74.4175 1.39726V1.39329ZM75.1705 2.26658L74.7477 1.58382C74.9732 1.52428 75.1262 1.37741 75.1262 1.09558C75.1262 0.650996 74.8564 0.516033 74.4014 0.516033C74.2806 0.516033 74.0712 0.516033 73.9786 0.531911C73.9182 0.531911 73.8739 0.575575 73.8739 0.650996V2.31421C73.8739 2.35787 73.9021 2.40154 73.9504 2.40154H74.0873C74.1316 2.40154 74.1638 2.35787 74.1638 2.31421V1.63146H74.3893L74.4497 1.64734L74.9007 2.34597C74.9007 2.34597 74.945 2.38963 74.9611 2.38963H75.1101C75.1544 2.38963 75.1705 2.36184 75.1705 2.31421C75.1866 2.29833 75.1866 2.28642 75.1705 2.27055V2.26658ZM70.4431 3.15574C71.0149 4.29895 71.4539 5.49774 71.784 6.71637C72.1303 7.97867 72.4162 9.28066 72.5089 10.5866C72.537 10.9439 72.525 11.313 72.4323 11.6703C72.2954 12.234 71.9652 12.754 71.4538 13.0517C70.8982 13.3494 70.2338 13.393 69.6177 13.4208C68.607 13.4804 67.6164 13.4367 66.6057 13.3335C65.6715 13.2462 64.693 13.1112 63.8353 12.6825C65.297 14.0043 71.2606 15.0126 73.9705 14.4013C79.7529 13.1112 71.6351 0.666874 67.7936 0.130993C67.8097 0.130993 69.3439 0.976494 70.4431 3.15574ZM72.5813 15.3937C70.7733 15.5405 67.9426 15.1555 65.8326 14.5323C64.5521 14.1631 62.8206 13.3613 62.3817 12.7063C61.4918 11.3845 64.4313 6.95057 65.3494 5.77957L65.4702 5.6327C64.6568 6.27179 63.9924 7.10141 63.332 7.87149C62.6394 8.6892 62.0837 9.5347 61.524 10.408C60.9804 11.2813 60.469 12.1744 60.0623 13.1231C59.6999 13.9686 59.5791 14.8737 60.3643 15.5247C61.073 16.132 62.1119 16.4297 63.0139 16.6242C63.9924 16.8306 64.987 16.9219 65.9977 16.9656C67.9546 17.041 69.9599 17.0092 71.8847 16.6996C73.3464 16.4615 75.1222 15.8978 75.5007 14.2981C75.1544 14.7149 74.1598 15.2786 72.5773 15.3976L72.5813 15.3937ZM71.5706 10.0388C71.2847 8.08187 70.8176 6.07728 70.0042 4.25529C69.6257 3.40979 69.3116 2.84612 68.8003 2.07604C68.3936 1.46871 68.0473 0.964585 67.4433 0.504125C66.96 0.134963 66.4487 0.0595423 65.7279 0.520003C64.9588 1.02413 64.1615 1.73467 63.5736 2.43329C61.9025 4.40613 61.073 5.96217 60.0945 8.39546C59.8086 9.106 59.4623 10.2492 59.3576 10.9002C59.269 11.448 59.1603 12.1744 59.1603 12.6071C59.1603 12.9762 59.1885 13.3772 59.2972 13.7503C59.8529 11.1701 61.1052 9.38783 62.3857 7.74447C63.4085 6.42263 64.3427 5.44613 64.7816 5.073C65.446 4.50934 66.0621 3.96155 67.0406 3.94567C68.2285 3.92979 69.1788 5.44216 69.4808 5.87484C70.3546 7.16492 71.0472 8.58997 71.5747 10.0428L71.5706 10.0388Z" fill="#33A949"/>
</svg>
