<svg width="73" height="27" viewBox="0 0 73 27" fill="none" xmlns="http://www.w3.org/2000/svg">
<g clip-path="url(#clip0_898_7776)">
<path d="M39.196 17.848H39.8706L40.7094 20.2086L41.5615 17.848H42.2316L42.844 21.2325H42.1739L41.7834 19.0954L41.0112 21.2325H40.4032L39.6398 19.0954L39.2404 21.2325H38.5659L39.196 17.848Z" fill="black"/>
<path d="M46.603 19.1714H46.8249C46.998 19.1714 47.1178 19.1624 47.1844 19.1356C47.2509 19.1132 47.3042 19.073 47.3441 19.0193C47.3841 18.9657 47.4018 18.9031 47.4018 18.8271C47.4018 18.6974 47.3486 18.5991 47.2376 18.541C47.1577 18.4962 47.0113 18.4739 46.7983 18.4739H46.603V19.1714ZM45.9107 17.848H46.6429C47.0379 17.848 47.3264 17.8837 47.4995 17.9508C47.677 18.0179 47.8146 18.1296 47.9122 18.2816C48.0143 18.4337 48.0631 18.617 48.0631 18.8316C48.0631 19.0685 47.9965 19.2653 47.8634 19.4217C47.7302 19.5782 47.5527 19.6855 47.3219 19.7481C47.1888 19.7839 46.9447 19.8018 46.5941 19.8018V21.2369H45.9018V17.848H45.9107Z" fill="black"/>
<path d="M52.2969 18.3935C51.9596 18.3935 51.68 18.5008 51.4492 18.7198C51.2184 18.9389 51.1075 19.2161 51.1075 19.5514C51.1075 19.927 51.2495 20.2221 51.538 20.4412C51.7599 20.6111 52.0173 20.696 52.3102 20.696C52.6386 20.696 52.9182 20.5842 53.1489 20.3651C53.3797 20.1416 53.4951 19.8689 53.4951 19.547C53.4951 19.2251 53.3797 18.9523 53.1445 18.7288C52.9137 18.5052 52.6297 18.3935 52.2969 18.3935ZM52.3057 17.7631C52.8205 17.7631 53.2599 17.9374 53.6327 18.2817C54.001 18.6304 54.1874 19.0507 54.1874 19.5514C54.1874 20.0522 54.0055 20.4635 53.6416 20.8078C53.2776 21.152 52.8338 21.3219 52.3146 21.3219C51.7954 21.3219 51.3161 21.1476 50.9566 20.7944C50.5971 20.4412 50.4152 20.0254 50.4152 19.5425C50.4152 19.2206 50.4995 18.921 50.6681 18.6483C50.8368 18.3756 51.0675 18.161 51.3604 18.0045C51.6534 17.8435 51.9729 17.7675 52.3102 17.7675" fill="black"/>
<path d="M58.9894 18.3085L58.479 18.7288C58.3015 18.4963 58.1151 18.38 57.9287 18.38C57.84 18.38 57.7645 18.4024 57.7068 18.4471C57.6491 18.4918 57.6181 18.5454 57.6181 18.5991C57.6181 18.6527 57.6403 18.7109 57.6802 18.7601C57.7379 18.8271 57.9065 18.9747 58.1861 19.1937C58.448 19.3994 58.6122 19.5291 58.6654 19.5827C58.8075 19.7168 58.9051 19.842 58.9628 19.9627C59.0205 20.0835 59.0515 20.2131 59.0515 20.3562C59.0515 20.6334 58.9495 20.8659 58.7409 21.0447C58.5367 21.2235 58.266 21.3174 57.9332 21.3174C57.6758 21.3174 57.4494 21.2593 57.2586 21.1386C57.0678 21.0223 56.9036 20.8346 56.766 20.5797L57.3474 20.2533C57.5204 20.5529 57.7246 20.7004 57.9509 20.7004C58.0708 20.7004 58.1684 20.6691 58.2483 20.6021C58.3282 20.5395 58.3681 20.4635 58.3681 20.3785C58.3681 20.3025 58.337 20.2265 58.2749 20.146C58.2128 20.07 58.0796 19.9493 57.871 19.7928C57.4761 19.4933 57.2187 19.2608 57.1033 19.0954C56.9879 18.9299 56.9302 18.769 56.9302 18.608C56.9302 18.3711 57.0278 18.1699 57.2187 18.0045C57.4095 17.8346 57.6491 17.7541 57.9287 17.7541C58.1107 17.7541 58.2838 17.7943 58.448 17.8703C58.6122 17.9463 58.7897 18.0894 58.9805 18.2995" fill="black"/>
<path d="M29.9917 18.4426L29.508 18.8718C29.1796 18.5454 28.8068 18.3845 28.3985 18.3845C28.0523 18.3845 27.7594 18.4963 27.5198 18.7153C27.2846 18.9389 27.1648 19.2116 27.1648 19.5335C27.1648 19.7615 27.218 19.9583 27.3245 20.1371C27.431 20.3115 27.5775 20.4501 27.7728 20.5484C27.9636 20.6468 28.181 20.7004 28.4118 20.7004C28.6115 20.7004 28.7979 20.6647 28.9621 20.5976C29.1263 20.5261 29.3083 20.4009 29.508 20.2176L29.9784 20.6736C29.7077 20.9195 29.4547 21.0894 29.2195 21.1833C28.9799 21.2772 28.7092 21.3264 28.4029 21.3264C27.8393 21.3264 27.3778 21.1609 27.0183 20.8256C26.6588 20.4903 26.4769 20.0656 26.4769 19.5425C26.4769 19.2027 26.5612 18.9031 26.721 18.6438C26.8807 18.3845 27.1204 18.1699 27.4222 18.0089C27.7284 17.848 28.0568 17.772 28.4074 17.772C28.7092 17.772 28.9976 17.8301 29.2728 17.9463C29.5479 18.0671 29.7876 18.2325 29.9917 18.4516" fill="black"/>
<path d="M34.372 18.3935C34.0347 18.3935 33.7551 18.5008 33.5243 18.7198C33.2936 18.9389 33.1826 19.2161 33.1826 19.5514C33.1826 19.927 33.3246 20.2221 33.6131 20.4412C33.835 20.6111 34.0924 20.696 34.3853 20.696C34.7137 20.696 34.9933 20.5842 35.2241 20.3651C35.4549 20.1416 35.5702 19.8689 35.5702 19.547C35.5702 19.2251 35.4549 18.9523 35.2196 18.7288C34.9889 18.5052 34.7048 18.3935 34.372 18.3935ZM34.3809 17.7631C34.8957 17.7631 35.335 17.9374 35.7078 18.2817C36.0762 18.6304 36.2626 19.0507 36.2626 19.5514C36.2626 20.0522 36.0806 20.4635 35.7167 20.8078C35.3528 21.152 34.909 21.3219 34.3897 21.3219C33.8705 21.3219 33.3912 21.1476 33.0317 20.7944C32.6723 20.4412 32.4903 20.0254 32.4903 19.5425C32.4903 19.2206 32.5746 18.921 32.7433 18.6483C32.9119 18.3756 33.1427 18.161 33.4356 18.0045C33.7285 17.8435 34.048 17.7675 34.3853 17.7675" fill="black"/>
<path d="M62.8948 17.848H62.2069V21.2369H62.8948V17.848Z" fill="black"/>
<path d="M65.5531 17.848H67.5591V18.4828H66.8978V21.2325H66.1966V18.4828H65.5531V17.848Z" fill="black"/>
<path d="M70.2174 17.848H72.2012V18.4784H70.9053V19.0909H72.2012V19.7079H70.9053V20.6021H72.2012V21.2325H70.2174V17.848Z" fill="black"/>
<path d="M32.7344 7.30107L31.7181 8.32491C31.0257 7.55144 30.2447 7.16694 29.3837 7.16694C28.6514 7.16694 28.039 7.43072 27.5375 7.9583C27.036 8.48587 26.7875 9.13415 26.7875 9.90763C26.7875 10.4441 26.8984 10.9225 27.1203 11.3383C27.3422 11.7541 27.6529 12.0805 28.0612 12.3219C28.465 12.5589 28.9177 12.6796 29.4103 12.6796C29.8319 12.6796 30.218 12.5947 30.5686 12.4292C30.9192 12.2638 31.3009 11.9598 31.7225 11.5216L32.7077 12.6081C32.1441 13.1893 31.6116 13.5917 31.1056 13.8197C30.6041 14.0432 30.0316 14.155 29.3837 14.155C28.1943 14.155 27.2224 13.7571 26.468 12.9613C25.7091 12.1655 25.3318 11.1461 25.3318 9.90763C25.3318 9.10286 25.5049 8.38751 25.8467 7.76605C26.1928 7.14011 26.6854 6.63937 27.3289 6.25934C27.9724 5.87931 28.6648 5.69153 29.4059 5.69153C30.0361 5.69153 30.6441 5.83013 31.2255 6.1118C31.8113 6.39347 32.3128 6.79138 32.7344 7.31001" fill="black"/>
<path d="M37.2567 8.02084L36.2315 10.7883H38.2774L37.2567 8.02084ZM36.5111 5.88373H37.9845L40.9224 13.9448H39.4091L38.81 12.2816H35.6901L35.0688 13.9448H33.5554L36.5022 5.88373H36.5111Z" fill="black"/>
<path d="M42.4269 5.88373H43.8825V12.4828H46.0039V13.9448H42.4269V5.88373Z" fill="black"/>
<path d="M46.3855 5.88373H47.8811L49.8027 11.611L51.7554 5.88373H53.2466L50.4951 13.9448H49.0927L46.3855 5.88373Z" fill="black"/>
<path d="M56.6861 8.02084L55.6609 10.7883H57.7068L56.6861 8.02084ZM55.9405 5.88373H57.4139L60.3518 13.9448H58.8385L58.2394 12.2816H55.1195L54.4981 13.9448H52.9848L55.9316 5.88373H55.9405Z" fill="black"/>
<path d="M63.1478 9.03574H63.6049C64.0665 9.03574 64.386 8.97315 64.5591 8.84349C64.7321 8.71383 64.8209 8.5037 64.8209 8.20414C64.8209 8.02531 64.7765 7.87329 64.6922 7.74364C64.6079 7.61398 64.4881 7.52009 64.346 7.46197C64.1996 7.40385 63.9333 7.37702 63.5472 7.37702H63.1478V9.03127V9.03574ZM61.6921 5.88373H63.2321C64.0753 5.88373 64.6789 5.9642 65.0339 6.12069C65.3934 6.28164 65.6819 6.54543 65.8993 6.91204C66.1168 7.28313 66.2277 7.71681 66.2277 8.22203C66.2277 8.7496 66.1079 9.19669 65.8683 9.5499C65.6286 9.90757 65.2647 10.1758 64.781 10.3591L66.5916 13.9448H64.9984L63.2809 10.529H63.1478V13.9448H61.6921V5.88373Z" fill="black"/>
<path d="M71.4555 5.88373L70.0354 8.78537L68.6108 5.88373H67.0486L69.2943 10.453V13.9448H70.7632V10.453L73 5.88373H71.4555Z" fill="black"/>
<path d="M20.4279 7.19819L18.0181 9.66614C16.3805 7.80623 14.5343 6.87628 12.484 6.87628C10.7532 6.87628 9.29751 7.51115 8.11258 8.7809C6.92764 10.0506 6.33739 11.6155 6.33739 13.4754C6.33739 14.7719 6.59923 15.921 7.12291 16.9269C7.64659 17.9329 8.38773 18.7198 9.35077 19.2965C10.3094 19.8688 11.3745 20.155 12.5461 20.155C13.5446 20.155 14.4589 19.9538 15.2888 19.5558C16.1187 19.1535 17.0284 18.4247 18.0181 17.3651L20.3525 19.9806C19.0166 21.3845 17.7518 22.3547 16.5624 22.8956C15.3731 23.4366 14.0151 23.7093 12.4884 23.7093C9.67474 23.7093 7.37144 22.7526 5.5785 20.8345C3.78557 18.9165 2.8891 16.462 2.8891 13.4664C2.8891 11.5261 3.29739 9.80474 4.11398 8.29803C4.93056 6.79133 6.09774 5.57971 7.61996 4.66317C9.14218 3.74662 10.7798 3.29059 12.5372 3.29059C14.0284 3.29059 15.4663 3.63038 16.8509 4.30549C18.2356 4.98507 19.4249 5.94632 20.4279 7.19371" fill="black"/>
<path d="M12.6881 27C9.00019 27 5.93356 25.7168 3.56368 23.1907C1.19825 20.6602 0 17.3875 0 13.4575C0 10.9136 0.54587 8.61997 1.62429 6.62593C2.70272 4.63636 4.26488 3.01341 6.27084 1.80626C8.26793 0.608047 10.447 0 12.7503 0C14.703 0 16.6113 0.447094 18.422 1.33681C20.2327 2.22653 21.817 3.50521 23.1218 5.13711L21.8925 6.27272C20.7386 4.83308 19.3406 3.70641 17.7474 2.92399C14.2725 1.22504 10.305 1.38152 7.0608 3.33532C5.31668 4.38599 3.95866 5.78986 3.02669 7.51117C2.09472 9.23248 1.62429 11.2355 1.62429 13.4665C1.62429 16.9627 2.63171 19.7392 4.71312 21.9612C6.79452 24.1833 9.39961 25.2608 12.6881 25.2608C14.4589 25.2608 16.0477 24.9478 17.4101 24.3264C18.7815 23.7004 20.2771 22.5469 21.8481 20.8972L22.9842 22.1445C21.2667 23.9463 19.6069 25.2206 18.0448 25.9314C16.4782 26.6468 14.6763 27.0089 12.6881 27.0089" fill="black"/>
</g>
<defs>
<clipPath id="clip0_898_7776">
<rect width="73" height="27" fill="white"/>
</clipPath>
</defs>
</svg>
