<svg width="241" height="13" viewBox="0 0 241 13" fill="none" xmlns="http://www.w3.org/2000/svg">
<path d="M7.50237 10L6.66237 8.056H2.46237L1.63437 10H0.0263724L3.80637 1.6H5.34237L9.13437 10H7.50237ZM2.99037 6.832H6.14637L4.56237 3.16L2.99037 6.832ZM14.0335 10.12C11.4655 10.12 9.54547 8.308 9.54547 5.8C9.54547 3.292 11.4655 1.48 14.0455 1.48C15.4135 1.48 16.5895 1.972 17.3695 2.884L16.3615 3.832C15.7495 3.172 14.9935 2.848 14.1175 2.848C12.3775 2.848 11.1175 4.072 11.1175 5.8C11.1175 7.528 12.3775 8.752 14.1175 8.752C14.9935 8.752 15.7495 8.428 16.3615 7.756L17.3695 8.716C16.5895 9.628 15.4135 10.12 14.0335 10.12ZM22.6364 10.12C20.0684 10.12 18.1484 8.308 18.1484 5.8C18.1484 3.292 20.0684 1.48 22.6484 1.48C24.0164 1.48 25.1924 1.972 25.9724 2.884L24.9644 3.832C24.3524 3.172 23.5964 2.848 22.7204 2.848C20.9804 2.848 19.7204 4.072 19.7204 5.8C19.7204 7.528 20.9804 8.752 22.7204 8.752C23.5964 8.752 24.3524 8.428 24.9644 7.756L25.9724 8.716C25.1924 9.628 24.0164 10.12 22.6364 10.12ZM31.2754 10.12C28.6714 10.12 26.7514 8.284 26.7514 5.8C26.7514 3.316 28.6714 1.48 31.2754 1.48C33.8794 1.48 35.7994 3.304 35.7994 5.8C35.7994 8.296 33.8794 10.12 31.2754 10.12ZM31.2754 8.752C32.9674 8.752 34.2274 7.516 34.2274 5.8C34.2274 4.084 32.9674 2.848 31.2754 2.848C29.5834 2.848 28.3234 4.084 28.3234 5.8C28.3234 7.516 29.5834 8.752 31.2754 8.752ZM44.0617 1.6L40.7737 7.036V10H39.2137V7.06L35.9137 1.6H37.5817L40.0417 5.692L42.5257 1.6H44.0617ZM50.9274 10L50.0874 8.056H45.8874L45.0594 10H43.4514L47.2314 1.6H48.7674L52.5594 10H50.9274ZM46.4154 6.832H49.5714L47.9874 3.16L46.4154 6.832ZM55.4253 0.9384C56.8725 0.9384 57.9597 2.0328 57.9597 3.4656C57.9597 4.8984 56.8437 6.0216 55.4109 6.0216C53.9781 6.0216 52.8765 4.8984 52.8765 3.48C52.8765 2.0616 53.9781 0.9384 55.4253 0.9384ZM55.4109 5.6256C56.6205 5.6256 57.5421 4.6752 57.5421 3.4656C57.5421 2.256 56.6493 1.3344 55.4253 1.3344C54.1941 1.3344 53.2869 2.2776 53.2869 3.48C53.2869 4.6824 54.1941 5.6256 55.4109 5.6256ZM56.7285 3.048C56.7285 3.4728 56.5269 3.7752 56.1597 3.9264L56.7933 4.8984H56.1741L55.6125 4.0344H55.5333H54.9717V4.8984H54.3525V2.0616H55.5333C56.2821 2.0616 56.7285 2.4504 56.7285 3.048ZM54.9645 3.552H55.4973C55.9005 3.552 56.1309 3.3648 56.1309 3.048C56.1309 2.7312 55.9005 2.5512 55.4973 2.5512H54.9645V3.552ZM62.8165 12.328V1.096H64.1965V12.328H62.8165ZM79.0777 10H77.6017L77.5897 4.432L74.8297 9.04H74.1337L71.3737 4.504V10H69.8857V1.6H71.1697L74.5057 7.168L77.7817 1.6H79.0657L79.0777 10ZM82.9666 8.692H87.7066V10H81.4066V1.6H87.5386V2.908H82.9666V5.092H87.0226V6.376H82.9666V8.692ZM96.6817 10H95.0017L93.2857 7.54C93.1777 7.552 93.0697 7.552 92.9617 7.552H91.0657V10H89.5057V1.6H92.9617C95.1697 1.6 96.5377 2.728 96.5377 4.588C96.5377 5.86 95.8897 6.796 94.7497 7.24L96.6817 10ZM94.9657 4.588C94.9657 3.532 94.2577 2.92 92.8897 2.92H91.0657V6.268H92.8897C94.2577 6.268 94.9657 5.644 94.9657 4.588ZM104.295 5.632C105.195 5.92 105.807 6.628 105.807 7.72C105.807 9.16 104.679 10 102.519 10H98.343V1.6H102.279C104.295 1.6 105.375 2.452 105.375 3.784C105.375 4.648 104.943 5.284 104.295 5.632ZM102.111 2.824H99.903V5.14H102.111C103.191 5.14 103.803 4.756 103.803 3.988C103.803 3.208 103.191 2.824 102.111 2.824ZM102.423 8.776C103.599 8.776 104.235 8.404 104.235 7.564C104.235 6.724 103.599 6.352 102.423 6.352H99.903V8.776H102.423ZM113.82 10L112.98 8.056H108.78L107.952 10H106.344L110.124 1.6H111.66L115.452 10H113.82ZM109.308 6.832H112.464L110.88 3.16L109.308 6.832ZM120.016 10.12C117.712 10.12 116.332 8.788 116.332 6.34V1.6H117.892V6.28C117.892 8.008 118.672 8.752 120.028 8.752C121.384 8.752 122.152 8.008 122.152 6.28V1.6H123.688V6.34C123.688 8.788 122.308 10.12 120.016 10.12ZM129.31 12.328V1.096H130.69V12.328H129.31ZM140.267 10.12C137.699 10.12 135.779 8.308 135.779 5.8C135.779 3.292 137.699 1.48 140.279 1.48C141.647 1.48 142.823 1.972 143.603 2.884L142.595 3.832C141.983 3.172 141.227 2.848 140.351 2.848C138.611 2.848 137.351 4.072 137.351 5.8C137.351 7.528 138.611 8.752 140.351 8.752C141.227 8.752 141.983 8.428 142.595 7.756L143.603 8.716C142.823 9.628 141.647 10.12 140.267 10.12ZM151.062 1.6H152.622V10H151.062V6.4H146.718V10H145.158V1.6H146.718V5.068H151.062V1.6ZM156.492 8.692H161.232V10H154.932V1.6H161.064V2.908H156.492V5.092H160.548V6.376H156.492V8.692ZM168.947 1.6H170.495V10H169.211L164.579 4.312V10H163.031V1.6H164.315L168.947 7.288V1.6ZM178.542 8.32V5.704H180.018V9.052C179.142 9.76 177.918 10.12 176.73 10.12C174.126 10.12 172.206 8.308 172.206 5.8C172.206 3.292 174.126 1.48 176.754 1.48C178.158 1.48 179.334 1.948 180.126 2.848L179.142 3.808C178.482 3.148 177.726 2.848 176.826 2.848C175.038 2.848 173.778 4.06 173.778 5.8C173.778 7.504 175.038 8.752 176.814 8.752C177.414 8.752 178.002 8.632 178.542 8.32ZM188.424 10L187.584 8.056H183.384L182.556 10H180.948L184.728 1.6H186.264L190.056 10H188.424ZM183.912 6.832H187.068L185.484 3.16L183.912 6.832ZM191.184 10V1.6H192.744V8.68H197.136V10H191.184ZM201.804 12.328V1.096H203.184V12.328H201.804ZM210.577 10V2.92H207.793V1.6H214.921V2.92H212.137V10H210.577ZM217.712 8.692H222.452V10H216.152V1.6H222.284V2.908H217.712V5.092H221.768V6.376H217.712V8.692ZM230.539 10L229.699 8.056H225.499L224.671 10H223.063L226.843 1.6H228.379L232.171 10H230.539ZM226.027 6.832H229.183L227.599 3.16L226.027 6.832ZM239.155 10L236.191 6.484L234.859 7.852V10H233.299V1.6H234.859V5.908L239.011 1.6H240.763L237.235 5.356L240.979 10H239.155Z" fill="black"/>
</svg>
