<svg width="60" height="60" viewBox="0 0 60 60" fill="none" xmlns="http://www.w3.org/2000/svg">
<g clip-path="url(#clip0_898_7719)">
<path d="M47.4918 29.9973C47.4918 39.6941 39.6314 47.5551 29.9355 47.5551C20.2397 47.5551 12.3793 39.6941 12.3793 29.9973C12.3793 20.3006 20.2397 12.4395 29.9355 12.4395C39.6314 12.4395 47.4918 20.3006 47.4918 29.9973ZM28.5319 0V7.35895H31.3338V0M16.1475 3.32044L13.7182 4.7242L17.4 11.1005L19.824 9.69675L16.1475 3.32044ZM4.65392 13.7893L3.25568 16.2134L9.63143 19.8956L11.0297 17.4714L4.65392 13.7893ZM-0.0644531 28.5989V31.4011H7.29383V28.5989H-0.0644531ZM3.25568 43.7866L4.65392 46.2161L11.0297 42.534L9.63143 40.1098L3.25568 43.7866ZM13.7236 55.2812L16.1529 56.6796L19.8348 50.3086L17.4108 48.9103L13.729 55.2866L13.7236 55.2812ZM28.5373 60H31.3392V52.6411H28.5373V60ZM43.7236 56.6796L46.1475 55.2758L42.4711 48.8995L40.0417 50.2979L43.7182 56.6742L43.7236 56.6796ZM55.2172 46.2107L56.6154 43.7866L50.2451 40.1044L48.8414 42.5286L55.2172 46.2107ZM59.9355 31.4011V28.5989H52.5773V31.4011H59.9355ZM56.6154 16.2134L55.2118 13.7893L48.836 17.466L50.2397 19.8956L56.6154 16.2188V16.2134ZM46.1475 4.7188L43.7182 3.32044L40.0363 9.69135L42.4603 11.0951L46.1421 4.7188H46.1475Z" fill="black"/>
</g>
<defs>
<clipPath id="clip0_898_7719">
<rect width="60" height="60" fill="white"/>
</clipPath>
</defs>
</svg>
