<svg width="60" height="60" viewBox="0 0 60 60" fill="none" xmlns="http://www.w3.org/2000/svg">
<path d="M49.7184 59.9864C49.202 59.9864 48.7263 59.7282 48.4681 59.2661L44.8804 52.6614C44.7173 52.3624 44.6357 52.0634 44.6629 51.7916L44.8804 49.3862C44.8804 49.3046 44.9075 49.2095 44.9347 49.128L43.4806 46.4643C43.4806 46.4643 43.1001 46.2197 42.3526 46.3964C41.1703 46.6682 31.6709 48.5572 30.7739 48.7339C29.8906 49.0057 28.0967 49.0872 27.2541 47.5515C26.4115 46.0159 25.6233 44.5617 25.6233 44.5617C25.134 43.5425 25.0525 41.7622 26.6969 40.8109C26.4387 39.9819 26.4251 39.0985 26.6697 38.2559C26.9959 37.1416 27.7433 36.2174 28.7626 35.6602L44.1465 27.2888C46.253 26.1336 48.903 26.9219 50.0582 29.0283L50.2484 29.3817C50.8056 30.4009 50.9279 31.5832 50.6018 32.6976C50.2756 33.812 49.5282 34.7361 48.5089 35.2933L33.125 43.6648C32.1057 44.222 30.9234 44.3443 29.809 44.0181C28.9528 43.7599 28.219 43.2707 27.6618 42.5912C27.1997 42.8766 27.2813 43.325 27.4172 43.6648C27.4172 43.6648 28.1782 45.0917 29.0072 46.5866C29.279 47.0759 30.1895 46.8041 30.1895 46.8041L30.3118 46.7769C30.4206 46.7633 40.6946 44.7112 41.8906 44.4394C43.9698 43.9638 45.0027 44.9694 45.3288 45.6897L46.6878 48.1903C46.7694 48.2174 46.8509 48.2446 46.9189 48.2854L49.0525 49.3998C49.1476 49.4541 49.4059 49.59 49.6641 50.0521L53.2654 56.6568C53.6323 57.3499 53.3605 58.2197 52.6403 58.6002L50.4251 59.8097C50.1941 59.932 49.9359 60 49.6912 60M46.6607 51.7644L49.9223 57.7712L51.1861 57.0781L47.9245 51.0713L46.783 50.4734L46.6607 51.7508V51.7644ZM46.2258 28.7973C45.8453 28.7973 45.4647 28.8924 45.1114 29.0827L29.7139 37.4541C29.1703 37.7531 28.7626 38.2424 28.5859 38.8403C28.4092 39.4383 28.4772 40.0634 28.7762 40.6206L28.9664 40.9739C29.2654 41.5176 29.7547 41.9253 30.3526 42.1019C30.9506 42.2786 31.5757 42.2106 32.1329 41.9117L47.5304 33.5402C48.074 33.2412 48.4817 32.752 48.6584 32.154C48.8351 31.5561 48.7671 30.9173 48.4681 30.3737L48.2779 30.0204C47.8566 29.2458 47.0548 28.8109 46.2258 28.8109M19.0321 0C37.963 1.359 45.3968 18.2514 45.1929 24.1903L25.8135 35.2525C21.7365 25.0193 6.18954 23.6602 6.18954 23.6602C4.16462 17.5719 19.0321 0 19.0321 0Z" fill="black"/>
</svg>
