<?xml version="1.0" encoding="UTF-8"?>
<svg id="Layer_2" data-name="Layer 2" xmlns="http://www.w3.org/2000/svg" viewBox="0 0 62.09 62.09">
  <defs>
    <style>
      .cls-1, .cls-2 {
        stroke-width: 0px;
      }

      .cls-2 {
        fill: #fff;
      }
    </style>
  </defs>
  <g id="Layer_1-2" data-name="Layer 1">
    <circle class="cls-2" cx="31.05" cy="31.05" r="28"/>
    <path class="cls-1" d="M26.41,22.08l-1.46-4.65,2.73,4.03.71-4.82.71,4.82,2.73-4.03-1.46,4.65,4.2-2.45-3.32,3.55,4.85-.39-4.54,1.75,4.54,1.75-4.85-.39,3.32,3.55-4.2-2.45,1.46,4.65-2.73-4.03-.71,4.81-.71-4.81-2.73,4.03,1.46-4.65-4.2,2.45,3.33-3.55-4.85.39,4.54-1.75-4.54-1.75,4.85.39-3.33-3.55,4.2,2.45ZM11.22,30.06c-3.05-4.25-2.08-10.16,2.18-13.21,3.3-2.37,7.74-2.37,11.04,0-4.25-1.89-9.22.03-11.11,4.28s.03,9.22,4.28,11.11c2.18.96,4.65.96,6.83,0-4.25,3.05-10.16,2.08-13.21-2.18M55.7,41.56c-.8,1.87-1.8,3.62-2.98,5.24H9.38c-1.18-1.62-2.19-3.38-2.98-5.24-1.38-3.22-2.14-6.78-2.14-10.51,0-14.79,11.99-26.78,26.79-26.78,3.02,0,5.92.5,8.62,1.41v4.4h8.05c1.9,1.51,3.59,3.27,5.02,5.24h-13.07v5.24h16.04c.71,1.67,1.25,3.42,1.61,5.24h-17.66v5.24h18.17c0,1.79-.18,3.55-.52,5.24h-17.65v5.24h16.03l.02.02ZM36.44,57.3h-10.77c-4.19-.86-8.02-2.68-11.24-5.24h33.26c-3.23,2.56-7.06,4.39-11.24,5.24ZM31.05,0C13.9,0,0,13.9,0,31.05s13.9,31.05,31.05,31.05,31.05-13.9,31.05-31.05S48.19,0,31.05,0"/>
  </g>
</svg>