<?xml version="1.0" encoding="UTF-8"?>
<svg id="Layer_2" data-name="Layer 2" xmlns="http://www.w3.org/2000/svg" viewBox="0 0 62.52 62.52">
  <defs>
    <style>
      .cls-1 {
        fill: #fff;
      }

      .cls-1, .cls-2 {
        stroke-width: 0px;
      }

      .cls-2 {
        fill: #010101;
      }
    </style>
  </defs>
  <g id="Layer_1-2" data-name="Layer 1">
    <g>
      <ellipse class="cls-1" cx="31.26" cy="31.26" rx="27.58" ry="28.2"/>
      <path class="cls-2" d="M39.15,21.97l-.68-2.08-.68,2.08h-2.19l1.77,1.29-.68,2.08,1.77-1.29,1.77,1.29-.68-2.08,1.77-1.29h-2.19.03ZM56.17,41.62c1.33-3.19,2.07-6.68,2.07-10.36,0-14.89-12.07-26.98-26.98-26.98S4.28,16.35,4.28,31.26c0,3.68.74,7.18,2.05,10.36h49.84ZM62.52,31.26c0,17.27-14.01,31.26-31.26,31.26S0,48.52,0,31.26,13.99,0,31.26,0s31.26,14.01,31.26,31.26ZM36.53,30.25l-.68-2.08-.68,2.08h-2.19l1.77,1.29-.68,2.08,1.77-1.29,1.77,1.29-.68-2.08,1.77-1.29h-2.19.03ZM25.21,21.97l-.68-2.08-.68,2.08h-2.19l1.77,1.29-.68,2.08,1.77-1.29,1.77,1.29-.68-2.08,1.77-1.29h-2.19.03ZM17.17,25.17c0-6.65,5.26-12.07,11.85-12.33-1.35-.47-2.8-.72-4.32-.72-7.22,0-13.07,5.85-13.07,13.07s5.85,13.07,13.07,13.07c1.5,0,2.96-.25,4.32-.72-6.59-.27-11.85-5.69-11.85-12.34M32.61,18.1l1.77-1.29h-2.19l-.68-2.08-.68,2.08h-2.19l1.77,1.29-.68,2.08,1.77-1.29,1.77,1.29-.68-2.08h.03ZM27.82,30.25h2.19l-1.77,1.29.68,2.08-1.77-1.29-1.77,1.29.68-2.08-1.77-1.29h2.19l.68-2.08.68,2.08h-.03Z"/>
    </g>
  </g>
</svg>