<svg width="38" height="38" viewBox="0 0 38 38" fill="white" xmlns="http://www.w3.org/2000/svg">
<path d="M24.8096 18.5997C24.5548 17.9269 24.0976 17.585 23.4727 17.5845C20.8402 17.5818 18.208 17.5831 15.5098 17.474C15.9339 16.9946 16.3509 16.5088 16.7898 16.044C16.8524 15.9775 17.0209 16.006 17.1403 16.0064C19.2445 16.0128 21.3488 16.0481 23.4526 16.0216C25.1086 16.0005 26.2716 17.2857 26.4396 18.9256C26.559 20.0912 26.2997 21.161 25.4362 22.0002C24.9405 22.4819 24.3309 22.7578 23.6479 22.7716C21.6657 22.811 19.683 22.8307 17.7007 22.839C16.4895 22.844 15.6877 22.107 15.5312 20.891C15.377 19.6933 16.2548 18.6217 17.4558 18.6098C19.7111 18.5874 21.9669 18.6016 24.2223 18.6002C24.4037 18.6002 24.5852 18.6002 24.81 18.6002L24.8096 18.5997ZM24.9007 20.1173C24.8163 20.1081 24.7573 20.0962 24.6978 20.0962C22.367 20.0948 20.0361 20.0944 17.7052 20.0953C17.6149 20.0953 17.5202 20.0944 17.4352 20.1196C17.1572 20.203 16.9145 20.3644 16.919 20.6806C16.9235 20.9795 17.1054 21.1921 17.4178 21.2471C17.5358 21.2677 17.6543 21.2994 17.7727 21.2998C19.5891 21.3026 21.4051 21.3085 23.2215 21.2971C23.9648 21.2925 24.7836 20.8122 24.9007 20.1164V20.1173Z" fill="white"/>
<path d="M27.0841 16.0926C27.2482 15.989 27.4033 16.0284 27.5503 16.0284C30.5489 16.0257 33.5475 16.0261 36.5462 16.0266C37.3395 16.0266 37.9813 16.6632 37.9965 17.4658C38.0028 17.8054 37.9988 18.145 37.9983 18.4847C37.9979 19.4587 37.3123 20.165 36.3513 20.1673C33.898 20.1728 31.4446 20.1728 28.9908 20.1751C28.8568 20.1751 28.7227 20.1751 28.4929 20.1751C28.8862 21.54 27.7742 22.0171 27.0837 22.8298V16.0926H27.0841ZM28.4925 17.5597V18.6057C28.5805 18.6199 28.6525 18.6414 28.724 18.6414C31.1456 18.6414 33.5672 18.6373 35.9893 18.6391C36.3821 18.6391 36.6315 18.4865 36.6423 18.0593C36.6525 17.6459 36.4657 17.497 35.9517 17.497C33.6208 17.496 31.29 17.496 28.9591 17.4983C28.8121 17.4983 28.6579 17.4607 28.4929 17.5602L28.4925 17.5597Z" fill="fill"/>
<path d="M10.9432 16.0664C10.4806 16.5702 10.0676 17.0171 9.65776 17.4671C9.52323 17.6152 9.35204 17.5749 9.1898 17.573C7.14677 17.5501 5.10329 17.524 3.06025 17.5011C1.81995 17.4869 1.22416 18.1712 1.3797 19.4261C1.39847 19.5787 1.42842 19.7309 1.4378 19.8844C1.4892 20.7296 1.99829 21.2178 2.84124 21.2178C5.33972 21.2187 7.83776 21.2178 10.3362 21.2178H10.9334C10.465 21.7733 10.0551 22.2541 9.65195 22.7404C9.54826 22.8655 9.42177 22.8637 9.28366 22.8637C7.08821 22.8623 4.89277 22.8765 2.69732 22.8573C1.25902 22.8453 0.0111212 21.5267 0.00396992 20.0605C0.00173515 19.6438 0.0173786 19.2267 0.0021821 18.8105C-0.0384909 17.7027 0.492492 16.9139 1.33813 16.3034C1.59915 16.115 1.89549 16.0147 2.22713 16.0156C5.05859 16.0238 7.88961 16.0257 10.7211 16.0307C10.7635 16.0307 10.806 16.044 10.9432 16.0664Z" fill="fill"/>
<path d="M12.5138 22.8229H11.1904C11.0541 22.6932 11.1014 22.5456 11.101 22.414C11.0974 20.8713 11.1037 19.328 11.0938 17.7852C11.0925 17.5359 11.1461 17.3388 11.3316 17.1724C11.7375 16.8076 12.1366 16.4349 12.5134 16.0884V22.8229H12.5138Z" fill="fill"/>
<path d="M13.2642 19.3826C13.2598 18.7945 13.6486 18.3517 14.1742 18.3462C14.6954 18.3407 15.1102 18.7872 15.116 19.3606C15.1222 19.9509 14.7414 20.3707 14.1957 20.3753C13.6352 20.3799 13.2683 19.9889 13.2638 19.3821L13.2642 19.3826Z" fill="fill"/>
</svg>
