<svg width="38" height="38" viewBox="0 0 38 38" fill="white" xmlns="http://www.w3.org/2000/svg">
<path d="M0.00279871 16.3486C0.00279871 13.954 0.00335845 11.5594 0 9.16486C0 9.04563 0.0235092 9.00757 0.15225 9.00813C2.01003 9.00869 3.86782 8.99582 5.7256 9.00141C6.73313 9.00421 7.69981 9.20684 8.60155 9.6759C9.83075 10.3151 10.6043 11.3299 11.0476 12.6224C11.3471 13.4945 11.5122 14.3928 11.5934 15.3086C11.6745 16.2198 11.6785 17.1317 11.5682 18.0412C11.4243 19.2273 11.121 20.3608 10.4526 21.3706C9.59118 22.6725 8.37318 23.4164 6.83837 23.6555C6.60663 23.6913 6.37378 23.7025 6.13925 23.7025C4.13033 23.7025 2.12086 23.7014 0.111948 23.7058C-0.00335845 23.7058 0.00279871 23.6527 0.00279871 23.5732C0.00391819 21.1652 0.00391819 18.7566 0.00391819 16.3486H0.00279871ZM2.86924 16.4258C2.87931 16.4258 2.88939 16.4258 2.89946 16.4258C2.89946 17.9304 2.90058 19.435 2.89722 20.939C2.89722 21.0476 2.91514 21.0862 3.03548 21.0857C3.87005 21.0795 4.70519 21.0834 5.53976 21.0818C5.87113 21.0812 6.19858 21.0426 6.51651 20.9435C7.4636 20.6474 8.04741 19.9791 8.41068 19.0874C8.66424 18.4655 8.77843 17.8134 8.82825 17.1479C8.89486 16.2568 8.88142 15.3696 8.6788 14.4947C8.49912 13.7167 8.18231 13.0075 7.57555 12.4634C7.09361 12.0313 6.53834 11.7766 5.87169 11.7856C4.91789 11.7979 3.96353 11.7906 3.00917 11.7856C2.89666 11.785 2.86588 11.8096 2.86644 11.9261C2.87092 13.4262 2.86924 14.9257 2.86924 16.4258Z" fill="white"/>
<path d="M23.9105 14.7007C23.5114 14.7007 23.1123 14.6973 22.7132 14.7029C22.6247 14.7041 22.5856 14.6755 22.5536 14.5955C22.3661 14.123 22.1758 13.6517 21.8898 13.2275C21.4073 12.5116 20.7843 11.9804 19.9313 11.7688C18.8073 11.49 17.6984 11.9104 17.0128 12.8586C16.5499 13.4989 16.3041 14.2283 16.1513 14.9934C15.9045 16.2271 15.942 17.4479 16.3623 18.6402C16.7066 19.6175 17.3156 20.3787 18.303 20.7593C19.479 21.2122 20.538 20.9547 21.4532 20.1145C21.9374 19.6701 22.2312 19.1025 22.3863 18.4633C22.4221 18.3166 22.4658 18.1717 22.501 18.025C22.5167 17.9612 22.5441 17.941 22.6141 17.941C23.536 17.9444 24.4579 17.9438 25.3798 17.9427C25.4386 17.9427 25.4906 17.931 25.4609 18.025C25.1777 18.9284 24.9337 19.8481 24.4909 20.6916C23.653 22.2863 22.3202 23.2222 20.5682 23.5687C19.343 23.8111 18.1306 23.7545 16.9579 23.2944C15.6526 22.7817 14.7497 21.8346 14.129 20.5998C13.6017 19.5503 13.3381 18.4263 13.2244 17.2649C13.0845 15.8325 13.2384 14.427 13.6627 13.0539C14.0098 11.9311 14.5924 10.9549 15.5401 10.2272C16.3299 9.62049 17.2383 9.30087 18.2129 9.15198C18.95 9.03947 19.69 9.00085 20.4317 9.11672C21.9133 9.34789 23.0888 10.0856 23.9978 11.2667C24.693 12.1707 25.0423 13.2095 25.1951 14.3257C25.2063 14.4074 25.2057 14.4925 25.2292 14.5703C25.2667 14.6962 25.2051 14.7007 25.1072 14.6996C24.7081 14.6957 24.309 14.6979 23.9099 14.6979L23.9105 14.7007Z" fill="white"/>
<path d="M25.5153 23.7019C25.6166 23.398 25.7162 23.1002 25.8153 22.8024C26.6286 20.3547 27.4408 17.9069 28.2546 15.4592C28.9532 13.3573 29.6551 11.2572 30.3509 9.15422C30.3912 9.03164 30.4471 9.00085 30.5714 9.00141C31.4289 9.00757 32.287 9.00589 33.1445 9.00253C33.2509 9.00253 33.2738 9.01596 33.2369 9.12903C32.1023 12.5793 30.9722 16.0312 29.8409 19.4826C29.392 20.8523 28.9431 22.2214 28.4953 23.5916C28.4713 23.6655 28.4477 23.712 28.3504 23.7114C27.4285 23.7069 26.5066 23.7086 25.5847 23.7086C25.5668 23.7086 25.5488 23.7053 25.5164 23.7019H25.5153Z" fill="white"/>
<path d="M33.6578 10.3056C33.7636 10.6303 33.87 10.9555 33.9752 11.2801C34.6407 13.3265 35.3057 15.3729 35.9713 17.4194C36.6334 19.4574 37.2956 21.4954 37.9578 23.5334C37.9899 23.6323 37.9548 23.6818 37.8525 23.6818C36.9721 23.6818 36.091 23.6801 35.2106 23.684C35.1165 23.684 35.0757 23.6594 35.0471 23.5681C34.4348 21.6101 33.8191 19.6533 33.2045 17.6959C32.882 16.6693 32.5596 15.6433 32.2361 14.6173C32.2176 14.5591 32.2092 14.5065 32.2299 14.4443C32.69 13.0825 33.1479 11.7195 33.6069 10.3571C33.6125 10.3403 33.6203 10.3241 33.6271 10.3073C33.6371 10.3067 33.6478 10.3062 33.6578 10.3056Z" fill="#878787"/>
<path d="M4.39564 28.1273C4.3072 28.1273 4.23891 28.1217 4.1723 28.129C4.09898 28.1368 4.06819 28.1027 4.04132 28.0405C3.93049 27.7898 3.81183 27.5418 3.70324 27.2899C3.67301 27.2205 3.63887 27.192 3.56218 27.1953C3.42505 27.202 3.28679 27.2037 3.14965 27.1953C3.05394 27.1892 3.03659 27.2261 3.03827 27.3123C3.04386 27.5457 3.03211 27.7803 3.04386 28.0137C3.05002 28.1368 2.98677 28.1312 2.90505 28.1273C2.83228 28.1239 2.75616 28.1553 2.75728 28.0209C2.76455 27.3425 2.76175 26.6641 2.75895 25.9857C2.75895 25.9107 2.77407 25.8827 2.85523 25.8844C3.14406 25.8894 3.43288 25.8788 3.72171 25.8894C3.98423 25.899 4.20925 25.9992 4.32175 26.2533C4.42922 26.4962 4.41411 26.7352 4.24227 26.9518C4.19245 27.0145 4.13312 27.0711 4.06035 27.0935C3.94001 27.1298 3.9652 27.1875 4.00494 27.2714C4.13536 27.548 4.25962 27.8278 4.3962 28.1279L4.39564 28.1273ZM3.03995 26.5113C3.03995 26.6401 3.03995 26.7453 3.03995 26.8511C3.03995 26.8869 3.03155 26.9328 3.08752 26.9306C3.33829 26.9216 3.59297 26.967 3.83982 26.9009C4.02565 26.8511 4.10122 26.7145 4.08666 26.4962C4.07491 26.3143 3.96464 26.1861 3.78328 26.1626C3.66574 26.1475 3.54595 26.1464 3.42673 26.1469C3.30358 26.1475 3.14462 26.0949 3.06737 26.1671C2.98285 26.2466 3.05338 26.4089 3.03939 26.5113H3.03995Z" fill="white"/>
<path d="M21.4997 28.1676C21.0513 28.1704 20.7278 27.9487 20.6399 27.572C20.6281 27.5217 20.5694 27.4433 20.6701 27.4159C20.8061 27.3789 20.9013 27.4215 20.9276 27.5138C20.9785 27.6924 21.0832 27.8278 21.269 27.8737C21.4678 27.923 21.6676 27.9336 21.8551 27.8222C21.9872 27.7439 22.0437 27.6263 22.0275 27.4758C22.0118 27.3269 21.9211 27.2351 21.7846 27.1903C21.6099 27.1326 21.4241 27.1304 21.2444 27.0946C20.8772 27.0212 20.6746 26.7845 20.7093 26.4475C20.7378 26.1738 20.9108 26.002 21.156 25.9046C21.5181 25.7607 21.9374 25.8676 22.1506 26.152C22.1887 26.2023 22.2212 26.26 22.2436 26.3188C22.2693 26.3854 22.3169 26.4789 22.2676 26.5248C22.2128 26.5763 22.1115 26.5399 22.0303 26.5415C21.9788 26.5427 21.9838 26.494 21.976 26.4604C21.9329 26.2773 21.8193 26.1643 21.6362 26.1245C21.4386 26.082 21.2511 26.0966 21.1011 26.2505C20.9142 26.4419 20.9791 26.7184 21.2366 26.7912C21.3983 26.8371 21.5696 26.8494 21.7364 26.878C22.1781 26.9535 22.426 27.3168 22.2978 27.698C22.2105 27.9583 21.9239 28.1463 21.5814 28.1665C21.554 28.1682 21.5265 28.1665 21.4991 28.1665L21.4997 28.1676Z" fill="white"/>
<path d="M36.3384 27.0005C36.3384 26.6658 36.3418 26.3311 36.3362 25.9963C36.3345 25.904 36.3636 25.8816 36.4515 25.8844C36.667 25.8905 36.8825 25.8861 37.098 25.8866C37.543 25.8883 37.876 26.1508 37.9589 26.5829C38.0154 26.8774 38.016 27.1757 37.946 27.4707C37.8525 27.8636 37.5715 28.1054 37.1674 28.1233C36.92 28.1345 36.672 28.1222 36.4246 28.1295C36.3418 28.1317 36.3373 28.0965 36.3379 28.0327C36.3401 27.6884 36.339 27.3447 36.339 27.0005H36.3384ZM36.62 27.0011C36.62 27.1248 36.62 27.2485 36.62 27.3722C36.62 27.5004 36.6239 27.6291 36.6183 27.7567C36.6144 27.8356 36.6295 27.8737 36.7207 27.8681C36.8579 27.8603 36.9956 27.8692 37.1327 27.8659C37.3913 27.8592 37.5928 27.7103 37.6572 27.4606C37.7339 27.1634 37.7344 26.8611 37.6594 26.5633C37.5967 26.3137 37.4282 26.1743 37.1708 26.1531C37.0208 26.1407 36.8685 26.1514 36.7179 26.1441C36.6379 26.1402 36.6166 26.1682 36.6177 26.2454C36.6222 26.4973 36.6194 26.7492 36.62 27.0011Z" fill="white"/>
<path d="M13.9477 27.0006C13.9477 26.6703 13.9521 26.3401 13.9449 26.0104C13.9426 25.9046 13.9745 25.8828 14.0759 25.8839C14.4979 25.89 14.9194 25.8912 15.3414 25.8828C15.4567 25.8805 15.4517 25.9365 15.4506 26.0154C15.4495 26.091 15.4623 26.1526 15.3442 26.1492C15.0145 26.1397 14.6837 26.1492 14.354 26.143C14.2561 26.1414 14.2287 26.1721 14.2331 26.2667C14.2404 26.4223 14.2393 26.5785 14.2331 26.7341C14.2303 26.8086 14.2572 26.8259 14.3266 26.8248C14.6154 26.8214 14.9048 26.831 15.1931 26.8203C15.328 26.8153 15.2944 26.8964 15.3006 26.9692C15.3078 27.0526 15.3017 27.1019 15.1897 27.098C14.9059 27.0884 14.621 27.0991 14.3373 27.0924C14.2483 27.0901 14.2309 27.1192 14.2331 27.1998C14.2387 27.3879 14.2399 27.576 14.2326 27.7635C14.2292 27.8525 14.2594 27.8682 14.3412 27.867C14.6759 27.8626 15.0106 27.8721 15.3453 27.8626C15.4679 27.8592 15.4467 27.9258 15.4506 27.998C15.4545 28.0786 15.4551 28.1312 15.3414 28.129C14.9104 28.1217 14.4794 28.1234 14.0484 28.1284C13.9577 28.1296 13.9443 28.0971 13.9454 28.0171C13.9493 27.6778 13.9471 27.3386 13.9471 26.9989H13.9477V27.0006Z" fill="white"/>
<path d="M28.9705 26.9977C28.9705 26.663 28.9728 26.3283 28.9689 25.9935C28.9677 25.9124 28.9834 25.8833 29.073 25.8844C29.5085 25.8894 29.9445 25.89 30.38 25.8833C30.4975 25.8816 30.4751 25.9504 30.4746 26.0165C30.474 26.0803 30.5009 26.1519 30.3811 26.1491C30.0464 26.1413 29.7116 26.1508 29.3769 26.1441C29.2756 26.1419 29.2521 26.176 29.256 26.2689C29.2627 26.4156 29.265 26.5628 29.256 26.7089C29.2499 26.8108 29.2874 26.8287 29.3797 26.827C29.6546 26.8208 29.9305 26.8326 30.2048 26.8214C30.3246 26.8164 30.3268 26.8707 30.3223 26.958C30.3184 27.0352 30.3397 27.1057 30.2104 27.1001C29.9355 27.0884 29.6601 27.0996 29.3853 27.094C29.289 27.0923 29.2476 27.1097 29.2543 27.2205C29.2655 27.403 29.2594 27.5871 29.2555 27.7707C29.2538 27.8468 29.2778 27.8709 29.3568 27.8698C29.6915 27.8653 30.0262 27.8743 30.3609 27.8648C30.4852 27.8614 30.4712 27.9258 30.4768 28.0069C30.4835 28.0993 30.4595 28.1329 30.3604 28.1318C29.9294 28.1267 29.4984 28.1273 29.0674 28.1306C28.9879 28.1312 28.9677 28.1094 28.9689 28.031C28.9733 27.6873 28.9705 27.3431 28.9705 26.9994V26.9977Z" fill="white"/>
<path d="M7.73901 26.986C7.73901 26.6512 7.74573 26.3171 7.73565 25.9823C7.73229 25.8648 7.79834 25.8788 7.86271 25.8877C7.92317 25.8961 8.02672 25.8295 8.02224 25.9773C8.0144 26.2197 8.02336 26.4632 8.01832 26.7055C8.01664 26.7895 8.0312 26.8253 8.12747 26.8231C8.41574 26.8158 8.70457 26.8175 8.99339 26.822C9.07176 26.8231 9.09415 26.8001 9.09247 26.7229C9.08799 26.4755 9.0975 26.2281 9.08799 25.9807C9.08295 25.8502 9.16691 25.8866 9.23072 25.8872C9.29453 25.8872 9.3757 25.8502 9.37458 25.9807C9.36898 26.6635 9.36898 27.3459 9.37458 28.0288C9.3757 28.1855 9.27102 28.1127 9.20609 28.1256C9.12717 28.1407 9.08407 28.1228 9.08743 28.0209C9.09638 27.7511 9.08743 27.4802 9.09247 27.2099C9.09415 27.1242 9.07679 27.0901 8.98164 27.0923C8.69337 27.099 8.40454 27.0973 8.11572 27.0929C8.03567 27.0918 8.01608 27.1175 8.01776 27.1947C8.02224 27.4741 8.01552 27.7539 8.02112 28.0332C8.02392 28.1894 7.91309 28.1105 7.84928 28.1245C7.77763 28.1407 7.73341 28.1267 7.73509 28.0293C7.74181 27.6812 7.73789 27.333 7.73789 26.9848L7.73901 26.986Z" fill="white"/>
<path d="M24.4081 27.0106C24.4081 26.6714 24.4104 26.3327 24.4065 25.9935C24.4053 25.9135 24.4199 25.8816 24.5106 25.8844C24.7759 25.8917 25.0418 25.8816 25.3076 25.8889C25.5646 25.8956 25.7896 25.9818 25.9049 26.2303C26.0269 26.4923 26.0174 26.757 25.8528 27.0011C25.7196 27.1992 25.5108 27.2507 25.2892 27.2586C25.1291 27.2641 24.9684 27.2641 24.8083 27.2586C24.7221 27.2552 24.6897 27.2759 24.6925 27.3699C24.6998 27.5894 24.6874 27.8099 24.6975 28.0293C24.7042 28.1726 24.608 28.1217 24.543 28.1267C24.4736 28.1323 24.4014 28.153 24.4048 28.0276C24.4137 27.689 24.4081 27.3498 24.4081 27.0111V27.0106ZM24.6953 26.5477C24.6953 26.6882 24.6953 26.8024 24.6953 26.9171C24.6953 26.9596 24.693 27.0033 24.7557 26.9999C24.9662 26.9893 25.1778 27.0156 25.3871 26.9843C25.508 26.9664 25.5976 26.8986 25.6474 26.7845C25.7913 26.4542 25.6172 26.1659 25.2589 26.1419C25.213 26.1391 25.1671 26.1385 25.1212 26.1407C24.9847 26.1475 24.8061 26.0825 24.7227 26.1637C24.632 26.2521 24.7082 26.4329 24.6942 26.5471L24.6953 26.5477Z" fill="white"/>
<path d="M1.01258 27.6017C0.85697 27.6017 0.670576 27.5491 0.55415 27.6163C0.436045 27.6845 0.441082 27.8922 0.383989 28.0355C0.355442 28.1077 0.134904 28.1743 0.0850866 28.1217C0.0537411 28.0887 0.0895645 28.0523 0.1002 28.0215C0.257487 27.5726 0.417573 27.1248 0.57654 26.677C0.658822 26.4442 0.742783 26.2119 0.821147 25.9779C0.842417 25.9141 0.867606 25.8839 0.943731 25.8839C1.1833 25.8839 1.1833 25.8799 1.2639 26.1066C1.48668 26.7358 1.70778 27.3655 1.93447 27.9935C1.9703 28.0926 1.9731 28.1295 1.84547 28.1323C1.71673 28.1357 1.66076 28.096 1.62773 27.9734C1.59415 27.8469 1.58408 27.6773 1.48444 27.6146C1.39208 27.5564 1.23648 27.5978 1.10829 27.5961C1.07639 27.5961 1.04392 27.5961 1.01202 27.5961V27.6011L1.01258 27.6017ZM1.01426 26.1755C0.886637 26.5483 0.767412 26.897 0.647627 27.2457C0.628596 27.3011 0.633074 27.3308 0.704161 27.3297C0.910146 27.3263 1.11669 27.3246 1.32268 27.3285C1.39152 27.3297 1.40272 27.3062 1.38313 27.2485C1.26278 26.8992 1.143 26.5494 1.01482 26.1755H1.01426Z" fill="white"/>
<path d="M16.1978 27.0078C16.2012 26.8058 16.2107 26.6043 16.2762 26.4106C16.3976 26.0529 16.7508 25.8195 17.1292 25.8441C17.5227 25.8699 17.8166 26.0994 17.8882 26.4453C17.8972 26.4895 17.9565 26.5847 17.858 26.5841C17.7746 26.5841 17.6447 26.6692 17.6028 26.5029C17.5434 26.2684 17.3929 26.1425 17.1471 26.1134C16.9361 26.0882 16.6898 26.199 16.6064 26.3938C16.4351 26.794 16.4385 27.2082 16.5997 27.6096C16.687 27.8273 16.9272 27.9269 17.1729 27.8973C17.3945 27.8704 17.5507 27.7321 17.6061 27.4993C17.6475 27.3263 17.7791 27.4215 17.8619 27.4187C17.9621 27.4153 17.9011 27.5133 17.8922 27.5553C17.811 27.9258 17.4852 28.1715 17.0878 28.1715C16.6758 28.1715 16.3456 27.9135 16.2499 27.5133C16.2101 27.3476 16.1967 27.1785 16.1984 27.0078H16.1978Z" fill="white"/>
<path d="M5.1446 27.0363C5.14572 26.808 5.15188 26.6115 5.21625 26.4217C5.33771 26.0613 5.65509 25.8407 6.04579 25.8447C6.41858 25.848 6.71412 26.0574 6.81711 26.3921C6.82775 26.4268 6.8311 26.4637 6.84118 26.499C6.86301 26.5729 6.83614 26.5891 6.7617 26.5941C6.63128 26.6025 6.55291 26.5886 6.51989 26.4279C6.47959 26.2326 6.26633 26.1133 6.03963 26.1111C5.8079 26.1083 5.59967 26.2432 5.51403 26.4621C5.41328 26.7212 5.42615 26.9921 5.44742 27.2619C5.45302 27.3347 5.46645 27.4075 5.48549 27.4774C5.55657 27.7411 5.77151 27.9034 6.03963 27.9011C6.30943 27.8989 6.47847 27.7579 6.55739 27.4802C6.60049 27.328 6.72643 27.4265 6.80983 27.4181C6.89548 27.4091 6.84398 27.4931 6.83726 27.5312C6.77569 27.8799 6.48798 28.134 6.12303 28.1676C5.73177 28.204 5.37578 27.9957 5.23752 27.6532C5.15356 27.4444 5.14628 27.225 5.14404 27.0358L5.1446 27.0363Z" fill="white"/>
<path d="M12.4845 27.1382C12.4845 27.4271 12.4738 27.7159 12.4884 28.0036C12.4962 28.162 12.4011 28.1172 12.3182 28.129C12.2024 28.1458 12.1968 28.087 12.1973 27.9952C12.2012 27.4226 12.1968 26.85 12.2024 26.2774C12.2035 26.1732 12.1766 26.1425 12.0725 26.1492C11.9264 26.1587 11.7786 26.1419 11.6331 26.1542C11.5189 26.1637 11.5267 26.0982 11.5351 26.0294C11.5424 25.9701 11.4887 25.8805 11.6253 25.8827C12.1061 25.8894 12.5875 25.8883 13.0683 25.8833C13.1942 25.8822 13.1494 25.9667 13.1528 26.0238C13.1562 26.0798 13.1841 26.1576 13.0705 26.1531C12.9104 26.1464 12.7498 26.1564 12.5897 26.1497C12.5035 26.1458 12.4811 26.1749 12.4828 26.2583C12.4873 26.5516 12.4845 26.8444 12.4845 27.1377V27.1382Z" fill="white"/>
<path d="M34.7756 27.1349C34.7756 26.8416 34.7723 26.5483 34.7779 26.2555C34.7795 26.1688 34.7532 26.1464 34.6693 26.1498C34.5137 26.1565 34.3575 26.1447 34.2024 26.1537C34.0804 26.1609 34.114 26.0803 34.1134 26.0193C34.1134 25.9578 34.0815 25.8822 34.2024 25.8833C34.6833 25.8889 35.1641 25.8878 35.6455 25.8833C35.782 25.8822 35.7221 25.9768 35.7317 26.0356C35.7417 26.1022 35.7423 26.1598 35.6387 26.1531C35.4882 26.1436 35.3365 26.157 35.1853 26.1492C35.088 26.1442 35.0628 26.1749 35.0639 26.2712C35.0689 26.8438 35.0678 27.4164 35.0661 27.9891C35.0661 28.0344 35.098 28.1083 35.0359 28.1212C34.9581 28.1368 34.8719 28.1296 34.7924 28.1139C34.7566 28.1066 34.7773 28.0484 34.7773 28.0143C34.7756 27.7209 34.7762 27.4282 34.7762 27.1349H34.7756Z" fill="white"/>
<path d="M19.3906 27.1399C19.3906 27.4377 19.3844 27.7355 19.3934 28.0327C19.3979 28.1794 19.2977 28.1189 19.2355 28.1256C19.1734 28.1323 19.1034 28.1525 19.1051 28.0333C19.1118 27.4562 19.1029 26.8791 19.1113 26.3025C19.1129 26.1699 19.0704 26.1408 18.9506 26.1492C18.8096 26.1587 18.6663 26.1447 18.5252 26.1531C18.411 26.1598 18.4379 26.0831 18.4429 26.0277C18.448 25.9729 18.3931 25.8833 18.5213 25.8839C19.0066 25.8872 19.4919 25.8872 19.9777 25.885C20.116 25.8844 20.0455 25.9852 20.0572 26.0423C20.069 26.0994 20.074 26.1592 19.9749 26.1536C19.8199 26.1453 19.6632 26.1576 19.5081 26.1497C19.4079 26.1447 19.3872 26.1816 19.3889 26.2746C19.3945 26.5628 19.3911 26.8516 19.3911 27.1399H19.3906Z" fill="white"/>
<path d="M27.2264 27.1382C27.2264 26.8449 27.2236 26.5516 27.2286 26.2583C27.2303 26.1732 27.204 26.1469 27.12 26.1503C26.96 26.1559 26.7993 26.1464 26.6392 26.1542C26.5267 26.1598 26.5502 26.0842 26.5564 26.0271C26.5625 25.9734 26.5043 25.8833 26.6348 25.8844C27.1206 25.8883 27.6065 25.8889 28.0918 25.8844C28.2211 25.8833 28.1668 25.9723 28.1712 26.026C28.1757 26.0798 28.2082 26.1604 28.0918 26.1536C27.9501 26.1458 27.8074 26.1598 27.6658 26.1492C27.5449 26.1402 27.5029 26.1704 27.5052 26.3025C27.5135 26.8707 27.5018 27.4388 27.5124 28.007C27.5152 28.1575 27.4307 28.1178 27.3512 28.1284C27.2482 28.1424 27.2202 28.1088 27.2236 28.0036C27.232 27.7153 27.2264 27.4265 27.2264 27.1377V27.1382Z" fill="white"/>
<path d="M32.5574 26.9977C32.5574 26.663 32.563 26.3283 32.554 25.9941C32.5507 25.8799 32.6044 25.8782 32.6845 25.8866C32.7567 25.8939 32.8473 25.8458 32.8451 25.9935C32.8373 26.5757 32.8451 27.1578 32.8395 27.7399C32.8384 27.8446 32.8658 27.8692 32.9682 27.867C33.252 27.8597 33.5369 27.8715 33.8207 27.8619C33.9512 27.8575 33.9153 27.9375 33.917 28.003C33.9187 28.0674 33.9422 28.1345 33.8224 28.1317C33.4328 28.1222 33.0433 28.125 32.6537 28.1295C32.5725 28.1306 32.5546 28.1054 32.5557 28.0299C32.5591 27.6862 32.5574 27.3425 32.5574 26.9983V26.9977Z" fill="white"/>
<path d="M10.4437 27.014C10.4437 26.6748 10.4481 26.3356 10.4409 25.9969C10.4386 25.8878 10.4862 25.8754 10.5707 25.8861C10.6457 25.895 10.7437 25.8424 10.742 25.9975C10.7353 26.6753 10.7375 27.3537 10.7409 28.0321C10.7409 28.1138 10.7129 28.1295 10.6385 28.129C10.4442 28.1284 10.4442 28.1318 10.4442 27.9353C10.4442 27.6286 10.4442 27.3213 10.4442 27.0145L10.4437 27.014Z" fill="white"/>
</svg>
