<svg width="38" height="38" viewBox="0 0 38 38" fill="none" xmlns="http://www.w3.org/2000/svg">
<path d="M0 37.9873V0H37.9592C37.9719 0.180374 37.9909 0.331743 37.9909 0.483112C37.9909 12.7658 37.9873 25.0493 38 37.332C38 37.8459 37.8903 38.0009 37.3474 38C25.1871 37.9828 13.0277 37.9873 0.867427 37.9873C0.593693 37.9873 0.320866 37.9873 0 37.9873ZM36.1011 36.1219V1.8554H1.87172V36.1219H36.1011Z" fill="white"/>
<path d="M24.607 8.48303C24.6714 7.20772 24.7266 6.01761 24.801 4.82932C24.8073 4.73233 24.9378 4.57281 25.0267 4.56102C26.1651 4.40422 27.3045 4.18215 28.4483 4.15224C29.5514 4.12323 30.65 4.32355 31.6153 4.95894C32.9314 5.82636 33.4707 7.14608 33.7435 8.61083C34.1025 10.5369 33.9176 12.473 33.8197 14.4082C33.71 16.5663 33.661 18.7281 33.5296 20.8844C33.4426 22.3138 33.2976 23.7432 33.1054 25.1626C32.8625 26.9528 31.0914 28.3079 29.7082 28.529C27.9652 28.8073 25.9122 27.7631 25.2379 26.1669C24.8753 25.3086 24.6351 24.3587 24.5508 23.4305C24.3867 21.624 24.3197 19.8049 24.3124 17.9903C24.3079 16.7449 24.6786 15.5693 25.4626 14.5623C26.2829 13.5081 27.4304 13.1528 28.6976 13.0712C29.0384 13.0495 29.381 13.0676 29.7726 13.0676C29.7336 13.916 29.7001 14.7046 29.6602 15.4931C29.6439 15.8204 29.594 16.1476 29.5958 16.4739C29.5976 16.7848 29.4789 16.8899 29.1662 16.9035C28.4429 16.9343 28.3223 17.0449 28.2408 17.7446C27.9942 19.8593 28.1837 21.9549 28.5644 24.0369C28.5997 24.229 28.8345 24.384 28.9768 24.5572C29.1136 24.3868 29.3429 24.2318 29.372 24.0441C29.5079 23.1749 29.6393 22.2993 29.6792 21.4219C29.8315 18.0891 29.962 14.7553 30.0681 11.4216C30.0907 10.7182 30.0218 10.0031 29.9158 9.30604C29.7454 8.18845 29.3801 7.91562 28.267 8.03164C27.2537 8.13678 26.2449 8.29087 25.2342 8.42139C25.0493 8.44496 24.8635 8.45855 24.6052 8.48393L24.607 8.48303Z" fill="white"/>
<path d="M4.27734 33.2949C3.92112 31.2246 3.70903 29.2713 3.79604 27.2936C3.90934 24.7013 4.06977 22.1099 4.12325 19.5166C4.2003 15.8303 4.21389 12.1431 4.22205 8.45672C4.22386 7.43883 4.11056 6.42004 4.04621 5.40215C4.02989 5.14926 4.00542 4.90725 4.36436 4.88097C5.51458 4.79667 6.6639 4.70603 7.88663 4.61267C7.94736 5.64778 8.04707 6.62398 8.05251 7.60017C8.07426 11.0255 8.06338 14.4517 8.06429 17.877C8.06429 18.7734 8.0661 18.7634 8.89818 19.0326C10.9929 19.7115 12.6616 20.8998 13.3495 23.087C13.6414 24.0142 13.8644 25.0094 13.8607 25.9729C13.8517 28.0268 13.6785 30.0808 13.5535 32.1338C13.5462 32.2588 13.3722 32.4782 13.2752 32.4773C12.0715 32.4755 10.8687 32.4419 9.63418 32.4156C9.76379 31.0361 9.93148 29.7662 9.98858 28.4918C10.0393 27.3398 10.0557 26.1724 9.92876 25.0294C9.79189 23.794 8.85286 22.9075 7.80324 22.7978C7.7552 23.832 7.67907 24.8644 7.66456 25.8986C7.63647 27.871 7.62831 29.8397 7.93377 31.802C8.06973 32.6794 8.0516 32.5924 7.26394 32.7238C6.2823 32.8879 5.30792 33.0945 4.27825 33.293L4.27734 33.2949Z" fill="white"/>
<path d="M15.6635 32.6677C15.6019 32.1972 15.5221 31.7268 15.4822 31.2519C15.1994 27.9453 14.9166 24.6388 14.6556 21.3304C14.6003 20.6243 14.6275 19.911 14.6356 19.2012C14.6411 18.7644 14.5242 18.5078 14.0229 18.4272C11.4551 18.012 10.1716 16.2944 9.51538 13.9341C9.0658 12.3153 9.0223 10.6593 8.98151 9.00241C8.9516 7.79327 8.99692 6.58231 8.97607 5.37227C8.96882 4.9517 9.122 4.82661 9.52172 4.84383C10.4725 4.88462 11.4243 4.9091 12.376 4.91272C12.734 4.91453 12.8428 5.03327 12.8464 5.39674C12.8654 7.24489 12.8482 9.09758 12.9796 10.9394C13.0513 11.9373 13.3884 12.9181 13.6232 13.9015C13.6567 14.0411 13.7673 14.1997 13.8888 14.2722C14.0519 14.371 14.2776 14.4671 14.4435 14.4281C14.5604 14.4009 14.6946 14.1462 14.6982 13.9903C14.7399 12.3135 14.797 10.6357 14.7671 8.95981C14.7435 7.64915 14.6039 6.3403 14.5115 4.96982C14.9783 4.93538 15.4532 4.91181 15.9255 4.86196C16.5092 4.79942 17.0974 4.74776 17.6703 4.62811C18.0319 4.55288 18.2105 4.65802 18.2594 4.98976C18.3736 5.7738 18.5459 6.55965 18.5567 7.34641C18.5939 9.90609 18.5685 12.4667 18.5676 15.0264C18.5667 17.4655 18.5051 19.9073 18.583 22.3437C18.6392 24.1203 18.8785 25.8905 19.0371 27.6634C19.1586 29.0221 19.2737 30.3826 19.4069 31.7404C19.445 32.1256 19.2946 32.3296 18.922 32.3649C17.8606 32.4673 16.7983 32.5616 15.6626 32.6658L15.6635 32.6677Z" fill="white"/>
<path d="M32.7356 29.3366C32.6749 30.5947 32.6223 31.7313 32.5625 32.8671C32.548 33.1462 32.3821 33.2278 32.1093 33.2314C30.3962 33.2532 28.6831 33.3402 26.9709 33.3085C25.5823 33.2822 24.2381 32.9994 23.0299 32.2262C21.9041 31.5066 21.1681 30.485 20.6606 29.2886C19.8312 27.3308 19.5692 25.256 19.5973 23.1541C19.6381 20.1303 19.7469 17.1065 19.8412 14.0837C19.9155 11.7162 20.0215 9.34956 20.0941 6.98113C20.1122 6.3965 20.0469 5.80915 20.0342 5.22271C20.027 4.8529 20.2074 4.65621 20.5971 4.62992C21.4935 4.57101 22.3882 4.49215 23.2828 4.4142C23.5755 4.38882 23.7505 4.50303 23.7967 4.79308C23.8257 4.9798 23.8592 5.16833 23.8602 5.35595C23.8674 7.00107 23.9164 8.648 23.8602 10.2904C23.7804 12.589 23.62 14.8841 23.4949 17.1809C23.348 19.8756 23.1659 22.5731 23.5683 25.2605C23.6952 26.1098 23.9109 26.9501 24.1439 27.7785C24.3777 28.6106 24.9478 29.1934 25.8125 29.2804C27.1305 29.4137 28.4592 29.4726 29.7853 29.4907C30.728 29.5034 31.6724 29.3974 32.7356 29.3375V29.3366Z" fill="white"/>
</svg>
