<svg width="39" height="38" viewBox="0 0 39 38" fill="none" xmlns="http://www.w3.org/2000/svg">
<path d="M0 38V0H38.2013V38H0ZM0.928545 0.903184V37.0886H37.2793V0.903184H0.928545Z" fill="white"/>
<path d="M9.57015 35.7134H8.42889C8.42889 34.9714 8.4338 34.2433 8.42644 33.516C8.42399 33.2444 8.40599 32.972 8.37326 32.702C8.33236 32.3625 8.17037 32.0958 7.81204 32.023C7.40872 31.9403 7.03648 32.0606 6.84587 32.4197C6.69779 32.6979 6.61762 33.0399 6.60371 33.3581C6.57017 34.1288 6.59307 34.9019 6.59307 35.7077H5.40355C5.40355 35.0197 5.40928 34.3357 5.4011 33.6518C5.39783 33.3516 5.38474 33.0497 5.34547 32.7519C5.29393 32.3658 5.10495 32.0745 4.68526 32.0091C4.29094 31.9477 3.85816 32.1661 3.72563 32.5785C3.60946 32.9392 3.56937 33.3344 3.55383 33.7164C3.52765 34.3717 3.54646 35.0287 3.54646 35.7126H2.4093V31.0609H3.50392C3.53092 31.1934 3.5571 31.3251 3.58491 31.465C4.88488 30.6584 5.59499 30.7132 6.33619 31.6033C6.80578 31.375 7.23365 31.0707 7.70733 30.9562C8.66778 30.7238 9.49324 31.3129 9.55296 32.2979C9.62169 33.4227 9.56851 34.555 9.56851 35.7126L9.57015 35.7134Z" fill="white"/>
<path d="M17.7397 24.3099V22.047H18.8704V28.5378H17.7569C17.7373 28.4192 17.7176 28.3006 17.7013 28.1983C15.9211 29.1293 14.6588 28.6859 14.1065 26.7478C13.8218 25.7505 14.1188 24.7876 14.9999 24.1397C15.8876 23.4877 16.7956 23.6128 17.7397 24.3099ZM15.2282 26.1768C15.2216 26.963 15.7648 27.579 16.4774 27.5945C17.2211 27.6109 17.7815 27.0112 17.7831 26.1956C17.7856 25.4012 17.2538 24.8171 16.515 24.8024C15.7959 24.7885 15.2339 25.3881 15.2282 26.1768Z" fill="white"/>
<path d="M14.1687 31.447C14.1875 31.2998 14.2014 31.1877 14.217 31.0601H15.3517V35.7077H14.2211C14.2031 35.594 14.1843 35.4778 14.1638 35.3502C12.8172 36.0881 11.842 35.9891 11.0632 35.0549C10.2999 34.1402 10.2966 32.6104 11.0558 31.7023C11.8224 30.786 12.8139 30.6968 14.1679 31.447H14.1687ZM11.6948 33.3696C11.6907 34.1746 12.2135 34.7661 12.9375 34.7775C13.6942 34.789 14.2399 34.2057 14.2407 33.3851C14.2407 32.5834 13.713 32.0074 12.9727 32.0009C12.2339 31.9952 11.6989 32.5686 11.6948 33.3696Z" fill="white"/>
<path d="M24.0931 33.2722C24.8367 34.0813 25.5599 34.8683 26.3592 35.7379C25.8291 35.7379 25.4053 35.7551 24.9848 35.7265C24.867 35.7183 24.7418 35.5907 24.6486 35.4917C24.089 34.8969 23.5376 34.2948 22.9052 33.6117V35.711H21.723V29.2471H22.8716V32.8247C22.9035 32.8427 22.9354 32.8607 22.9674 32.8779C23.3314 32.4713 23.6963 32.0655 24.0603 31.6589C24.6608 30.9872 25.0249 30.8792 26.0238 31.1083C25.3808 31.8291 24.7549 32.531 24.0931 33.273V33.2722Z" fill="white"/>
<path d="M20.9164 31.0764C20.2439 31.8299 19.6164 32.5326 18.9562 33.273C19.6925 34.0731 20.4157 34.8593 21.2207 35.7339C20.4591 35.6938 19.7743 35.9736 19.2467 35.2348C18.8441 34.6728 18.3148 34.2016 17.7593 33.6011V35.7085H16.6042V29.257H17.7438V32.8206C17.7765 32.837 17.8084 32.8533 17.8412 32.8697C18.1684 32.504 18.557 32.1768 18.8098 31.7653C19.3096 30.9521 20.0402 30.9586 20.9172 31.0781L20.9164 31.0764Z" fill="white"/>
<path d="M24.4318 28.6663C23.0615 28.6622 21.9938 27.5765 22.0012 26.194C22.0086 24.8163 23.0901 23.729 24.4506 23.7307C25.8422 23.7323 26.9368 24.8277 26.9311 26.2128C26.9254 27.6101 25.8455 28.6703 24.4318 28.6663ZM25.735 26.207C25.7334 25.3996 25.2016 24.8326 24.4522 24.8384C23.738 24.8441 23.1997 25.4258 23.1932 26.1989C23.1858 26.9965 23.729 27.5954 24.4596 27.5945C25.191 27.5945 25.7367 27.0014 25.735 26.207Z" fill="white"/>
<path d="M8.8797 23.8509H10.0946C10.0946 24.0604 10.0921 24.2542 10.0946 24.4473C10.1044 25.1779 10.0979 25.9101 10.133 26.639C10.1633 27.2681 10.4905 27.5962 11.0125 27.5929C11.5385 27.5896 11.865 27.255 11.8854 26.6349C11.9099 25.8757 11.8977 25.1157 11.9018 24.3557C11.9018 24.2011 11.9018 24.0456 11.9018 23.8624H13.1314C13.0774 25.0159 13.0913 26.1629 12.9506 27.2902C12.8393 28.1852 12.0171 28.6753 10.9454 28.6646C9.91951 28.6548 9.15213 28.1402 9.04496 27.2182C8.91733 26.1162 8.9296 24.9971 8.8797 23.8501V23.8509Z" fill="white"/>
<path d="M2.04034 27.8441C2.27596 27.584 2.49603 27.341 2.70301 27.1127C3.0008 27.2772 3.25768 27.4923 3.54647 27.5529C3.74609 27.5946 3.9907 27.4236 4.21568 27.3475C4.11096 27.1659 4.04633 26.9344 3.89334 26.8149C3.64873 26.6243 3.33867 26.5212 3.0687 26.3584C2.32504 25.9093 2.04362 25.29 2.27432 24.6445C2.50503 23.9999 3.1865 23.6358 3.99643 23.7446C4.51265 23.8141 4.93806 24.053 5.26039 24.5079C5.01414 24.7378 4.77771 24.9579 4.53474 25.1845C4.34985 25.0797 4.15268 24.9079 3.92934 24.8613C3.7559 24.8253 3.55056 24.9464 3.35912 24.9971C3.45893 25.146 3.52765 25.3424 3.66591 25.434C3.99806 25.6549 4.37521 25.807 4.71226 26.0222C5.23748 26.3576 5.43465 26.8583 5.33402 27.4678C5.23421 28.0715 4.8448 28.4241 4.28112 28.5935C3.42948 28.8496 2.59338 28.5722 2.04034 27.8433V27.8441Z" fill="white"/>
<path d="M8.2808 24.8351C8.02392 24.8482 7.83984 24.858 7.61241 24.8695V28.5206H6.42944V24.8817C6.20855 24.8596 6.04166 24.8425 5.85022 24.8228V23.8607C6.02775 23.8444 6.19464 23.8297 6.41307 23.81V22.1296H7.59441V23.8059C7.83984 23.8239 8.04682 23.8387 8.2808 23.855V24.8351Z" fill="white"/>
<path d="M21.125 28.5379H19.9993V23.8673H21.125V28.5379Z" fill="white"/>
<path d="M21.2927 22.6581C21.3017 23.0901 21.0154 23.4157 20.6112 23.4345C20.1965 23.4542 19.8537 23.1253 19.8373 22.6917C19.8209 22.2646 20.1531 21.9145 20.5728 21.9169C20.9802 21.9194 21.2845 22.2319 21.2927 22.6573V22.6581Z" fill="white"/>
</svg>
