<svg width="38" height="38" viewBox="0 0 38 38" fill="none" xmlns="http://www.w3.org/2000/svg">
<g clip-path="url(#clip0_559_6661)">
<path d="M38 22.6655C37.6845 22.681 37.4272 22.6487 37.0869 22.6655V16H38V22.6655Z" fill="white"/>
<path d="M0.913071 22.6655C0.597556 22.681 0.34031 22.6487 0 22.6655V16H0.913071V22.6655Z" fill="white"/>
<path d="M16.6355 22.6655C16.32 22.681 16.0627 22.6487 15.7224 22.6655V16H16.6355V22.6655Z" fill="white"/>
<path d="M25.2554 22.6655C25.098 22.681 24.969 22.6487 24.7992 22.6655V16H25.2554V22.6655Z" fill="white"/>
<path d="M9.4983 17.43C9.49458 17.443 9.49024 17.4554 9.48466 17.4684C9.45987 17.5218 9.40966 17.5589 9.36131 17.5924C8.71478 18.048 8.02425 18.5569 7.25251 18.7745C6.50556 18.9847 5.94148 18.3164 5.77845 17.6234C5.71461 17.3519 5.9235 16.8622 6.17641 16.7389C6.29852 16.6787 6.438 16.6639 6.57375 16.6552C7.04113 16.6273 7.50975 16.657 7.97528 16.7017C8.29141 16.732 8.63358 16.706 8.93794 16.8132C9.12824 16.8808 9.57021 17.1622 9.4983 17.4288V17.43Z" fill="white"/>
<path d="M20.0386 18.8669C20.2004 18.7225 20.4545 18.7714 20.5525 18.9648C21.0354 19.9195 20.8804 20.8059 20.7632 21.6842C20.7477 21.8001 20.651 21.9681 20.5537 22.001C19.6289 22.3084 19.2272 21.5479 18.7629 21.0513C18.4077 20.6714 18.5912 20.3131 18.7536 20.1104C19.1063 19.6703 19.5508 19.3014 20.0386 18.8663V18.8669Z" fill="white"/>
<path d="M27.3401 18.3425C27.332 18.0791 27.3413 17.8156 27.3624 17.5528C27.4033 17.0525 27.4014 16.4798 28.1143 16.6955C28.8302 16.9118 29.5164 17.6005 29.933 18.252C30.2163 18.6952 29.2406 19.206 28.1881 19.2097C27.3996 19.2128 27.3525 18.7919 27.3394 18.3431L27.3401 18.3425Z" fill="white"/>
</g>
<defs>
<clipPath id="clip0_559_6661">
<rect width="38" height="6.66982" fill="white" transform="translate(0 16)"/>
</clipPath>
</defs>
</svg>
