<svg width="38" height="38" viewBox="0 0 38 38" fill="none" xmlns="http://www.w3.org/2000/svg">
<g clip-path="url(#clip0_559_6582)">
<path d="M2.66037 10.6684C1.88082 10.6684 1.11222 10.6763 0.343616 10.6604C0.230118 10.6584 0.119606 10.5439 0.00710352 10.4822C0.117615 10.4324 0.228126 10.3418 0.339633 10.3408C1.46167 10.3299 2.58471 10.3478 3.70675 10.3309C5.40325 10.305 7.09875 10.2353 8.79525 10.2253C10.6441 10.2134 12.4172 10.5778 14.0679 11.4419C17.1543 13.0588 18.4914 16.5991 17.1344 19.6656C16.318 21.5104 14.8057 22.6315 12.9698 23.3005C10.8263 24.0811 8.70764 24.0383 6.70151 22.8077C6.6348 22.7669 6.55914 22.74 6.44863 22.6892V31.8248C7.042 31.8248 7.62443 31.8248 8.20685 31.8248C8.41692 31.8248 8.62998 31.8059 8.83707 31.8328C8.94359 31.8467 9.03917 31.9453 9.13973 32.005C9.04614 32.0568 8.95256 32.1096 8.85797 32.1593C8.84702 32.1653 8.8301 32.1593 8.81616 32.1593C5.93988 32.1593 3.06359 32.1594 0.187307 32.1574C0.146487 32.1574 0.105668 32.1474 0.067835 32.1424C-0.10739 31.8348 0.0867514 31.8218 0.310761 31.8228C1.08135 31.8248 1.85195 31.8228 2.65938 31.8228V10.6684H2.66037ZM6.47352 10.6833C6.45261 10.756 6.43071 10.7958 6.43071 10.8356C6.42672 14.5213 6.42274 18.208 6.4317 21.8937C6.4317 22.0172 6.53723 22.1894 6.64476 22.2541C7.17143 22.5697 7.69213 22.9172 8.25862 23.1442C10.3882 23.9964 12.3197 23.1641 13.0425 20.9897C13.8738 18.4868 13.8499 15.9401 12.9798 13.4421C12.482 12.0134 11.4654 11.0766 9.97105 10.7092C8.80421 10.4215 7.63637 10.6017 6.47352 10.6843V10.6833Z" fill="white"/>
<path d="M37.6806 31.8318C37.2186 31.8129 36.7517 31.79 36.2927 31.8338C35.8915 31.8716 35.7421 31.7014 35.6057 31.3529C32.8121 24.2015 30.0055 17.0551 27.1959 9.9097C27.1402 9.76733 27.0227 9.64886 26.9351 9.51843C26.8355 9.65085 26.7001 9.77032 26.6414 9.91866C25.9166 11.7565 25.2037 13.5984 24.4869 15.4393C22.4071 20.7787 20.3243 26.1171 18.2535 31.4604C18.1439 31.7442 18.0026 31.8457 17.7039 31.8308C17.2141 31.8059 16.7212 31.8139 16.2314 31.8338C16.1348 31.8378 16.0432 31.9632 15.9496 32.0319C15.9735 32.0667 15.9974 32.1026 16.0213 32.1384H21.0889C21.1955 31.8358 21.0252 31.8218 20.8181 31.8228C20.0893 31.8268 19.3616 31.8248 18.5681 31.8248C18.6089 31.6785 18.6238 31.5988 18.6527 31.5231C19.5587 29.1546 20.4707 26.7881 21.3647 24.4156C21.4643 24.1517 21.6236 24.1378 21.8466 24.1388C24.0488 24.1428 26.2521 24.1478 28.4544 24.1338C28.757 24.1318 28.8874 24.2294 28.993 24.5121C29.8552 26.8229 30.7353 29.1257 31.6094 31.4316C31.6522 31.546 31.6841 31.6645 31.7359 31.8248C31.5417 31.8248 31.3904 31.8248 31.2391 31.8248C30.5521 31.8248 29.8641 31.8278 29.1772 31.8228C28.9591 31.8208 28.8108 31.8567 28.9223 32.1325H37.9474C37.9653 32.0886 37.9842 32.0458 38.0022 32.002C37.8956 31.9423 37.7911 31.8368 37.6816 31.8328L37.6806 31.8318ZM21.6355 23.7824C22.8043 20.7587 23.9553 17.7789 25.146 14.6985L28.6883 23.7824H21.6365H21.6355Z" fill="white"/>
<path d="M20.1919 6H20.7355C20.7355 6.41019 20.7355 6.80942 20.7355 7.20866C20.7355 7.77548 21.0258 8.0589 21.6066 8.0589C21.9391 8.0589 22.2717 8.0589 22.6261 8.0589V8.58656H20.7305V10.6455C20.5433 10.6544 20.4079 10.6604 20.2227 10.6684V8.60449H18.3261V8.05989H20.1919V6Z" fill="white"/>
</g>
<defs>
<clipPath id="clip0_559_6582">
<rect width="38" height="38" fill="white"/>
</clipPath>
</defs>
</svg>
