<svg width="38" height="38" viewBox="0 0 38 38" fill="none" xmlns="http://www.w3.org/2000/svg">
<path d="M17.8596 13.7834C17.4018 14.7282 16.979 15.595 16.5615 16.4637C15.8336 17.9802 15.1091 19.4981 14.382 21.0146C14.2159 21.3619 14.0564 21.7133 13.8685 22.0481C13.8183 22.1381 13.6747 22.2267 13.5728 22.228C12.538 22.2406 11.5025 22.24 10.4676 22.2261C10.3664 22.2247 10.2235 22.1348 10.1726 22.0448C8.71758 19.457 7.27253 16.8634 5.8255 14.2717C5.22604 13.1978 4.62592 12.1246 4 11.0044C4.1449 10.9939 4.24613 10.9793 4.34803 10.9793C5.3061 10.978 6.26417 10.9846 7.22225 10.974C7.44588 10.9714 7.57821 11.0329 7.68408 11.2426C8.78176 13.4234 9.8887 15.5996 10.9937 17.7764C11.3218 18.4222 11.652 19.0673 12.0086 19.7654C12.3362 19.0998 12.6418 18.4824 12.9436 17.8638C13.7097 16.293 14.4746 14.7216 15.2395 13.1495C15.5472 12.517 15.8555 11.8844 16.1559 11.2486C16.2432 11.0633 16.3458 10.9674 16.5767 10.9714C17.5123 10.9872 18.4485 10.9879 19.3847 10.9714C19.6348 10.9674 19.7539 11.0567 19.8519 11.2764C20.1106 11.8573 20.3924 12.427 20.6948 13.0635C20.894 12.6321 21.0667 12.251 21.2453 11.8725C22.0697 10.1238 22.8518 8.35254 23.7344 6.63357C24.4226 5.29372 25.3045 4.06702 26.2672 2.89986C26.9296 2.09728 27.6362 1.35888 28.5089 0.777284C29.9778 -0.202622 31.8681 -0.339584 33.3674 0.850728C33.7505 1.15443 34.0522 1.59641 34.2977 2.02847C34.5816 2.52802 34.393 3.1063 33.9523 3.39875C33.4759 3.71502 32.8275 3.59791 32.3862 3.08314C32.2029 2.86943 32.0481 2.61932 31.9316 2.3626C31.4758 1.35888 30.5177 1.03202 29.5365 1.57061C28.7312 2.01259 28.1761 2.70865 27.6607 3.44176C26.5637 5.00193 25.8147 6.73877 25.1444 8.50869C24.1784 11.0567 23.2448 13.6166 22.302 16.1733C22.2702 16.2586 22.255 16.379 22.2907 16.4558C22.7645 17.4813 23.2481 18.5029 23.7549 19.5788C24.1208 18.9099 24.4622 18.2879 24.8004 17.6646C25.6704 16.0601 26.5385 14.4543 27.4086 12.8498C27.7123 12.2894 28.012 11.7263 28.3309 11.1738C28.3839 11.0819 28.5241 10.9866 28.6254 10.9853C29.5834 10.9714 30.5415 10.9773 31.4996 10.9793C31.5399 10.9793 31.581 10.9912 31.6643 11.0044C31.3335 11.6019 31.0179 12.1769 30.6977 12.7486C28.9734 15.8292 27.2465 18.9085 25.5268 21.9912C25.4296 22.1652 25.3237 22.2406 25.1173 22.2386C24.093 22.228 23.0688 22.2294 22.0452 22.2386C21.8375 22.2406 21.7429 22.1711 21.6602 21.9773C21.4292 21.4347 21.1659 20.9067 20.8754 20.2901C20.6015 21.1297 20.3567 21.884 20.1099 22.6383C18.9176 26.284 17.4243 29.7841 15.039 32.8323C14.1253 34.0002 13.1692 35.1375 12.1833 36.2451C11.6083 36.8916 10.9526 37.4752 10.1309 37.8166C9.93105 37.8993 9.71932 37.9714 9.50693 37.9985C9.41959 38.0098 9.27866 37.9099 9.23168 37.8232C9.19529 37.7557 9.23631 37.5969 9.29917 37.5367C9.47186 37.3713 9.69881 37.2595 9.86025 37.0854C10.3155 36.5952 10.7773 36.1069 11.1849 35.5775C12.0907 34.3998 12.9713 33.1949 13.6257 31.859C14.374 30.33 15.0516 28.7652 15.7232 27.1997C16.2081 26.0689 16.6693 24.9249 17.0769 23.7651C17.5903 22.3041 18.0429 20.8214 18.512 19.3446C18.7515 18.5909 18.9705 17.83 19.1922 17.0711C19.2246 16.96 19.265 16.8171 19.2233 16.7238C18.7906 15.763 18.3413 14.8089 17.8629 13.7814L17.8596 13.7834Z" fill="white"/>
</svg>
